<ttFont>
    <TTGlyph name=".notdef" xMin="0" yMin="-340" xMax="1530" yMax="2040">
      <contour>
        <pt x="0" y="2040" on="1"/>
        <pt x="1530" y="2040" on="1"/>
        <pt x="1530" y="-340" on="1"/>
        <pt x="0" y="-340" on="1"/>
      </contour>
      <contour>
        <pt x="1430" y="-240" on="1"/>
        <pt x="1430" y="1940" on="1"/>
        <pt x="100" y="1940" on="1"/>
        <pt x="100" y="-240" on="1"/>
      </contour>
      <contour>
        <pt x="590" y="750" on="1"/>
        <pt x="800" y="821" on="0"/>
        <pt x="1050" y="1132" on="0"/>
        <pt x="1050" y="1316" on="1"/>
        <pt x="1050" y="1452" on="0"/>
        <pt x="880" y="1618" on="0"/>
        <pt x="539" y="1618" on="0"/>
        <pt x="443" y="1502" on="1"/>
        <pt x="495" y="1487" on="0"/>
        <pt x="560" y="1401" on="0"/>
        <pt x="560" y="1354" on="1"/>
        <pt x="560" y="1275" on="0"/>
        <pt x="467" y="1179" on="0"/>
        <pt x="321" y="1179" on="0"/>
        <pt x="274" y="1234" on="1"/>
        <pt x="228" y="1290" on="0"/>
        <pt x="232" y="1356" on="1"/>
        <pt x="240" y="1491" on="0"/>
        <pt x="526" y="1704" on="0"/>
        <pt x="972" y="1704" on="0"/>
        <pt x="1299" y="1470" on="0"/>
        <pt x="1299" y="1279" on="1"/>
        <pt x="1299" y="1000" on="0"/>
        <pt x="1030" y="826" on="1"/>
        <pt x="922" y="756" on="0"/>
        <pt x="800" y="730" on="1"/>
        <pt x="747" y="447" on="1"/>
        <pt x="650" y="447" on="1"/>
      </contour>
      <contour>
        <pt x="541" y="141" on="1"/>
        <pt x="541" y="248" on="0"/>
        <pt x="637" y="290" on="1"/>
        <pt x="666" y="302" on="0"/>
        <pt x="700" y="302" on="1"/>
        <pt x="768" y="302" on="0"/>
        <pt x="814" y="256" on="1"/>
        <pt x="860" y="210" on="0"/>
        <pt x="860" y="73" on="0"/>
        <pt x="769" y="-18" on="0"/>
        <pt x="632" y="-18" on="0"/>
        <pt x="541" y="73" on="0"/>
      </contour>
    </TTGlyph>
    <TTGlyph name="A" xMin="21" yMin="0" xMax="1514" yMax="1530">
      <contour>
        <pt x="21" y="78" on="1"/>
        <pt x="129" y="78" on="1"/>
        <pt x="693" y="1530" on="1"/>
        <pt x="809" y="1530" on="1"/>
        <pt x="1412" y="78" on="1"/>
        <pt x="1514" y="78" on="1"/>
        <pt x="1514" y="0" on="1"/>
        <pt x="969" y="0" on="1"/>
        <pt x="969" y="78" on="1"/>
        <pt x="1119" y="78" on="1"/>
        <pt x="975" y="427" on="1"/>
        <pt x="368" y="427" on="1"/>
        <pt x="236" y="78" on="1"/>
        <pt x="416" y="78" on="1"/>
        <pt x="416" y="0" on="1"/>
        <pt x="21" y="0" on="1"/>
      </contour>
      <contour>
        <pt x="943" y="505" on="1"/>
        <pt x="659" y="1196" on="1"/>
        <pt x="398" y="505" on="1"/>
      </contour>
    </TTGlyph>
    <TTGlyph name="AE" xMin="-109" yMin="0" xMax="2064" yMax="1530">
      <contour>
        <pt x="871" y="1452" on="1"/>
        <pt x="748" y="1452" on="1"/>
        <pt x="748" y="1530" on="1"/>
        <pt x="2041" y="1530" on="1"/>
        <pt x="2041" y="1094" on="1"/>
        <pt x="1963" y="1094" on="1"/>
        <pt x="1958" y="1177" on="0"/>
        <pt x="1940" y="1306" on="0"/>
        <pt x="1912" y="1351" on="1"/>
        <pt x="1853" y="1443" on="0"/>
        <pt x="1675" y="1452" on="1"/>
        <pt x="1228" y="1452" on="1"/>
        <pt x="1228" y="803" on="1"/>
        <pt x="1468" y="803" on="1"/>
        <pt x="1553" y="803" on="0"/>
        <pt x="1644" y="858" on="0"/>
        <pt x="1654" y="927" on="1"/>
        <pt x="1656" y="947" on="0"/>
        <pt x="1659" y="992" on="0"/>
        <pt x="1661" y="1014" on="1"/>
        <pt x="1745" y="1014" on="1"/>
        <pt x="1745" y="498" on="1"/>
        <pt x="1661" y="498" on="1"/>
        <pt x="1659" y="521" on="0"/>
        <pt x="1656" y="581" on="0"/>
        <pt x="1654" y="601" on="1"/>
        <pt x="1644" y="670" on="0"/>
        <pt x="1551" y="725" on="0"/>
        <pt x="1468" y="725" on="1"/>
        <pt x="1228" y="725" on="1"/>
        <pt x="1228" y="78" on="1"/>
        <pt x="1646" y="78" on="1"/>
        <pt x="1909" y="78" on="0"/>
        <pt x="1965" y="321" on="1"/>
        <pt x="1981" y="391" on="0"/>
        <pt x="1986" y="465" on="1"/>
        <pt x="2064" y="465" on="1"/>
        <pt x="2064" y="0" on="1"/>
        <pt x="748" y="0" on="1"/>
        <pt x="748" y="79" on="1"/>
        <pt x="958" y="79" on="1"/>
        <pt x="958" y="725" on="1"/>
        <pt x="541" y="725" on="1"/>
        <pt x="154" y="78" on="1"/>
        <pt x="340" y="78" on="1"/>
        <pt x="340" y="0" on="1"/>
        <pt x="-109" y="0" on="1"/>
        <pt x="-109" y="78" on="1"/>
        <pt x="37" y="78" on="1"/>
      </contour>
      <contour>
        <pt x="958" y="804" on="1"/>
        <pt x="959" y="1422" on="1"/>
        <pt x="589" y="804" on="1"/>
      </contour>
    </TTGlyph>
    <TTGlyph name="AEacute" xMin="-109" yMin="0" xMax="2064" yMax="2005">
      <contour>
        <pt x="871" y="1452" on="1"/>
        <pt x="748" y="1452" on="1"/>
        <pt x="748" y="1530" on="1"/>
        <pt x="2041" y="1530" on="1"/>
        <pt x="2041" y="1094" on="1"/>
        <pt x="1963" y="1094" on="1"/>
        <pt x="1958" y="1177" on="0"/>
        <pt x="1940" y="1306" on="0"/>
        <pt x="1912" y="1351" on="1"/>
        <pt x="1853" y="1443" on="0"/>
        <pt x="1675" y="1452" on="1"/>
        <pt x="1228" y="1452" on="1"/>
        <pt x="1228" y="803" on="1"/>
        <pt x="1468" y="803" on="1"/>
        <pt x="1553" y="803" on="0"/>
        <pt x="1644" y="858" on="0"/>
        <pt x="1654" y="927" on="1"/>
        <pt x="1656" y="947" on="0"/>
        <pt x="1659" y="992" on="0"/>
        <pt x="1661" y="1014" on="1"/>
        <pt x="1745" y="1014" on="1"/>
        <pt x="1745" y="498" on="1"/>
        <pt x="1661" y="498" on="1"/>
        <pt x="1659" y="521" on="0"/>
        <pt x="1656" y="581" on="0"/>
        <pt x="1654" y="601" on="1"/>
        <pt x="1644" y="670" on="0"/>
        <pt x="1551" y="725" on="0"/>
        <pt x="1468" y="725" on="1"/>
        <pt x="1228" y="725" on="1"/>
        <pt x="1228" y="78" on="1"/>
        <pt x="1646" y="78" on="1"/>
        <pt x="1909" y="78" on="0"/>
        <pt x="1965" y="321" on="1"/>
        <pt x="1981" y="391" on="0"/>
        <pt x="1986" y="465" on="1"/>
        <pt x="2064" y="465" on="1"/>
        <pt x="2064" y="0" on="1"/>
        <pt x="748" y="0" on="1"/>
        <pt x="748" y="79" on="1"/>
        <pt x="958" y="79" on="1"/>
        <pt x="958" y="725" on="1"/>
        <pt x="541" y="725" on="1"/>
        <pt x="154" y="78" on="1"/>
        <pt x="340" y="78" on="1"/>
        <pt x="340" y="0" on="1"/>
        <pt x="-109" y="0" on="1"/>
        <pt x="-109" y="78" on="1"/>
        <pt x="37" y="78" on="1"/>
      </contour>
      <contour>
        <pt x="958" y="804" on="1"/>
        <pt x="959" y="1422" on="1"/>
        <pt x="589" y="804" on="1"/>
      </contour>
      <contour>
        <pt x="1300" y="1679" on="1"/>
        <pt x="1589" y="1956" on="1"/>
        <pt x="1643" y="2005" on="0"/>
        <pt x="1680" y="2001" on="1"/>
        <pt x="1743" y="1993" on="0"/>
        <pt x="1803" y="1922" on="0"/>
        <pt x="1796" y="1882" on="1"/>
        <pt x="1783" y="1800" on="0"/>
        <pt x="1717" y="1776" on="1"/>
        <pt x="1322" y="1639" on="1"/>
      </contour>
    </TTGlyph>
    <TTGlyph name="Aacute" xMin="21" yMin="0" xMax="1514" yMax="2005">
      <contour>
        <pt x="21" y="78" on="1"/>
        <pt x="129" y="78" on="1"/>
        <pt x="693" y="1530" on="1"/>
        <pt x="809" y="1530" on="1"/>
        <pt x="1412" y="78" on="1"/>
        <pt x="1514" y="78" on="1"/>
        <pt x="1514" y="0" on="1"/>
        <pt x="969" y="0" on="1"/>
        <pt x="969" y="78" on="1"/>
        <pt x="1119" y="78" on="1"/>
        <pt x="975" y="427" on="1"/>
        <pt x="368" y="427" on="1"/>
        <pt x="236" y="78" on="1"/>
        <pt x="416" y="78" on="1"/>
        <pt x="416" y="0" on="1"/>
        <pt x="21" y="0" on="1"/>
      </contour>
      <contour>
        <pt x="943" y="505" on="1"/>
        <pt x="659" y="1196" on="1"/>
        <pt x="398" y="505" on="1"/>
      </contour>
      <contour>
        <pt x="627" y="1679" on="1"/>
        <pt x="916" y="1956" on="1"/>
        <pt x="970" y="2005" on="0"/>
        <pt x="1007" y="2001" on="1"/>
        <pt x="1070" y="1993" on="0"/>
        <pt x="1130" y="1922" on="0"/>
        <pt x="1123" y="1882" on="1"/>
        <pt x="1110" y="1800" on="0"/>
        <pt x="1044" y="1776" on="1"/>
        <pt x="649" y="1639" on="1"/>
      </contour>
    </TTGlyph>
    <TTGlyph name="Abreve" xMin="21" yMin="0" xMax="1514" yMax="2000">
      <contour>
        <pt x="21" y="78" on="1"/>
        <pt x="129" y="78" on="1"/>
        <pt x="693" y="1530" on="1"/>
        <pt x="809" y="1530" on="1"/>
        <pt x="1412" y="78" on="1"/>
        <pt x="1514" y="78" on="1"/>
        <pt x="1514" y="0" on="1"/>
        <pt x="969" y="0" on="1"/>
        <pt x="969" y="78" on="1"/>
        <pt x="1119" y="78" on="1"/>
        <pt x="975" y="427" on="1"/>
        <pt x="368" y="427" on="1"/>
        <pt x="236" y="78" on="1"/>
        <pt x="416" y="78" on="1"/>
        <pt x="416" y="0" on="1"/>
        <pt x="21" y="0" on="1"/>
      </contour>
      <contour>
        <pt x="943" y="505" on="1"/>
        <pt x="659" y="1196" on="1"/>
        <pt x="398" y="505" on="1"/>
      </contour>
      <contour>
        <pt x="1069" y="2000" on="1"/>
        <pt x="1074" y="1965" on="0"/>
        <pt x="1074" y="1881" on="0"/>
        <pt x="1029" y="1773" on="0"/>
        <pt x="987" y="1733" on="1"/>
        <pt x="895" y="1647" on="0"/>
        <pt x="748" y="1647" on="1"/>
        <pt x="601" y="1647" on="0"/>
        <pt x="422" y="1815" on="0"/>
        <pt x="422" y="1943" on="1"/>
        <pt x="422" y="1965" on="0"/>
        <pt x="427" y="2000" on="1"/>
        <pt x="484" y="2000" on="1"/>
        <pt x="556" y="1820" on="0"/>
        <pt x="748" y="1820" on="1"/>
        <pt x="940" y="1820" on="0"/>
        <pt x="1012" y="2000" on="1"/>
      </contour>
    </TTGlyph>
    <TTGlyph name="Acircumflex" xMin="21" yMin="0" xMax="1514" yMax="2000">
      <contour>
        <pt x="21" y="78" on="1"/>
        <pt x="129" y="78" on="1"/>
        <pt x="693" y="1530" on="1"/>
        <pt x="809" y="1530" on="1"/>
        <pt x="1412" y="78" on="1"/>
        <pt x="1514" y="78" on="1"/>
        <pt x="1514" y="0" on="1"/>
        <pt x="969" y="0" on="1"/>
        <pt x="969" y="78" on="1"/>
        <pt x="1119" y="78" on="1"/>
        <pt x="975" y="427" on="1"/>
        <pt x="368" y="427" on="1"/>
        <pt x="236" y="78" on="1"/>
        <pt x="416" y="78" on="1"/>
        <pt x="416" y="0" on="1"/>
        <pt x="21" y="0" on="1"/>
      </contour>
      <contour>
        <pt x="943" y="505" on="1"/>
        <pt x="659" y="1196" on="1"/>
        <pt x="398" y="505" on="1"/>
      </contour>
      <contour>
        <pt x="382" y="1646" on="1"/>
        <pt x="645" y="1936" on="1"/>
        <pt x="703" y="2000" on="0"/>
        <pt x="774" y="2000" on="0"/>
        <pt x="791" y="1992" on="1"/>
        <pt x="823" y="1979" on="0"/>
        <pt x="850" y="1950" on="1"/>
        <pt x="1116" y="1647" on="1"/>
        <pt x="1088" y="1610" on="1"/>
        <pt x="754" y="1794" on="1"/>
        <pt x="410" y="1610" on="1"/>
      </contour>
    </TTGlyph>
    <TTGlyph name="Adieresis" xMin="21" yMin="0" xMax="1514" yMax="1946">
      <contour>
        <pt x="21" y="78" on="1"/>
        <pt x="129" y="78" on="1"/>
        <pt x="693" y="1530" on="1"/>
        <pt x="809" y="1530" on="1"/>
        <pt x="1412" y="78" on="1"/>
        <pt x="1514" y="78" on="1"/>
        <pt x="1514" y="0" on="1"/>
        <pt x="969" y="0" on="1"/>
        <pt x="969" y="78" on="1"/>
        <pt x="1119" y="78" on="1"/>
        <pt x="975" y="427" on="1"/>
        <pt x="368" y="427" on="1"/>
        <pt x="236" y="78" on="1"/>
        <pt x="416" y="78" on="1"/>
        <pt x="416" y="0" on="1"/>
        <pt x="21" y="0" on="1"/>
      </contour>
      <contour>
        <pt x="943" y="505" on="1"/>
        <pt x="659" y="1196" on="1"/>
        <pt x="398" y="505" on="1"/>
      </contour>
      <contour>
        <pt x="1078" y="1834" on="1"/>
        <pt x="1078" y="1740" on="0"/>
        <pt x="1002" y="1708" on="1"/>
        <pt x="979" y="1699" on="0"/>
        <pt x="953" y="1699" on="1"/>
        <pt x="903" y="1699" on="0"/>
        <pt x="831" y="1771" on="0"/>
        <pt x="831" y="1809" on="1"/>
        <pt x="831" y="1874" on="0"/>
        <pt x="905" y="1946" on="0"/>
        <pt x="942" y="1946" on="1"/>
        <pt x="1005" y="1946" on="0"/>
        <pt x="1078" y="1873" on="0"/>
      </contour>
      <contour>
        <pt x="662" y="1834" on="1"/>
        <pt x="662" y="1740" on="0"/>
        <pt x="586" y="1708" on="1"/>
        <pt x="563" y="1699" on="0"/>
        <pt x="537" y="1699" on="1"/>
        <pt x="487" y="1699" on="0"/>
        <pt x="415" y="1771" on="0"/>
        <pt x="415" y="1809" on="1"/>
        <pt x="415" y="1874" on="0"/>
        <pt x="489" y="1946" on="0"/>
        <pt x="526" y="1946" on="1"/>
        <pt x="589" y="1946" on="0"/>
        <pt x="662" y="1873" on="0"/>
      </contour>
    </TTGlyph>
    <TTGlyph name="Agrave" xMin="21" yMin="0" xMax="1514" yMax="2003">
      <contour>
        <pt x="21" y="78" on="1"/>
        <pt x="129" y="78" on="1"/>
        <pt x="693" y="1530" on="1"/>
        <pt x="809" y="1530" on="1"/>
        <pt x="1412" y="78" on="1"/>
        <pt x="1514" y="78" on="1"/>
        <pt x="1514" y="0" on="1"/>
        <pt x="969" y="0" on="1"/>
        <pt x="969" y="78" on="1"/>
        <pt x="1119" y="78" on="1"/>
        <pt x="975" y="427" on="1"/>
        <pt x="368" y="427" on="1"/>
        <pt x="236" y="78" on="1"/>
        <pt x="416" y="78" on="1"/>
        <pt x="416" y="0" on="1"/>
        <pt x="21" y="0" on="1"/>
      </contour>
      <contour>
        <pt x="943" y="505" on="1"/>
        <pt x="659" y="1196" on="1"/>
        <pt x="398" y="505" on="1"/>
      </contour>
      <contour>
        <pt x="472" y="1774" on="1"/>
        <pt x="407" y="1796" on="0"/>
        <pt x="380" y="1917" on="0"/>
        <pt x="439" y="1991" on="0"/>
        <pt x="519" y="2003" on="0"/>
        <pt x="567" y="1982" on="0"/>
        <pt x="593" y="1959" on="1"/>
        <pt x="892" y="1692" on="1"/>
        <pt x="871" y="1651" on="1"/>
      </contour>
    </TTGlyph>
    <TTGlyph name="Amacron" xMin="21" yMin="0" xMax="1514" yMax="1993">
      <contour>
        <pt x="21" y="78" on="1"/>
        <pt x="129" y="78" on="1"/>
        <pt x="693" y="1530" on="1"/>
        <pt x="809" y="1530" on="1"/>
        <pt x="1412" y="78" on="1"/>
        <pt x="1514" y="78" on="1"/>
        <pt x="1514" y="0" on="1"/>
        <pt x="969" y="0" on="1"/>
        <pt x="969" y="78" on="1"/>
        <pt x="1119" y="78" on="1"/>
        <pt x="975" y="427" on="1"/>
        <pt x="368" y="427" on="1"/>
        <pt x="236" y="78" on="1"/>
        <pt x="416" y="78" on="1"/>
        <pt x="416" y="0" on="1"/>
        <pt x="21" y="0" on="1"/>
      </contour>
      <contour>
        <pt x="943" y="505" on="1"/>
        <pt x="659" y="1196" on="1"/>
        <pt x="398" y="505" on="1"/>
      </contour>
      <contour>
        <pt x="428" y="1993" on="1"/>
        <pt x="1085" y="1993" on="1"/>
        <pt x="1085" y="1870" on="1"/>
        <pt x="428" y="1870" on="1"/>
      </contour>
    </TTGlyph>
    <TTGlyph name="Aogonek" xMin="21" yMin="-555" xMax="1514" yMax="1530">
      <contour>
        <pt x="1166" y="-555" on="1"/>
        <pt x="893" y="-555" on="0"/>
        <pt x="893" y="-352" on="1"/>
        <pt x="893" y="-252" on="0"/>
        <pt x="1079" y="-62" on="0"/>
        <pt x="1201" y="0" on="1"/>
        <pt x="969" y="0" on="1"/>
        <pt x="969" y="78" on="1"/>
        <pt x="1119" y="78" on="1"/>
        <pt x="975" y="427" on="1"/>
        <pt x="368" y="427" on="1"/>
        <pt x="236" y="78" on="1"/>
        <pt x="416" y="78" on="1"/>
        <pt x="416" y="0" on="1"/>
        <pt x="21" y="0" on="1"/>
        <pt x="21" y="78" on="1"/>
        <pt x="129" y="78" on="1"/>
        <pt x="693" y="1530" on="1"/>
        <pt x="809" y="1530" on="1"/>
        <pt x="1412" y="78" on="1"/>
        <pt x="1514" y="78" on="1"/>
        <pt x="1514" y="0" on="1"/>
        <pt x="1370" y="0" on="1"/>
        <pt x="1209" y="-97" on="0"/>
        <pt x="1154" y="-215" on="1"/>
        <pt x="1137" y="-253" on="0"/>
        <pt x="1137" y="-288" on="1"/>
        <pt x="1137" y="-356" on="0"/>
        <pt x="1205" y="-439" on="0"/>
        <pt x="1246" y="-439" on="1"/>
        <pt x="1312" y="-439" on="0"/>
        <pt x="1416" y="-375" on="0"/>
        <pt x="1444" y="-338" on="1"/>
        <pt x="1491" y="-390" on="1"/>
        <pt x="1465" y="-434" on="0"/>
        <pt x="1398" y="-475" on="1"/>
        <pt x="1268" y="-555" on="0"/>
      </contour>
      <contour>
        <pt x="943" y="505" on="1"/>
        <pt x="659" y="1196" on="1"/>
        <pt x="398" y="505" on="1"/>
      </contour>
    </TTGlyph>
    <TTGlyph name="Aring" xMin="21" yMin="0" xMax="1514" yMax="1996">
      <contour>
        <pt x="21" y="78" on="1"/>
        <pt x="129" y="78" on="1"/>
        <pt x="693" y="1530" on="1"/>
        <pt x="809" y="1530" on="1"/>
        <pt x="1412" y="78" on="1"/>
        <pt x="1514" y="78" on="1"/>
        <pt x="1514" y="0" on="1"/>
        <pt x="969" y="0" on="1"/>
        <pt x="969" y="78" on="1"/>
        <pt x="1119" y="78" on="1"/>
        <pt x="975" y="427" on="1"/>
        <pt x="368" y="427" on="1"/>
        <pt x="236" y="78" on="1"/>
        <pt x="416" y="78" on="1"/>
        <pt x="416" y="0" on="1"/>
        <pt x="21" y="0" on="1"/>
      </contour>
      <contour>
        <pt x="943" y="505" on="1"/>
        <pt x="659" y="1196" on="1"/>
        <pt x="398" y="505" on="1"/>
      </contour>
      <contour>
        <pt x="663" y="1627" on="0"/>
        <pt x="539" y="1729" on="0"/>
        <pt x="539" y="1894" on="0"/>
        <pt x="601" y="1945" on="1"/>
        <pt x="663" y="1996" on="0"/>
        <pt x="850" y="1996" on="0"/>
        <pt x="971" y="1894" on="0"/>
        <pt x="971" y="1729" on="0"/>
        <pt x="850" y="1627" on="0"/>
      </contour>
      <contour>
        <pt x="657" y="1943" on="0"/>
        <pt x="657" y="1679" on="0"/>
        <pt x="854" y="1679" on="0"/>
        <pt x="854" y="1943" on="0"/>
      </contour>
    </TTGlyph>
    <TTGlyph name="Atilde" xMin="21" yMin="0" xMax="1514" yMax="1965">
      <contour>
        <pt x="21" y="78" on="1"/>
        <pt x="129" y="78" on="1"/>
        <pt x="693" y="1530" on="1"/>
        <pt x="809" y="1530" on="1"/>
        <pt x="1412" y="78" on="1"/>
        <pt x="1514" y="78" on="1"/>
        <pt x="1514" y="0" on="1"/>
        <pt x="969" y="0" on="1"/>
        <pt x="969" y="78" on="1"/>
        <pt x="1119" y="78" on="1"/>
        <pt x="975" y="427" on="1"/>
        <pt x="368" y="427" on="1"/>
        <pt x="236" y="78" on="1"/>
        <pt x="416" y="78" on="1"/>
        <pt x="416" y="0" on="1"/>
        <pt x="21" y="0" on="1"/>
      </contour>
      <contour>
        <pt x="943" y="505" on="1"/>
        <pt x="659" y="1196" on="1"/>
        <pt x="398" y="505" on="1"/>
      </contour>
      <contour>
        <pt x="379" y="1734" on="1"/>
        <pt x="435" y="1834" on="0"/>
        <pt x="474" y="1877" on="1"/>
        <pt x="554" y="1965" on="0"/>
        <pt x="693" y="1965" on="0"/>
        <pt x="762" y="1932" on="1"/>
        <pt x="865" y="1882" on="1"/>
        <pt x="899" y="1867" on="0"/>
        <pt x="972" y="1867" on="0"/>
        <pt x="1037" y="1916" on="0"/>
        <pt x="1073" y="1956" on="1"/>
        <pt x="1119" y="1923" on="1"/>
        <pt x="1063" y="1823" on="0"/>
        <pt x="1024" y="1780" on="1"/>
        <pt x="944" y="1692" on="0"/>
        <pt x="863" y="1692" on="1"/>
        <pt x="807" y="1689" on="0"/>
        <pt x="673" y="1758" on="0"/>
        <pt x="601" y="1790" on="0"/>
        <pt x="526" y="1790" on="0"/>
        <pt x="461" y="1741" on="0"/>
        <pt x="425" y="1701" on="1"/>
      </contour>
    </TTGlyph>
    <TTGlyph name="B" xMin="106" yMin="0" xMax="1425" yMax="1530">
      <contour>
        <pt x="106" y="78" on="1"/>
        <pt x="276" y="78" on="1"/>
        <pt x="277" y="1452" on="1"/>
        <pt x="106" y="1452" on="1"/>
        <pt x="106" y="1530" on="1"/>
        <pt x="860" y="1530" on="1"/>
        <pt x="1095" y="1530" on="0"/>
        <pt x="1324" y="1315" on="0"/>
        <pt x="1324" y="1146" on="1"/>
        <pt x="1324" y="949" on="0"/>
        <pt x="1142" y="855" on="1"/>
        <pt x="1088" y="827" on="0"/>
        <pt x="1028" y="811" on="1"/>
        <pt x="1221" y="788" on="0"/>
        <pt x="1425" y="586" on="0"/>
        <pt x="1425" y="439" on="1"/>
        <pt x="1425" y="237" on="0"/>
        <pt x="1130" y="0" on="0"/>
        <pt x="856" y="0" on="1"/>
        <pt x="106" y="0" on="1"/>
      </contour>
      <contour>
        <pt x="791" y="832" on="1"/>
        <pt x="1008" y="832" on="0"/>
        <pt x="1050" y="1018" on="1"/>
        <pt x="1063" y="1074" on="0"/>
        <pt x="1063" y="1138" on="1"/>
        <pt x="1063" y="1290" on="0"/>
        <pt x="1014" y="1358" on="1"/>
        <pt x="948" y="1452" on="0"/>
        <pt x="764" y="1452" on="1"/>
        <pt x="546" y="1452" on="1"/>
        <pt x="546" y="832" on="1"/>
      </contour>
      <contour>
        <pt x="778" y="78" on="1"/>
        <pt x="960" y="78" on="0"/>
        <pt x="1153" y="252" on="0"/>
        <pt x="1153" y="412" on="1"/>
        <pt x="1153" y="647" on="0"/>
        <pt x="966" y="726" on="1"/>
        <pt x="898" y="755" on="0"/>
        <pt x="800" y="755" on="1"/>
        <pt x="546" y="755" on="1"/>
        <pt x="546" y="78" on="1"/>
      </contour>
    </TTGlyph>
    <TTGlyph name="C" xMin="96" yMin="-20" xMax="1442" yMax="1550">
      <contour>
        <pt x="1307" y="1422" on="1"/>
        <pt x="1347" y="1469" on="0"/>
        <pt x="1349" y="1530" on="1"/>
        <pt x="1431" y="1530" on="1"/>
        <pt x="1431" y="1111" on="1"/>
        <pt x="1346" y="1111" on="1"/>
        <pt x="1317" y="1277" on="0"/>
        <pt x="1058" y="1467" on="0"/>
        <pt x="906" y="1467" on="1"/>
        <pt x="400" y="1467" on="0"/>
        <pt x="404" y="760" on="1"/>
        <pt x="407" y="479" on="0"/>
        <pt x="516" y="293" on="1"/>
        <pt x="642" y="78" on="0"/>
        <pt x="882" y="78" on="1"/>
        <pt x="1065" y="78" on="0"/>
        <pt x="1318" y="207" on="0"/>
        <pt x="1390" y="317" on="1"/>
        <pt x="1442" y="269" on="1"/>
        <pt x="1404" y="178" on="0"/>
        <pt x="1284" y="95" on="1"/>
        <pt x="1119" y="-20" on="0"/>
        <pt x="870" y="-20" on="1"/>
        <pt x="516" y="-20" on="0"/>
        <pt x="96" y="421" on="0"/>
        <pt x="96" y="1103" on="0"/>
        <pt x="515" y="1550" on="0"/>
        <pt x="888" y="1550" on="1"/>
        <pt x="1090" y="1550" on="0"/>
        <pt x="1240" y="1468" on="1"/>
        <pt x="1282" y="1445" on="0"/>
      </contour>
    </TTGlyph>
    <TTGlyph name="Cacute" xMin="96" yMin="-20" xMax="1442" yMax="2005">
      <contour>
        <pt x="1307" y="1422" on="1"/>
        <pt x="1347" y="1469" on="0"/>
        <pt x="1349" y="1530" on="1"/>
        <pt x="1431" y="1530" on="1"/>
        <pt x="1431" y="1111" on="1"/>
        <pt x="1346" y="1111" on="1"/>
        <pt x="1317" y="1277" on="0"/>
        <pt x="1058" y="1467" on="0"/>
        <pt x="906" y="1467" on="1"/>
        <pt x="400" y="1467" on="0"/>
        <pt x="404" y="760" on="1"/>
        <pt x="407" y="479" on="0"/>
        <pt x="516" y="293" on="1"/>
        <pt x="642" y="78" on="0"/>
        <pt x="882" y="78" on="1"/>
        <pt x="1065" y="78" on="0"/>
        <pt x="1318" y="207" on="0"/>
        <pt x="1390" y="317" on="1"/>
        <pt x="1442" y="269" on="1"/>
        <pt x="1404" y="178" on="0"/>
        <pt x="1284" y="95" on="1"/>
        <pt x="1119" y="-20" on="0"/>
        <pt x="870" y="-20" on="1"/>
        <pt x="516" y="-20" on="0"/>
        <pt x="96" y="421" on="0"/>
        <pt x="96" y="1103" on="0"/>
        <pt x="515" y="1550" on="0"/>
        <pt x="888" y="1550" on="1"/>
        <pt x="1090" y="1550" on="0"/>
        <pt x="1240" y="1468" on="1"/>
        <pt x="1282" y="1445" on="0"/>
      </contour>
      <contour>
        <pt x="750" y="1679" on="1"/>
        <pt x="1039" y="1956" on="1"/>
        <pt x="1093" y="2005" on="0"/>
        <pt x="1130" y="2001" on="1"/>
        <pt x="1193" y="1993" on="0"/>
        <pt x="1253" y="1922" on="0"/>
        <pt x="1246" y="1882" on="1"/>
        <pt x="1233" y="1800" on="0"/>
        <pt x="1167" y="1776" on="1"/>
        <pt x="772" y="1639" on="1"/>
      </contour>
    </TTGlyph>
    <TTGlyph name="Ccaron" xMin="96" yMin="-20" xMax="1442" yMax="2000">
      <contour>
        <pt x="1307" y="1422" on="1"/>
        <pt x="1347" y="1469" on="0"/>
        <pt x="1349" y="1530" on="1"/>
        <pt x="1431" y="1530" on="1"/>
        <pt x="1431" y="1111" on="1"/>
        <pt x="1346" y="1111" on="1"/>
        <pt x="1317" y="1277" on="0"/>
        <pt x="1058" y="1467" on="0"/>
        <pt x="906" y="1467" on="1"/>
        <pt x="400" y="1467" on="0"/>
        <pt x="404" y="760" on="1"/>
        <pt x="407" y="479" on="0"/>
        <pt x="516" y="293" on="1"/>
        <pt x="642" y="78" on="0"/>
        <pt x="882" y="78" on="1"/>
        <pt x="1065" y="78" on="0"/>
        <pt x="1318" y="207" on="0"/>
        <pt x="1390" y="317" on="1"/>
        <pt x="1442" y="269" on="1"/>
        <pt x="1404" y="178" on="0"/>
        <pt x="1284" y="95" on="1"/>
        <pt x="1119" y="-20" on="0"/>
        <pt x="870" y="-20" on="1"/>
        <pt x="516" y="-20" on="0"/>
        <pt x="96" y="421" on="0"/>
        <pt x="96" y="1103" on="0"/>
        <pt x="515" y="1550" on="0"/>
        <pt x="888" y="1550" on="1"/>
        <pt x="1090" y="1550" on="0"/>
        <pt x="1240" y="1468" on="1"/>
        <pt x="1282" y="1445" on="0"/>
      </contour>
      <contour>
        <pt x="769" y="1694" on="1"/>
        <pt x="510" y="1964" on="1"/>
        <pt x="538" y="2000" on="1"/>
        <pt x="878" y="1836" on="1"/>
        <pt x="1216" y="2000" on="1"/>
        <pt x="1244" y="1963" on="1"/>
        <pt x="994" y="1701" on="1"/>
        <pt x="951" y="1653" on="0"/>
        <pt x="898" y="1630" on="0"/>
        <pt x="827" y="1630" on="0"/>
      </contour>
    </TTGlyph>
    <TTGlyph name="Ccedilla" xMin="96" yMin="-560" xMax="1442" yMax="1550">
      <contour>
        <pt x="932" y="-332" on="1"/>
        <pt x="932" y="-247" on="0"/>
        <pt x="786" y="-247" on="1"/>
        <pt x="778" y="-247" on="0"/>
        <pt x="766" y="-248" on="1"/>
        <pt x="742" y="-248" on="1"/>
        <pt x="721" y="-249" on="0"/>
        <pt x="697" y="-252" on="1"/>
        <pt x="746" y="-12" on="1"/>
        <pt x="445" y="28" on="0"/>
        <pt x="96" y="455" on="0"/>
        <pt x="96" y="1103" on="0"/>
        <pt x="515" y="1550" on="0"/>
        <pt x="888" y="1550" on="1"/>
        <pt x="1090" y="1550" on="0"/>
        <pt x="1240" y="1468" on="1"/>
        <pt x="1282" y="1445" on="0"/>
        <pt x="1307" y="1422" on="1"/>
        <pt x="1347" y="1469" on="0"/>
        <pt x="1349" y="1530" on="1"/>
        <pt x="1431" y="1530" on="1"/>
        <pt x="1431" y="1111" on="1"/>
        <pt x="1346" y="1111" on="1"/>
        <pt x="1317" y="1277" on="0"/>
        <pt x="1058" y="1467" on="0"/>
        <pt x="906" y="1467" on="1"/>
        <pt x="400" y="1467" on="0"/>
        <pt x="404" y="760" on="1"/>
        <pt x="407" y="479" on="0"/>
        <pt x="516" y="293" on="1"/>
        <pt x="642" y="78" on="0"/>
        <pt x="882" y="78" on="1"/>
        <pt x="1065" y="78" on="0"/>
        <pt x="1318" y="207" on="0"/>
        <pt x="1390" y="317" on="1"/>
        <pt x="1442" y="269" on="1"/>
        <pt x="1404" y="178" on="0"/>
        <pt x="1284" y="95" on="1"/>
        <pt x="1119" y="-20" on="0"/>
        <pt x="870" y="-20" on="1"/>
        <pt x="862" y="-20" on="0"/>
        <pt x="846" y="-20" on="0"/>
        <pt x="838" y="-19" on="1"/>
        <pt x="818" y="-127" on="1"/>
        <pt x="827" y="-126" on="0"/>
        <pt x="836" y="-126" on="1"/>
        <pt x="855" y="-126" on="1"/>
        <pt x="1022" y="-126" on="0"/>
        <pt x="1084" y="-207" on="1"/>
        <pt x="1109" y="-239" on="0"/>
        <pt x="1109" y="-333" on="0"/>
        <pt x="1067" y="-406" on="0"/>
        <pt x="1032" y="-436" on="1"/>
        <pt x="963" y="-494" on="0"/>
        <pt x="747" y="-560" on="0"/>
        <pt x="653" y="-560" on="1"/>
        <pt x="645" y="-485" on="1"/>
        <pt x="828" y="-471" on="0"/>
        <pt x="902" y="-402" on="1"/>
        <pt x="932" y="-374" on="0"/>
      </contour>
    </TTGlyph>
    <TTGlyph name="Ccircumflex" xMin="96" yMin="-20" xMax="1442" yMax="2000">
      <contour>
        <pt x="1307" y="1422" on="1"/>
        <pt x="1347" y="1469" on="0"/>
        <pt x="1349" y="1530" on="1"/>
        <pt x="1431" y="1530" on="1"/>
        <pt x="1431" y="1111" on="1"/>
        <pt x="1346" y="1111" on="1"/>
        <pt x="1317" y="1277" on="0"/>
        <pt x="1058" y="1467" on="0"/>
        <pt x="906" y="1467" on="1"/>
        <pt x="400" y="1467" on="0"/>
        <pt x="404" y="760" on="1"/>
        <pt x="407" y="479" on="0"/>
        <pt x="516" y="293" on="1"/>
        <pt x="642" y="78" on="0"/>
        <pt x="882" y="78" on="1"/>
        <pt x="1065" y="78" on="0"/>
        <pt x="1318" y="207" on="0"/>
        <pt x="1390" y="317" on="1"/>
        <pt x="1442" y="269" on="1"/>
        <pt x="1404" y="178" on="0"/>
        <pt x="1284" y="95" on="1"/>
        <pt x="1119" y="-20" on="0"/>
        <pt x="870" y="-20" on="1"/>
        <pt x="516" y="-20" on="0"/>
        <pt x="96" y="421" on="0"/>
        <pt x="96" y="1103" on="0"/>
        <pt x="515" y="1550" on="0"/>
        <pt x="888" y="1550" on="1"/>
        <pt x="1090" y="1550" on="0"/>
        <pt x="1240" y="1468" on="1"/>
        <pt x="1282" y="1445" on="0"/>
      </contour>
      <contour>
        <pt x="505" y="1646" on="1"/>
        <pt x="768" y="1936" on="1"/>
        <pt x="826" y="2000" on="0"/>
        <pt x="897" y="2000" on="0"/>
        <pt x="914" y="1992" on="1"/>
        <pt x="946" y="1979" on="0"/>
        <pt x="973" y="1950" on="1"/>
        <pt x="1239" y="1647" on="1"/>
        <pt x="1211" y="1610" on="1"/>
        <pt x="877" y="1794" on="1"/>
        <pt x="533" y="1610" on="1"/>
      </contour>
    </TTGlyph>
    <TTGlyph name="Cdotaccent" xMin="96" yMin="-20" xMax="1442" yMax="1962">
      <contour>
        <pt x="1307" y="1422" on="1"/>
        <pt x="1347" y="1469" on="0"/>
        <pt x="1349" y="1530" on="1"/>
        <pt x="1431" y="1530" on="1"/>
        <pt x="1431" y="1111" on="1"/>
        <pt x="1346" y="1111" on="1"/>
        <pt x="1317" y="1277" on="0"/>
        <pt x="1058" y="1467" on="0"/>
        <pt x="906" y="1467" on="1"/>
        <pt x="400" y="1467" on="0"/>
        <pt x="404" y="760" on="1"/>
        <pt x="407" y="479" on="0"/>
        <pt x="516" y="293" on="1"/>
        <pt x="642" y="78" on="0"/>
        <pt x="882" y="78" on="1"/>
        <pt x="1065" y="78" on="0"/>
        <pt x="1318" y="207" on="0"/>
        <pt x="1390" y="317" on="1"/>
        <pt x="1442" y="269" on="1"/>
        <pt x="1404" y="178" on="0"/>
        <pt x="1284" y="95" on="1"/>
        <pt x="1119" y="-20" on="0"/>
        <pt x="870" y="-20" on="1"/>
        <pt x="516" y="-20" on="0"/>
        <pt x="96" y="421" on="0"/>
        <pt x="96" y="1103" on="0"/>
        <pt x="515" y="1550" on="0"/>
        <pt x="888" y="1550" on="1"/>
        <pt x="1090" y="1550" on="0"/>
        <pt x="1240" y="1468" on="1"/>
        <pt x="1282" y="1445" on="0"/>
      </contour>
      <contour>
        <pt x="932" y="1962" on="0"/>
        <pt x="1010" y="1884" on="0"/>
        <pt x="1010" y="1777" on="0"/>
        <pt x="933" y="1700" on="0"/>
        <pt x="824" y="1700" on="0"/>
        <pt x="748" y="1776" on="0"/>
        <pt x="748" y="1885" on="0"/>
        <pt x="776" y="1913" on="1"/>
        <pt x="825" y="1962" on="0"/>
      </contour>
    </TTGlyph>
    <TTGlyph name="D" xMin="83" yMin="0" xMax="1610" yMax="1530">
      <contour>
        <pt x="83" y="78" on="1"/>
        <pt x="283" y="78" on="1"/>
        <pt x="284" y="1452" on="1"/>
        <pt x="83" y="1452" on="1"/>
        <pt x="83" y="1530" on="1"/>
        <pt x="757" y="1530" on="1"/>
        <pt x="1360" y="1530" on="0"/>
        <pt x="1537" y="1149" on="1"/>
        <pt x="1610" y="992" on="0"/>
        <pt x="1610" y="777" on="1"/>
        <pt x="1610" y="491" on="0"/>
        <pt x="1444" y="278" on="1"/>
        <pt x="1310" y="107" on="0"/>
        <pt x="1055" y="37" on="1"/>
        <pt x="921" y="0" on="0"/>
        <pt x="743" y="0" on="1"/>
        <pt x="83" y="0" on="1"/>
      </contour>
      <contour>
        <pt x="731" y="78" on="1"/>
        <pt x="1046" y="78" on="0"/>
        <pt x="1318" y="392" on="0"/>
        <pt x="1318" y="770" on="1"/>
        <pt x="1318" y="801" on="1"/>
        <pt x="1312" y="1163" on="0"/>
        <pt x="1033" y="1452" on="0"/>
        <pt x="744" y="1452" on="1"/>
        <pt x="553" y="1452" on="1"/>
        <pt x="553" y="78" on="1"/>
      </contour>
    </TTGlyph>
    <TTGlyph name="Dcaron" xMin="83" yMin="0" xMax="1610" yMax="2000">
      <contour>
        <pt x="83" y="78" on="1"/>
        <pt x="283" y="78" on="1"/>
        <pt x="284" y="1452" on="1"/>
        <pt x="83" y="1452" on="1"/>
        <pt x="83" y="1530" on="1"/>
        <pt x="757" y="1530" on="1"/>
        <pt x="1360" y="1530" on="0"/>
        <pt x="1537" y="1149" on="1"/>
        <pt x="1610" y="992" on="0"/>
        <pt x="1610" y="777" on="1"/>
        <pt x="1610" y="491" on="0"/>
        <pt x="1444" y="278" on="1"/>
        <pt x="1310" y="107" on="0"/>
        <pt x="1055" y="37" on="1"/>
        <pt x="921" y="0" on="0"/>
        <pt x="743" y="0" on="1"/>
        <pt x="83" y="0" on="1"/>
      </contour>
      <contour>
        <pt x="731" y="78" on="1"/>
        <pt x="1046" y="78" on="0"/>
        <pt x="1318" y="392" on="0"/>
        <pt x="1318" y="770" on="1"/>
        <pt x="1318" y="801" on="1"/>
        <pt x="1312" y="1163" on="0"/>
        <pt x="1033" y="1452" on="0"/>
        <pt x="744" y="1452" on="1"/>
        <pt x="553" y="1452" on="1"/>
        <pt x="553" y="78" on="1"/>
      </contour>
      <contour>
        <pt x="727" y="1694" on="1"/>
        <pt x="468" y="1964" on="1"/>
        <pt x="496" y="2000" on="1"/>
        <pt x="836" y="1836" on="1"/>
        <pt x="1174" y="2000" on="1"/>
        <pt x="1202" y="1963" on="1"/>
        <pt x="952" y="1701" on="1"/>
        <pt x="909" y="1653" on="0"/>
        <pt x="856" y="1630" on="0"/>
        <pt x="785" y="1630" on="0"/>
      </contour>
    </TTGlyph>
    <TTGlyph name="Dcroat" xMin="83" yMin="0" xMax="1610" yMax="1530">
      <contour>
        <pt x="83" y="78" on="1"/>
        <pt x="283" y="78" on="1"/>
        <pt x="283" y="735" on="1"/>
        <pt x="113" y="735" on="1"/>
        <pt x="113" y="813" on="1"/>
        <pt x="283" y="813" on="1"/>
        <pt x="284" y="1452" on="1"/>
        <pt x="83" y="1452" on="1"/>
        <pt x="83" y="1530" on="1"/>
        <pt x="757" y="1530" on="1"/>
        <pt x="1360" y="1530" on="0"/>
        <pt x="1537" y="1149" on="1"/>
        <pt x="1610" y="992" on="0"/>
        <pt x="1610" y="777" on="1"/>
        <pt x="1610" y="491" on="0"/>
        <pt x="1444" y="278" on="1"/>
        <pt x="1310" y="107" on="0"/>
        <pt x="1055" y="37" on="1"/>
        <pt x="921" y="0" on="0"/>
        <pt x="743" y="0" on="1"/>
        <pt x="83" y="0" on="1"/>
      </contour>
      <contour>
        <pt x="731" y="78" on="1"/>
        <pt x="1046" y="78" on="0"/>
        <pt x="1318" y="392" on="0"/>
        <pt x="1318" y="770" on="1"/>
        <pt x="1318" y="801" on="1"/>
        <pt x="1312" y="1163" on="0"/>
        <pt x="1033" y="1452" on="0"/>
        <pt x="744" y="1452" on="1"/>
        <pt x="553" y="1452" on="1"/>
        <pt x="553" y="813" on="1"/>
        <pt x="943" y="813" on="1"/>
        <pt x="943" y="735" on="1"/>
        <pt x="553" y="735" on="1"/>
        <pt x="553" y="78" on="1"/>
      </contour>
    </TTGlyph>
    <TTGlyph name="Delta" xMin="115" yMin="0" xMax="1449" yMax="1530">
      <contour>
        <pt x="115" y="79" on="1"/>
        <pt x="716" y="1530" on="1"/>
        <pt x="837" y="1530" on="1"/>
        <pt x="1449" y="79" on="1"/>
        <pt x="1449" y="0" on="1"/>
        <pt x="115" y="0" on="1"/>
      </contour>
      <contour>
        <pt x="1169" y="78" on="1"/>
        <pt x="695" y="1242" on="1"/>
        <pt x="216" y="78" on="1"/>
      </contour>
    </TTGlyph>
    <TTGlyph name="E" xMin="71" yMin="0" xMax="1387" yMax="1530">
      <contour>
        <pt x="71" y="79" on="1"/>
        <pt x="271" y="79" on="1"/>
        <pt x="272" y="1452" on="1"/>
        <pt x="71" y="1452" on="1"/>
        <pt x="71" y="1530" on="1"/>
        <pt x="1364" y="1530" on="1"/>
        <pt x="1364" y="1094" on="1"/>
        <pt x="1286" y="1094" on="1"/>
        <pt x="1281" y="1177" on="0"/>
        <pt x="1263" y="1306" on="0"/>
        <pt x="1234" y="1351" on="1"/>
        <pt x="1176" y="1443" on="0"/>
        <pt x="998" y="1452" on="1"/>
        <pt x="541" y="1452" on="1"/>
        <pt x="541" y="824" on="1"/>
        <pt x="791" y="824" on="1"/>
        <pt x="876" y="824" on="0"/>
        <pt x="967" y="879" on="0"/>
        <pt x="977" y="948" on="1"/>
        <pt x="979" y="968" on="0"/>
        <pt x="982" y="1013" on="0"/>
        <pt x="984" y="1035" on="1"/>
        <pt x="1068" y="1035" on="1"/>
        <pt x="1068" y="519" on="1"/>
        <pt x="984" y="519" on="1"/>
        <pt x="982" y="542" on="0"/>
        <pt x="979" y="602" on="0"/>
        <pt x="977" y="622" on="1"/>
        <pt x="967" y="691" on="0"/>
        <pt x="874" y="746" on="0"/>
        <pt x="791" y="746" on="1"/>
        <pt x="541" y="746" on="1"/>
        <pt x="541" y="78" on="1"/>
        <pt x="969" y="78" on="1"/>
        <pt x="1232" y="78" on="0"/>
        <pt x="1288" y="321" on="1"/>
        <pt x="1304" y="391" on="0"/>
        <pt x="1309" y="465" on="1"/>
        <pt x="1387" y="465" on="1"/>
        <pt x="1387" y="0" on="1"/>
        <pt x="71" y="0" on="1"/>
      </contour>
    </TTGlyph>
    <TTGlyph name="Eacute" xMin="71" yMin="0" xMax="1387" yMax="2005">
      <contour>
        <pt x="71" y="79" on="1"/>
        <pt x="271" y="79" on="1"/>
        <pt x="272" y="1452" on="1"/>
        <pt x="71" y="1452" on="1"/>
        <pt x="71" y="1530" on="1"/>
        <pt x="1364" y="1530" on="1"/>
        <pt x="1364" y="1094" on="1"/>
        <pt x="1286" y="1094" on="1"/>
        <pt x="1281" y="1177" on="0"/>
        <pt x="1263" y="1306" on="0"/>
        <pt x="1234" y="1351" on="1"/>
        <pt x="1176" y="1443" on="0"/>
        <pt x="998" y="1452" on="1"/>
        <pt x="541" y="1452" on="1"/>
        <pt x="541" y="824" on="1"/>
        <pt x="791" y="824" on="1"/>
        <pt x="876" y="824" on="0"/>
        <pt x="967" y="879" on="0"/>
        <pt x="977" y="948" on="1"/>
        <pt x="979" y="968" on="0"/>
        <pt x="982" y="1013" on="0"/>
        <pt x="984" y="1035" on="1"/>
        <pt x="1068" y="1035" on="1"/>
        <pt x="1068" y="519" on="1"/>
        <pt x="984" y="519" on="1"/>
        <pt x="982" y="542" on="0"/>
        <pt x="979" y="602" on="0"/>
        <pt x="977" y="622" on="1"/>
        <pt x="967" y="691" on="0"/>
        <pt x="874" y="746" on="0"/>
        <pt x="791" y="746" on="1"/>
        <pt x="541" y="746" on="1"/>
        <pt x="541" y="78" on="1"/>
        <pt x="969" y="78" on="1"/>
        <pt x="1232" y="78" on="0"/>
        <pt x="1288" y="321" on="1"/>
        <pt x="1304" y="391" on="0"/>
        <pt x="1309" y="465" on="1"/>
        <pt x="1387" y="465" on="1"/>
        <pt x="1387" y="0" on="1"/>
        <pt x="71" y="0" on="1"/>
      </contour>
      <contour>
        <pt x="680" y="1679" on="1"/>
        <pt x="969" y="1956" on="1"/>
        <pt x="1023" y="2005" on="0"/>
        <pt x="1060" y="2001" on="1"/>
        <pt x="1123" y="1993" on="0"/>
        <pt x="1183" y="1922" on="0"/>
        <pt x="1176" y="1882" on="1"/>
        <pt x="1163" y="1800" on="0"/>
        <pt x="1097" y="1776" on="1"/>
        <pt x="702" y="1639" on="1"/>
      </contour>
    </TTGlyph>
    <TTGlyph name="Ebreve" xMin="71" yMin="0" xMax="1387" yMax="2000">
      <contour>
        <pt x="71" y="79" on="1"/>
        <pt x="271" y="79" on="1"/>
        <pt x="272" y="1452" on="1"/>
        <pt x="71" y="1452" on="1"/>
        <pt x="71" y="1530" on="1"/>
        <pt x="1364" y="1530" on="1"/>
        <pt x="1364" y="1094" on="1"/>
        <pt x="1286" y="1094" on="1"/>
        <pt x="1281" y="1177" on="0"/>
        <pt x="1263" y="1306" on="0"/>
        <pt x="1234" y="1351" on="1"/>
        <pt x="1176" y="1443" on="0"/>
        <pt x="998" y="1452" on="1"/>
        <pt x="541" y="1452" on="1"/>
        <pt x="541" y="824" on="1"/>
        <pt x="791" y="824" on="1"/>
        <pt x="876" y="824" on="0"/>
        <pt x="967" y="879" on="0"/>
        <pt x="977" y="948" on="1"/>
        <pt x="979" y="968" on="0"/>
        <pt x="982" y="1013" on="0"/>
        <pt x="984" y="1035" on="1"/>
        <pt x="1068" y="1035" on="1"/>
        <pt x="1068" y="519" on="1"/>
        <pt x="984" y="519" on="1"/>
        <pt x="982" y="542" on="0"/>
        <pt x="979" y="602" on="0"/>
        <pt x="977" y="622" on="1"/>
        <pt x="967" y="691" on="0"/>
        <pt x="874" y="746" on="0"/>
        <pt x="791" y="746" on="1"/>
        <pt x="541" y="746" on="1"/>
        <pt x="541" y="78" on="1"/>
        <pt x="969" y="78" on="1"/>
        <pt x="1232" y="78" on="0"/>
        <pt x="1288" y="321" on="1"/>
        <pt x="1304" y="391" on="0"/>
        <pt x="1309" y="465" on="1"/>
        <pt x="1387" y="465" on="1"/>
        <pt x="1387" y="0" on="1"/>
        <pt x="71" y="0" on="1"/>
      </contour>
      <contour>
        <pt x="1122" y="2000" on="1"/>
        <pt x="1127" y="1965" on="0"/>
        <pt x="1127" y="1881" on="0"/>
        <pt x="1082" y="1773" on="0"/>
        <pt x="1040" y="1733" on="1"/>
        <pt x="948" y="1647" on="0"/>
        <pt x="801" y="1647" on="1"/>
        <pt x="654" y="1647" on="0"/>
        <pt x="475" y="1815" on="0"/>
        <pt x="475" y="1943" on="1"/>
        <pt x="475" y="1965" on="0"/>
        <pt x="480" y="2000" on="1"/>
        <pt x="537" y="2000" on="1"/>
        <pt x="609" y="1820" on="0"/>
        <pt x="801" y="1820" on="1"/>
        <pt x="993" y="1820" on="0"/>
        <pt x="1065" y="2000" on="1"/>
      </contour>
    </TTGlyph>
    <TTGlyph name="Ecaron" xMin="71" yMin="0" xMax="1387" yMax="2000">
      <contour>
        <pt x="71" y="79" on="1"/>
        <pt x="271" y="79" on="1"/>
        <pt x="272" y="1452" on="1"/>
        <pt x="71" y="1452" on="1"/>
        <pt x="71" y="1530" on="1"/>
        <pt x="1364" y="1530" on="1"/>
        <pt x="1364" y="1094" on="1"/>
        <pt x="1286" y="1094" on="1"/>
        <pt x="1281" y="1177" on="0"/>
        <pt x="1263" y="1306" on="0"/>
        <pt x="1234" y="1351" on="1"/>
        <pt x="1176" y="1443" on="0"/>
        <pt x="998" y="1452" on="1"/>
        <pt x="541" y="1452" on="1"/>
        <pt x="541" y="824" on="1"/>
        <pt x="791" y="824" on="1"/>
        <pt x="876" y="824" on="0"/>
        <pt x="967" y="879" on="0"/>
        <pt x="977" y="948" on="1"/>
        <pt x="979" y="968" on="0"/>
        <pt x="982" y="1013" on="0"/>
        <pt x="984" y="1035" on="1"/>
        <pt x="1068" y="1035" on="1"/>
        <pt x="1068" y="519" on="1"/>
        <pt x="984" y="519" on="1"/>
        <pt x="982" y="542" on="0"/>
        <pt x="979" y="602" on="0"/>
        <pt x="977" y="622" on="1"/>
        <pt x="967" y="691" on="0"/>
        <pt x="874" y="746" on="0"/>
        <pt x="791" y="746" on="1"/>
        <pt x="541" y="746" on="1"/>
        <pt x="541" y="78" on="1"/>
        <pt x="969" y="78" on="1"/>
        <pt x="1232" y="78" on="0"/>
        <pt x="1288" y="321" on="1"/>
        <pt x="1304" y="391" on="0"/>
        <pt x="1309" y="465" on="1"/>
        <pt x="1387" y="465" on="1"/>
        <pt x="1387" y="0" on="1"/>
        <pt x="71" y="0" on="1"/>
      </contour>
      <contour>
        <pt x="699" y="1694" on="1"/>
        <pt x="440" y="1964" on="1"/>
        <pt x="468" y="2000" on="1"/>
        <pt x="808" y="1836" on="1"/>
        <pt x="1146" y="2000" on="1"/>
        <pt x="1174" y="1963" on="1"/>
        <pt x="924" y="1701" on="1"/>
        <pt x="881" y="1653" on="0"/>
        <pt x="828" y="1630" on="0"/>
        <pt x="757" y="1630" on="0"/>
      </contour>
    </TTGlyph>
    <TTGlyph name="Ecircumflex" xMin="71" yMin="0" xMax="1387" yMax="2000">
      <contour>
        <pt x="71" y="79" on="1"/>
        <pt x="271" y="79" on="1"/>
        <pt x="272" y="1452" on="1"/>
        <pt x="71" y="1452" on="1"/>
        <pt x="71" y="1530" on="1"/>
        <pt x="1364" y="1530" on="1"/>
        <pt x="1364" y="1094" on="1"/>
        <pt x="1286" y="1094" on="1"/>
        <pt x="1281" y="1177" on="0"/>
        <pt x="1263" y="1306" on="0"/>
        <pt x="1234" y="1351" on="1"/>
        <pt x="1176" y="1443" on="0"/>
        <pt x="998" y="1452" on="1"/>
        <pt x="541" y="1452" on="1"/>
        <pt x="541" y="824" on="1"/>
        <pt x="791" y="824" on="1"/>
        <pt x="876" y="824" on="0"/>
        <pt x="967" y="879" on="0"/>
        <pt x="977" y="948" on="1"/>
        <pt x="979" y="968" on="0"/>
        <pt x="982" y="1013" on="0"/>
        <pt x="984" y="1035" on="1"/>
        <pt x="1068" y="1035" on="1"/>
        <pt x="1068" y="519" on="1"/>
        <pt x="984" y="519" on="1"/>
        <pt x="982" y="542" on="0"/>
        <pt x="979" y="602" on="0"/>
        <pt x="977" y="622" on="1"/>
        <pt x="967" y="691" on="0"/>
        <pt x="874" y="746" on="0"/>
        <pt x="791" y="746" on="1"/>
        <pt x="541" y="746" on="1"/>
        <pt x="541" y="78" on="1"/>
        <pt x="969" y="78" on="1"/>
        <pt x="1232" y="78" on="0"/>
        <pt x="1288" y="321" on="1"/>
        <pt x="1304" y="391" on="0"/>
        <pt x="1309" y="465" on="1"/>
        <pt x="1387" y="465" on="1"/>
        <pt x="1387" y="0" on="1"/>
        <pt x="71" y="0" on="1"/>
      </contour>
      <contour>
        <pt x="435" y="1646" on="1"/>
        <pt x="698" y="1936" on="1"/>
        <pt x="756" y="2000" on="0"/>
        <pt x="827" y="2000" on="0"/>
        <pt x="844" y="1992" on="1"/>
        <pt x="876" y="1979" on="0"/>
        <pt x="903" y="1950" on="1"/>
        <pt x="1169" y="1647" on="1"/>
        <pt x="1141" y="1610" on="1"/>
        <pt x="807" y="1794" on="1"/>
        <pt x="463" y="1610" on="1"/>
      </contour>
    </TTGlyph>
    <TTGlyph name="Edieresis" xMin="71" yMin="0" xMax="1387" yMax="1946">
      <contour>
        <pt x="71" y="79" on="1"/>
        <pt x="271" y="79" on="1"/>
        <pt x="272" y="1452" on="1"/>
        <pt x="71" y="1452" on="1"/>
        <pt x="71" y="1530" on="1"/>
        <pt x="1364" y="1530" on="1"/>
        <pt x="1364" y="1094" on="1"/>
        <pt x="1286" y="1094" on="1"/>
        <pt x="1281" y="1177" on="0"/>
        <pt x="1263" y="1306" on="0"/>
        <pt x="1234" y="1351" on="1"/>
        <pt x="1176" y="1443" on="0"/>
        <pt x="998" y="1452" on="1"/>
        <pt x="541" y="1452" on="1"/>
        <pt x="541" y="824" on="1"/>
        <pt x="791" y="824" on="1"/>
        <pt x="876" y="824" on="0"/>
        <pt x="967" y="879" on="0"/>
        <pt x="977" y="948" on="1"/>
        <pt x="979" y="968" on="0"/>
        <pt x="982" y="1013" on="0"/>
        <pt x="984" y="1035" on="1"/>
        <pt x="1068" y="1035" on="1"/>
        <pt x="1068" y="519" on="1"/>
        <pt x="984" y="519" on="1"/>
        <pt x="982" y="542" on="0"/>
        <pt x="979" y="602" on="0"/>
        <pt x="977" y="622" on="1"/>
        <pt x="967" y="691" on="0"/>
        <pt x="874" y="746" on="0"/>
        <pt x="791" y="746" on="1"/>
        <pt x="541" y="746" on="1"/>
        <pt x="541" y="78" on="1"/>
        <pt x="969" y="78" on="1"/>
        <pt x="1232" y="78" on="0"/>
        <pt x="1288" y="321" on="1"/>
        <pt x="1304" y="391" on="0"/>
        <pt x="1309" y="465" on="1"/>
        <pt x="1387" y="465" on="1"/>
        <pt x="1387" y="0" on="1"/>
        <pt x="71" y="0" on="1"/>
      </contour>
      <contour>
        <pt x="1131" y="1834" on="1"/>
        <pt x="1131" y="1740" on="0"/>
        <pt x="1055" y="1708" on="1"/>
        <pt x="1032" y="1699" on="0"/>
        <pt x="1006" y="1699" on="1"/>
        <pt x="956" y="1699" on="0"/>
        <pt x="884" y="1771" on="0"/>
        <pt x="884" y="1809" on="1"/>
        <pt x="884" y="1874" on="0"/>
        <pt x="958" y="1946" on="0"/>
        <pt x="995" y="1946" on="1"/>
        <pt x="1058" y="1946" on="0"/>
        <pt x="1131" y="1873" on="0"/>
      </contour>
      <contour>
        <pt x="715" y="1834" on="1"/>
        <pt x="715" y="1740" on="0"/>
        <pt x="639" y="1708" on="1"/>
        <pt x="616" y="1699" on="0"/>
        <pt x="590" y="1699" on="1"/>
        <pt x="540" y="1699" on="0"/>
        <pt x="468" y="1771" on="0"/>
        <pt x="468" y="1809" on="1"/>
        <pt x="468" y="1874" on="0"/>
        <pt x="542" y="1946" on="0"/>
        <pt x="579" y="1946" on="1"/>
        <pt x="642" y="1946" on="0"/>
        <pt x="715" y="1873" on="0"/>
      </contour>
    </TTGlyph>
    <TTGlyph name="Edotaccent" xMin="71" yMin="0" xMax="1387" yMax="1962">
      <contour>
        <pt x="71" y="79" on="1"/>
        <pt x="271" y="79" on="1"/>
        <pt x="272" y="1452" on="1"/>
        <pt x="71" y="1452" on="1"/>
        <pt x="71" y="1530" on="1"/>
        <pt x="1364" y="1530" on="1"/>
        <pt x="1364" y="1094" on="1"/>
        <pt x="1286" y="1094" on="1"/>
        <pt x="1281" y="1177" on="0"/>
        <pt x="1263" y="1306" on="0"/>
        <pt x="1234" y="1351" on="1"/>
        <pt x="1176" y="1443" on="0"/>
        <pt x="998" y="1452" on="1"/>
        <pt x="541" y="1452" on="1"/>
        <pt x="541" y="824" on="1"/>
        <pt x="791" y="824" on="1"/>
        <pt x="876" y="824" on="0"/>
        <pt x="967" y="879" on="0"/>
        <pt x="977" y="948" on="1"/>
        <pt x="979" y="968" on="0"/>
        <pt x="982" y="1013" on="0"/>
        <pt x="984" y="1035" on="1"/>
        <pt x="1068" y="1035" on="1"/>
        <pt x="1068" y="519" on="1"/>
        <pt x="984" y="519" on="1"/>
        <pt x="982" y="542" on="0"/>
        <pt x="979" y="602" on="0"/>
        <pt x="977" y="622" on="1"/>
        <pt x="967" y="691" on="0"/>
        <pt x="874" y="746" on="0"/>
        <pt x="791" y="746" on="1"/>
        <pt x="541" y="746" on="1"/>
        <pt x="541" y="78" on="1"/>
        <pt x="969" y="78" on="1"/>
        <pt x="1232" y="78" on="0"/>
        <pt x="1288" y="321" on="1"/>
        <pt x="1304" y="391" on="0"/>
        <pt x="1309" y="465" on="1"/>
        <pt x="1387" y="465" on="1"/>
        <pt x="1387" y="0" on="1"/>
        <pt x="71" y="0" on="1"/>
      </contour>
      <contour>
        <pt x="862" y="1962" on="0"/>
        <pt x="940" y="1884" on="0"/>
        <pt x="940" y="1777" on="0"/>
        <pt x="863" y="1700" on="0"/>
        <pt x="754" y="1700" on="0"/>
        <pt x="678" y="1776" on="0"/>
        <pt x="678" y="1885" on="0"/>
        <pt x="706" y="1913" on="1"/>
        <pt x="755" y="1962" on="0"/>
      </contour>
    </TTGlyph>
    <TTGlyph name="Egrave" xMin="71" yMin="0" xMax="1387" yMax="2003">
      <contour>
        <pt x="71" y="79" on="1"/>
        <pt x="271" y="79" on="1"/>
        <pt x="272" y="1452" on="1"/>
        <pt x="71" y="1452" on="1"/>
        <pt x="71" y="1530" on="1"/>
        <pt x="1364" y="1530" on="1"/>
        <pt x="1364" y="1094" on="1"/>
        <pt x="1286" y="1094" on="1"/>
        <pt x="1281" y="1177" on="0"/>
        <pt x="1263" y="1306" on="0"/>
        <pt x="1234" y="1351" on="1"/>
        <pt x="1176" y="1443" on="0"/>
        <pt x="998" y="1452" on="1"/>
        <pt x="541" y="1452" on="1"/>
        <pt x="541" y="824" on="1"/>
        <pt x="791" y="824" on="1"/>
        <pt x="876" y="824" on="0"/>
        <pt x="967" y="879" on="0"/>
        <pt x="977" y="948" on="1"/>
        <pt x="979" y="968" on="0"/>
        <pt x="982" y="1013" on="0"/>
        <pt x="984" y="1035" on="1"/>
        <pt x="1068" y="1035" on="1"/>
        <pt x="1068" y="519" on="1"/>
        <pt x="984" y="519" on="1"/>
        <pt x="982" y="542" on="0"/>
        <pt x="979" y="602" on="0"/>
        <pt x="977" y="622" on="1"/>
        <pt x="967" y="691" on="0"/>
        <pt x="874" y="746" on="0"/>
        <pt x="791" y="746" on="1"/>
        <pt x="541" y="746" on="1"/>
        <pt x="541" y="78" on="1"/>
        <pt x="969" y="78" on="1"/>
        <pt x="1232" y="78" on="0"/>
        <pt x="1288" y="321" on="1"/>
        <pt x="1304" y="391" on="0"/>
        <pt x="1309" y="465" on="1"/>
        <pt x="1387" y="465" on="1"/>
        <pt x="1387" y="0" on="1"/>
        <pt x="71" y="0" on="1"/>
      </contour>
      <contour>
        <pt x="524" y="1774" on="1"/>
        <pt x="459" y="1796" on="0"/>
        <pt x="432" y="1917" on="0"/>
        <pt x="491" y="1991" on="0"/>
        <pt x="571" y="2003" on="0"/>
        <pt x="619" y="1982" on="0"/>
        <pt x="645" y="1959" on="1"/>
        <pt x="944" y="1692" on="1"/>
        <pt x="923" y="1651" on="1"/>
      </contour>
    </TTGlyph>
    <TTGlyph name="Emacron" xMin="71" yMin="0" xMax="1387" yMax="1993">
      <contour>
        <pt x="71" y="79" on="1"/>
        <pt x="271" y="79" on="1"/>
        <pt x="272" y="1452" on="1"/>
        <pt x="71" y="1452" on="1"/>
        <pt x="71" y="1530" on="1"/>
        <pt x="1364" y="1530" on="1"/>
        <pt x="1364" y="1094" on="1"/>
        <pt x="1286" y="1094" on="1"/>
        <pt x="1281" y="1177" on="0"/>
        <pt x="1263" y="1306" on="0"/>
        <pt x="1234" y="1351" on="1"/>
        <pt x="1176" y="1443" on="0"/>
        <pt x="998" y="1452" on="1"/>
        <pt x="541" y="1452" on="1"/>
        <pt x="541" y="824" on="1"/>
        <pt x="791" y="824" on="1"/>
        <pt x="876" y="824" on="0"/>
        <pt x="967" y="879" on="0"/>
        <pt x="977" y="948" on="1"/>
        <pt x="979" y="968" on="0"/>
        <pt x="982" y="1013" on="0"/>
        <pt x="984" y="1035" on="1"/>
        <pt x="1068" y="1035" on="1"/>
        <pt x="1068" y="519" on="1"/>
        <pt x="984" y="519" on="1"/>
        <pt x="982" y="542" on="0"/>
        <pt x="979" y="602" on="0"/>
        <pt x="977" y="622" on="1"/>
        <pt x="967" y="691" on="0"/>
        <pt x="874" y="746" on="0"/>
        <pt x="791" y="746" on="1"/>
        <pt x="541" y="746" on="1"/>
        <pt x="541" y="78" on="1"/>
        <pt x="969" y="78" on="1"/>
        <pt x="1232" y="78" on="0"/>
        <pt x="1288" y="321" on="1"/>
        <pt x="1304" y="391" on="0"/>
        <pt x="1309" y="465" on="1"/>
        <pt x="1387" y="465" on="1"/>
        <pt x="1387" y="0" on="1"/>
        <pt x="71" y="0" on="1"/>
      </contour>
      <contour>
        <pt x="481" y="1993" on="1"/>
        <pt x="1138" y="1993" on="1"/>
        <pt x="1138" y="1870" on="1"/>
        <pt x="481" y="1870" on="1"/>
      </contour>
    </TTGlyph>
    <TTGlyph name="Eng" xMin="73" yMin="-423" xMax="1637" yMax="1530">
      <contour>
        <pt x="73" y="78" on="1"/>
        <pt x="267" y="78" on="1"/>
        <pt x="267" y="1452" on="1"/>
        <pt x="93" y="1452" on="1"/>
        <pt x="93" y="1530" on="1"/>
        <pt x="546" y="1530" on="1"/>
        <pt x="1356" y="344" on="1"/>
        <pt x="1356" y="1452" on="1"/>
        <pt x="1162" y="1452" on="1"/>
        <pt x="1162" y="1530" on="1"/>
        <pt x="1637" y="1530" on="1"/>
        <pt x="1637" y="1452" on="1"/>
        <pt x="1454" y="1452" on="1"/>
        <pt x="1454" y="0" on="1"/>
        <pt x="1454" y="-326" on="0"/>
        <pt x="1096" y="-423" on="1"/>
        <pt x="1074" y="-342" on="1"/>
        <pt x="1356" y="-270" on="0"/>
        <pt x="1356" y="0" on="1"/>
        <pt x="1282" y="0" on="1"/>
        <pt x="365" y="1330" on="1"/>
        <pt x="365" y="78" on="1"/>
        <pt x="568" y="78" on="1"/>
        <pt x="568" y="0" on="1"/>
        <pt x="73" y="0" on="1"/>
      </contour>
    </TTGlyph>
    <TTGlyph name="Eogonek" xMin="71" yMin="-555" xMax="1387" yMax="1530">
      <contour>
        <pt x="1062" y="-555" on="1"/>
        <pt x="789" y="-555" on="0"/>
        <pt x="789" y="-352" on="1"/>
        <pt x="789" y="-252" on="0"/>
        <pt x="975" y="-62" on="0"/>
        <pt x="1097" y="0" on="1"/>
        <pt x="71" y="0" on="1"/>
        <pt x="71" y="79" on="1"/>
        <pt x="271" y="79" on="1"/>
        <pt x="272" y="1452" on="1"/>
        <pt x="71" y="1452" on="1"/>
        <pt x="71" y="1530" on="1"/>
        <pt x="1364" y="1530" on="1"/>
        <pt x="1364" y="1094" on="1"/>
        <pt x="1286" y="1094" on="1"/>
        <pt x="1281" y="1177" on="0"/>
        <pt x="1263" y="1306" on="0"/>
        <pt x="1234" y="1351" on="1"/>
        <pt x="1176" y="1443" on="0"/>
        <pt x="998" y="1452" on="1"/>
        <pt x="541" y="1452" on="1"/>
        <pt x="541" y="824" on="1"/>
        <pt x="791" y="824" on="1"/>
        <pt x="876" y="824" on="0"/>
        <pt x="967" y="879" on="0"/>
        <pt x="977" y="948" on="1"/>
        <pt x="979" y="968" on="0"/>
        <pt x="982" y="1013" on="0"/>
        <pt x="984" y="1035" on="1"/>
        <pt x="1068" y="1035" on="1"/>
        <pt x="1068" y="519" on="1"/>
        <pt x="984" y="519" on="1"/>
        <pt x="982" y="542" on="0"/>
        <pt x="979" y="602" on="0"/>
        <pt x="977" y="622" on="1"/>
        <pt x="967" y="691" on="0"/>
        <pt x="874" y="746" on="0"/>
        <pt x="791" y="746" on="1"/>
        <pt x="541" y="746" on="1"/>
        <pt x="541" y="78" on="1"/>
        <pt x="969" y="78" on="1"/>
        <pt x="1232" y="78" on="0"/>
        <pt x="1288" y="321" on="1"/>
        <pt x="1304" y="391" on="0"/>
        <pt x="1309" y="465" on="1"/>
        <pt x="1387" y="465" on="1"/>
        <pt x="1387" y="0" on="1"/>
        <pt x="1240" y="0" on="1"/>
        <pt x="1072" y="-120" on="0"/>
        <pt x="1043" y="-218" on="1"/>
        <pt x="1033" y="-252" on="0"/>
        <pt x="1033" y="-287" on="1"/>
        <pt x="1033" y="-356" on="0"/>
        <pt x="1101" y="-439" on="0"/>
        <pt x="1142" y="-439" on="1"/>
        <pt x="1208" y="-439" on="0"/>
        <pt x="1312" y="-375" on="0"/>
        <pt x="1340" y="-338" on="1"/>
        <pt x="1387" y="-390" on="1"/>
        <pt x="1361" y="-434" on="0"/>
        <pt x="1294" y="-475" on="1"/>
        <pt x="1164" y="-555" on="0"/>
      </contour>
    </TTGlyph>
    <TTGlyph name="Eth" xMin="83" yMin="0" xMax="1610" yMax="1530">
      <contour>
        <pt x="83" y="78" on="1"/>
        <pt x="283" y="78" on="1"/>
        <pt x="283" y="735" on="1"/>
        <pt x="113" y="735" on="1"/>
        <pt x="113" y="813" on="1"/>
        <pt x="283" y="813" on="1"/>
        <pt x="284" y="1452" on="1"/>
        <pt x="83" y="1452" on="1"/>
        <pt x="83" y="1530" on="1"/>
        <pt x="757" y="1530" on="1"/>
        <pt x="1360" y="1530" on="0"/>
        <pt x="1537" y="1149" on="1"/>
        <pt x="1610" y="992" on="0"/>
        <pt x="1610" y="777" on="1"/>
        <pt x="1610" y="491" on="0"/>
        <pt x="1444" y="278" on="1"/>
        <pt x="1310" y="107" on="0"/>
        <pt x="1055" y="37" on="1"/>
        <pt x="921" y="0" on="0"/>
        <pt x="743" y="0" on="1"/>
        <pt x="83" y="0" on="1"/>
      </contour>
      <contour>
        <pt x="731" y="78" on="1"/>
        <pt x="1046" y="78" on="0"/>
        <pt x="1318" y="392" on="0"/>
        <pt x="1318" y="770" on="1"/>
        <pt x="1318" y="801" on="1"/>
        <pt x="1312" y="1163" on="0"/>
        <pt x="1033" y="1452" on="0"/>
        <pt x="744" y="1452" on="1"/>
        <pt x="553" y="1452" on="1"/>
        <pt x="553" y="813" on="1"/>
        <pt x="943" y="813" on="1"/>
        <pt x="943" y="735" on="1"/>
        <pt x="553" y="735" on="1"/>
        <pt x="553" y="78" on="1"/>
      </contour>
    </TTGlyph>
    <TTGlyph name="Euro" xMin="40" yMin="-24" xMax="1314" yMax="1547">
      <contour>
        <pt x="1178" y="1408" on="1"/>
        <pt x="1207" y="1455" on="0"/>
        <pt x="1219" y="1507" on="1"/>
        <pt x="1314" y="1507" on="1"/>
        <pt x="1314" y="1118" on="1"/>
        <pt x="1209" y="1118" on="1"/>
        <pt x="1171" y="1357" on="0"/>
        <pt x="1016" y="1433" on="1"/>
        <pt x="958" y="1461" on="0"/>
        <pt x="876" y="1461" on="1"/>
        <pt x="718" y="1461" on="0"/>
        <pt x="534" y="1171" on="0"/>
        <pt x="513" y="928" on="1"/>
        <pt x="1108" y="928" on="1"/>
        <pt x="1101" y="850" on="1"/>
        <pt x="508" y="850" on="1"/>
        <pt x="507" y="829" on="0"/>
        <pt x="507" y="808" on="1"/>
        <pt x="507" y="765" on="1"/>
        <pt x="507" y="721" on="0"/>
        <pt x="510" y="679" on="1"/>
        <pt x="1088" y="679" on="1"/>
        <pt x="1081" y="601" on="1"/>
        <pt x="516" y="601" on="1"/>
        <pt x="557" y="229" on="0"/>
        <pt x="744" y="110" on="1"/>
        <pt x="810" y="68" on="0"/>
        <pt x="895" y="69" on="1"/>
        <pt x="1019" y="71" on="0"/>
        <pt x="1172" y="250" on="0"/>
        <pt x="1200" y="406" on="1"/>
        <pt x="1314" y="406" on="1"/>
        <pt x="1278" y="197" on="0"/>
        <pt x="1028" y="-18" on="0"/>
        <pt x="880" y="-20" on="1"/>
        <pt x="596" y="-24" on="0"/>
        <pt x="256" y="301" on="0"/>
        <pt x="218" y="601" on="1"/>
        <pt x="40" y="601" on="1"/>
        <pt x="47" y="679" on="1"/>
        <pt x="211" y="679" on="1"/>
        <pt x="209" y="721" on="0"/>
        <pt x="209" y="808" on="0"/>
        <pt x="212" y="850" on="1"/>
        <pt x="60" y="850" on="1"/>
        <pt x="67" y="928" on="1"/>
        <pt x="222" y="928" on="1"/>
        <pt x="265" y="1194" on="0"/>
        <pt x="614" y="1547" on="0"/>
        <pt x="868" y="1547" on="1"/>
        <pt x="1011" y="1547" on="0"/>
        <pt x="1126" y="1456" on="1"/>
        <pt x="1157" y="1432" on="0"/>
      </contour>
    </TTGlyph>
    <TTGlyph name="F" xMin="52" yMin="0" xMax="1305" yMax="1530">
      <contour>
        <pt x="53" y="78" on="1"/>
        <pt x="252" y="78" on="1"/>
        <pt x="253" y="1452" on="1"/>
        <pt x="52" y="1452" on="1"/>
        <pt x="52" y="1530" on="1"/>
        <pt x="1305" y="1530" on="1"/>
        <pt x="1305" y="1089" on="1"/>
        <pt x="1227" y="1089" on="1"/>
        <pt x="1216" y="1277" on="0"/>
        <pt x="1166" y="1348" on="1"/>
        <pt x="1100" y="1443" on="0"/>
        <pt x="919" y="1452" on="1"/>
        <pt x="522" y="1452" on="1"/>
        <pt x="522" y="795" on="1"/>
        <pt x="738" y="795" on="1"/>
        <pt x="822" y="795" on="0"/>
        <pt x="923" y="851" on="0"/>
        <pt x="933" y="919" on="1"/>
        <pt x="935" y="939" on="0"/>
        <pt x="938" y="990" on="0"/>
        <pt x="940" y="1012" on="1"/>
        <pt x="1022" y="1012" on="1"/>
        <pt x="1022" y="489" on="1"/>
        <pt x="940" y="489" on="1"/>
        <pt x="938" y="512" on="0"/>
        <pt x="935" y="573" on="0"/>
        <pt x="933" y="593" on="1"/>
        <pt x="915" y="717" on="0"/>
        <pt x="738" y="717" on="1"/>
        <pt x="522" y="717" on="1"/>
        <pt x="522" y="78" on="1"/>
        <pt x="846" y="78" on="1"/>
        <pt x="846" y="0" on="1"/>
        <pt x="53" y="0" on="1"/>
      </contour>
    </TTGlyph>
    <TTGlyph name="G" xMin="107" yMin="-20" xMax="1659" yMax="1550">
      <contour>
        <pt x="896" y="1550" on="1"/>
        <pt x="1240" y="1550" on="0"/>
        <pt x="1382" y="1421" on="1"/>
        <pt x="1404" y="1446" on="0"/>
        <pt x="1426" y="1530" on="1"/>
        <pt x="1507" y="1530" on="1"/>
        <pt x="1507" y="1111" on="1"/>
        <pt x="1422" y="1111" on="1"/>
        <pt x="1374" y="1290" on="0"/>
        <pt x="1106" y="1467" on="0"/>
        <pt x="917" y="1467" on="1"/>
        <pt x="566" y="1467" on="0"/>
        <pt x="450" y="1108" on="1"/>
        <pt x="380" y="892" on="0"/>
        <pt x="416" y="602" on="1"/>
        <pt x="467" y="198" on="0"/>
        <pt x="752" y="92" on="1"/>
        <pt x="832" y="63" on="0"/>
        <pt x="1012" y="63" on="0"/>
        <pt x="1138" y="95" on="0"/>
        <pt x="1231" y="142" on="0"/>
        <pt x="1285" y="195" on="0"/>
        <pt x="1288" y="216" on="1"/>
        <pt x="1288" y="601" on="1"/>
        <pt x="1027" y="601" on="1"/>
        <pt x="1027" y="679" on="1"/>
        <pt x="1659" y="679" on="1"/>
        <pt x="1659" y="601" on="1"/>
        <pt x="1530" y="601" on="1"/>
        <pt x="1530" y="192" on="1"/>
        <pt x="1469" y="107" on="0"/>
        <pt x="1115" y="-20" on="0"/>
        <pt x="738" y="-20" on="0"/>
        <pt x="431" y="103" on="0"/>
        <pt x="325" y="210" on="1"/>
        <pt x="107" y="430" on="0"/>
        <pt x="107" y="1089" on="0"/>
        <pt x="326" y="1314" on="1"/>
        <pt x="471" y="1464" on="0"/>
        <pt x="688" y="1521" on="1"/>
        <pt x="798" y="1550" on="0"/>
      </contour>
    </TTGlyph>
    <TTGlyph name="Gbreve" xMin="107" yMin="-20" xMax="1659" yMax="2000">
      <contour>
        <pt x="896" y="1550" on="1"/>
        <pt x="1240" y="1550" on="0"/>
        <pt x="1382" y="1421" on="1"/>
        <pt x="1404" y="1446" on="0"/>
        <pt x="1426" y="1530" on="1"/>
        <pt x="1507" y="1530" on="1"/>
        <pt x="1507" y="1111" on="1"/>
        <pt x="1422" y="1111" on="1"/>
        <pt x="1374" y="1290" on="0"/>
        <pt x="1106" y="1467" on="0"/>
        <pt x="917" y="1467" on="1"/>
        <pt x="566" y="1467" on="0"/>
        <pt x="450" y="1108" on="1"/>
        <pt x="380" y="892" on="0"/>
        <pt x="416" y="602" on="1"/>
        <pt x="467" y="198" on="0"/>
        <pt x="752" y="92" on="1"/>
        <pt x="832" y="63" on="0"/>
        <pt x="1012" y="63" on="0"/>
        <pt x="1138" y="95" on="0"/>
        <pt x="1231" y="142" on="0"/>
        <pt x="1285" y="195" on="0"/>
        <pt x="1288" y="216" on="1"/>
        <pt x="1288" y="601" on="1"/>
        <pt x="1027" y="601" on="1"/>
        <pt x="1027" y="679" on="1"/>
        <pt x="1659" y="679" on="1"/>
        <pt x="1659" y="601" on="1"/>
        <pt x="1530" y="601" on="1"/>
        <pt x="1530" y="192" on="1"/>
        <pt x="1469" y="107" on="0"/>
        <pt x="1115" y="-20" on="0"/>
        <pt x="738" y="-20" on="0"/>
        <pt x="431" y="103" on="0"/>
        <pt x="325" y="210" on="1"/>
        <pt x="107" y="430" on="0"/>
        <pt x="107" y="1089" on="0"/>
        <pt x="326" y="1314" on="1"/>
        <pt x="471" y="1464" on="0"/>
        <pt x="688" y="1521" on="1"/>
        <pt x="798" y="1550" on="0"/>
      </contour>
      <contour>
        <pt x="1225" y="2000" on="1"/>
        <pt x="1230" y="1965" on="0"/>
        <pt x="1230" y="1881" on="0"/>
        <pt x="1185" y="1773" on="0"/>
        <pt x="1143" y="1733" on="1"/>
        <pt x="1051" y="1647" on="0"/>
        <pt x="904" y="1647" on="1"/>
        <pt x="757" y="1647" on="0"/>
        <pt x="578" y="1815" on="0"/>
        <pt x="578" y="1943" on="1"/>
        <pt x="578" y="1965" on="0"/>
        <pt x="583" y="2000" on="1"/>
        <pt x="640" y="2000" on="1"/>
        <pt x="712" y="1820" on="0"/>
        <pt x="904" y="1820" on="1"/>
        <pt x="1096" y="1820" on="0"/>
        <pt x="1168" y="2000" on="1"/>
      </contour>
    </TTGlyph>
    <TTGlyph name="Gcircumflex" xMin="107" yMin="-20" xMax="1659" yMax="2000">
      <contour>
        <pt x="896" y="1550" on="1"/>
        <pt x="1240" y="1550" on="0"/>
        <pt x="1382" y="1421" on="1"/>
        <pt x="1404" y="1446" on="0"/>
        <pt x="1426" y="1530" on="1"/>
        <pt x="1507" y="1530" on="1"/>
        <pt x="1507" y="1111" on="1"/>
        <pt x="1422" y="1111" on="1"/>
        <pt x="1374" y="1290" on="0"/>
        <pt x="1106" y="1467" on="0"/>
        <pt x="917" y="1467" on="1"/>
        <pt x="566" y="1467" on="0"/>
        <pt x="450" y="1108" on="1"/>
        <pt x="380" y="892" on="0"/>
        <pt x="416" y="602" on="1"/>
        <pt x="467" y="198" on="0"/>
        <pt x="752" y="92" on="1"/>
        <pt x="832" y="63" on="0"/>
        <pt x="1012" y="63" on="0"/>
        <pt x="1138" y="95" on="0"/>
        <pt x="1231" y="142" on="0"/>
        <pt x="1285" y="195" on="0"/>
        <pt x="1288" y="216" on="1"/>
        <pt x="1288" y="601" on="1"/>
        <pt x="1027" y="601" on="1"/>
        <pt x="1027" y="679" on="1"/>
        <pt x="1659" y="679" on="1"/>
        <pt x="1659" y="601" on="1"/>
        <pt x="1530" y="601" on="1"/>
        <pt x="1530" y="192" on="1"/>
        <pt x="1469" y="107" on="0"/>
        <pt x="1115" y="-20" on="0"/>
        <pt x="738" y="-20" on="0"/>
        <pt x="431" y="103" on="0"/>
        <pt x="325" y="210" on="1"/>
        <pt x="107" y="430" on="0"/>
        <pt x="107" y="1089" on="0"/>
        <pt x="326" y="1314" on="1"/>
        <pt x="471" y="1464" on="0"/>
        <pt x="688" y="1521" on="1"/>
        <pt x="798" y="1550" on="0"/>
      </contour>
      <contour>
        <pt x="538" y="1646" on="1"/>
        <pt x="801" y="1936" on="1"/>
        <pt x="859" y="2000" on="0"/>
        <pt x="930" y="2000" on="0"/>
        <pt x="947" y="1992" on="1"/>
        <pt x="979" y="1979" on="0"/>
        <pt x="1006" y="1950" on="1"/>
        <pt x="1272" y="1647" on="1"/>
        <pt x="1244" y="1610" on="1"/>
        <pt x="910" y="1794" on="1"/>
        <pt x="566" y="1610" on="1"/>
      </contour>
    </TTGlyph>
    <TTGlyph name="Gcommaaccent" xMin="107" yMin="-560" xMax="1659" yMax="1550">
      <contour>
        <pt x="896" y="1550" on="1"/>
        <pt x="1240" y="1550" on="0"/>
        <pt x="1382" y="1421" on="1"/>
        <pt x="1404" y="1446" on="0"/>
        <pt x="1426" y="1530" on="1"/>
        <pt x="1507" y="1530" on="1"/>
        <pt x="1507" y="1111" on="1"/>
        <pt x="1422" y="1111" on="1"/>
        <pt x="1374" y="1290" on="0"/>
        <pt x="1106" y="1467" on="0"/>
        <pt x="917" y="1467" on="1"/>
        <pt x="566" y="1467" on="0"/>
        <pt x="450" y="1108" on="1"/>
        <pt x="380" y="892" on="0"/>
        <pt x="416" y="602" on="1"/>
        <pt x="467" y="198" on="0"/>
        <pt x="752" y="92" on="1"/>
        <pt x="832" y="63" on="0"/>
        <pt x="1012" y="63" on="0"/>
        <pt x="1138" y="95" on="0"/>
        <pt x="1231" y="142" on="0"/>
        <pt x="1285" y="195" on="0"/>
        <pt x="1288" y="216" on="1"/>
        <pt x="1288" y="601" on="1"/>
        <pt x="1027" y="601" on="1"/>
        <pt x="1027" y="679" on="1"/>
        <pt x="1659" y="679" on="1"/>
        <pt x="1659" y="601" on="1"/>
        <pt x="1530" y="601" on="1"/>
        <pt x="1530" y="192" on="1"/>
        <pt x="1469" y="107" on="0"/>
        <pt x="1115" y="-20" on="0"/>
        <pt x="738" y="-20" on="0"/>
        <pt x="431" y="103" on="0"/>
        <pt x="325" y="210" on="1"/>
        <pt x="107" y="430" on="0"/>
        <pt x="107" y="1089" on="0"/>
        <pt x="326" y="1314" on="1"/>
        <pt x="471" y="1464" on="0"/>
        <pt x="688" y="1521" on="1"/>
        <pt x="798" y="1550" on="0"/>
      </contour>
      <contour>
        <pt x="746" y="-230" on="1"/>
        <pt x="746" y="-179" on="0"/>
        <pt x="826" y="-104" on="0"/>
        <pt x="973" y="-104" on="0"/>
        <pt x="1055" y="-203" on="0"/>
        <pt x="1055" y="-360" on="0"/>
        <pt x="933" y="-517" on="0"/>
        <pt x="847" y="-560" on="1"/>
        <pt x="799" y="-500" on="1"/>
        <pt x="851" y="-472" on="0"/>
        <pt x="887" y="-421" on="1"/>
        <pt x="899" y="-404" on="0"/>
        <pt x="905" y="-386" on="1"/>
        <pt x="901" y="-386" on="1"/>
        <pt x="746" y="-386" on="0"/>
      </contour>
    </TTGlyph>
    <TTGlyph name="Gdotaccent" xMin="107" yMin="-20" xMax="1659" yMax="1962">
      <contour>
        <pt x="896" y="1550" on="1"/>
        <pt x="1240" y="1550" on="0"/>
        <pt x="1382" y="1421" on="1"/>
        <pt x="1404" y="1446" on="0"/>
        <pt x="1426" y="1530" on="1"/>
        <pt x="1507" y="1530" on="1"/>
        <pt x="1507" y="1111" on="1"/>
        <pt x="1422" y="1111" on="1"/>
        <pt x="1374" y="1290" on="0"/>
        <pt x="1106" y="1467" on="0"/>
        <pt x="917" y="1467" on="1"/>
        <pt x="566" y="1467" on="0"/>
        <pt x="450" y="1108" on="1"/>
        <pt x="380" y="892" on="0"/>
        <pt x="416" y="602" on="1"/>
        <pt x="467" y="198" on="0"/>
        <pt x="752" y="92" on="1"/>
        <pt x="832" y="63" on="0"/>
        <pt x="1012" y="63" on="0"/>
        <pt x="1138" y="95" on="0"/>
        <pt x="1231" y="142" on="0"/>
        <pt x="1285" y="195" on="0"/>
        <pt x="1288" y="216" on="1"/>
        <pt x="1288" y="601" on="1"/>
        <pt x="1027" y="601" on="1"/>
        <pt x="1027" y="679" on="1"/>
        <pt x="1659" y="679" on="1"/>
        <pt x="1659" y="601" on="1"/>
        <pt x="1530" y="601" on="1"/>
        <pt x="1530" y="192" on="1"/>
        <pt x="1469" y="107" on="0"/>
        <pt x="1115" y="-20" on="0"/>
        <pt x="738" y="-20" on="0"/>
        <pt x="431" y="103" on="0"/>
        <pt x="325" y="210" on="1"/>
        <pt x="107" y="430" on="0"/>
        <pt x="107" y="1089" on="0"/>
        <pt x="326" y="1314" on="1"/>
        <pt x="471" y="1464" on="0"/>
        <pt x="688" y="1521" on="1"/>
        <pt x="798" y="1550" on="0"/>
      </contour>
      <contour>
        <pt x="965" y="1962" on="0"/>
        <pt x="1043" y="1884" on="0"/>
        <pt x="1043" y="1777" on="0"/>
        <pt x="966" y="1700" on="0"/>
        <pt x="857" y="1700" on="0"/>
        <pt x="781" y="1776" on="0"/>
        <pt x="781" y="1885" on="0"/>
        <pt x="809" y="1913" on="1"/>
        <pt x="858" y="1962" on="0"/>
      </contour>
    </TTGlyph>
    <TTGlyph name="H" xMin="55" yMin="0" xMax="1652" yMax="1530">
      <contour>
        <pt x="55" y="78" on="1"/>
        <pt x="211" y="78" on="1"/>
        <pt x="212" y="1452" on="1"/>
        <pt x="55" y="1452" on="1"/>
        <pt x="55" y="1530" on="1"/>
        <pt x="650" y="1530" on="1"/>
        <pt x="650" y="1452" on="1"/>
        <pt x="481" y="1452" on="1"/>
        <pt x="481" y="806" on="1"/>
        <pt x="1225" y="806" on="1"/>
        <pt x="1226" y="1452" on="1"/>
        <pt x="1057" y="1452" on="1"/>
        <pt x="1057" y="1530" on="1"/>
        <pt x="1652" y="1530" on="1"/>
        <pt x="1652" y="1452" on="1"/>
        <pt x="1495" y="1452" on="1"/>
        <pt x="1495" y="78" on="1"/>
        <pt x="1651" y="78" on="1"/>
        <pt x="1651" y="0" on="1"/>
        <pt x="1057" y="0" on="1"/>
        <pt x="1057" y="78" on="1"/>
        <pt x="1225" y="78" on="1"/>
        <pt x="1225" y="728" on="1"/>
        <pt x="481" y="728" on="1"/>
        <pt x="481" y="78" on="1"/>
        <pt x="649" y="78" on="1"/>
        <pt x="649" y="0" on="1"/>
        <pt x="55" y="0" on="1"/>
      </contour>
    </TTGlyph>
    <TTGlyph name="Hbar" xMin="55" yMin="0" xMax="1652" yMax="1530">
      <contour>
        <pt x="55" y="78" on="1"/>
        <pt x="211" y="78" on="1"/>
        <pt x="211" y="1069" on="1"/>
        <pt x="56" y="1069" on="1"/>
        <pt x="56" y="1147" on="1"/>
        <pt x="211" y="1147" on="1"/>
        <pt x="212" y="1452" on="1"/>
        <pt x="55" y="1452" on="1"/>
        <pt x="55" y="1530" on="1"/>
        <pt x="650" y="1530" on="1"/>
        <pt x="650" y="1452" on="1"/>
        <pt x="481" y="1452" on="1"/>
        <pt x="481" y="1147" on="1"/>
        <pt x="1225" y="1147" on="1"/>
        <pt x="1226" y="1452" on="1"/>
        <pt x="1057" y="1452" on="1"/>
        <pt x="1057" y="1530" on="1"/>
        <pt x="1652" y="1530" on="1"/>
        <pt x="1652" y="1452" on="1"/>
        <pt x="1495" y="1452" on="1"/>
        <pt x="1495" y="1147" on="1"/>
        <pt x="1648" y="1147" on="1"/>
        <pt x="1648" y="1069" on="1"/>
        <pt x="1495" y="1069" on="1"/>
        <pt x="1495" y="78" on="1"/>
        <pt x="1651" y="78" on="1"/>
        <pt x="1651" y="0" on="1"/>
        <pt x="1057" y="0" on="1"/>
        <pt x="1057" y="78" on="1"/>
        <pt x="1225" y="78" on="1"/>
        <pt x="1225" y="728" on="1"/>
        <pt x="481" y="728" on="1"/>
        <pt x="481" y="78" on="1"/>
        <pt x="649" y="78" on="1"/>
        <pt x="649" y="0" on="1"/>
        <pt x="55" y="0" on="1"/>
      </contour>
      <contour>
        <pt x="1225" y="806" on="1"/>
        <pt x="1225" y="1069" on="1"/>
        <pt x="481" y="1069" on="1"/>
        <pt x="481" y="806" on="1"/>
      </contour>
    </TTGlyph>
    <TTGlyph name="Hcircumflex" xMin="55" yMin="0" xMax="1652" yMax="2000">
      <contour>
        <pt x="55" y="78" on="1"/>
        <pt x="211" y="78" on="1"/>
        <pt x="212" y="1452" on="1"/>
        <pt x="55" y="1452" on="1"/>
        <pt x="55" y="1530" on="1"/>
        <pt x="650" y="1530" on="1"/>
        <pt x="650" y="1452" on="1"/>
        <pt x="481" y="1452" on="1"/>
        <pt x="481" y="806" on="1"/>
        <pt x="1225" y="806" on="1"/>
        <pt x="1226" y="1452" on="1"/>
        <pt x="1057" y="1452" on="1"/>
        <pt x="1057" y="1530" on="1"/>
        <pt x="1652" y="1530" on="1"/>
        <pt x="1652" y="1452" on="1"/>
        <pt x="1495" y="1452" on="1"/>
        <pt x="1495" y="78" on="1"/>
        <pt x="1651" y="78" on="1"/>
        <pt x="1651" y="0" on="1"/>
        <pt x="1057" y="0" on="1"/>
        <pt x="1057" y="78" on="1"/>
        <pt x="1225" y="78" on="1"/>
        <pt x="1225" y="728" on="1"/>
        <pt x="481" y="728" on="1"/>
        <pt x="481" y="78" on="1"/>
        <pt x="649" y="78" on="1"/>
        <pt x="649" y="0" on="1"/>
        <pt x="55" y="0" on="1"/>
      </contour>
      <contour>
        <pt x="498" y="1646" on="1"/>
        <pt x="761" y="1936" on="1"/>
        <pt x="819" y="2000" on="0"/>
        <pt x="890" y="2000" on="0"/>
        <pt x="907" y="1992" on="1"/>
        <pt x="939" y="1979" on="0"/>
        <pt x="966" y="1950" on="1"/>
        <pt x="1232" y="1647" on="1"/>
        <pt x="1204" y="1610" on="1"/>
        <pt x="870" y="1794" on="1"/>
        <pt x="526" y="1610" on="1"/>
      </contour>
    </TTGlyph>
    <TTGlyph name="I" xMin="95" yMin="0" xMax="759" yMax="1530">
      <contour>
        <pt x="95" y="78" on="1"/>
        <pt x="292" y="78" on="1"/>
        <pt x="293" y="1452" on="1"/>
        <pt x="95" y="1452" on="1"/>
        <pt x="95" y="1530" on="1"/>
        <pt x="759" y="1530" on="1"/>
        <pt x="759" y="1452" on="1"/>
        <pt x="562" y="1452" on="1"/>
        <pt x="562" y="78" on="1"/>
        <pt x="759" y="78" on="1"/>
        <pt x="759" y="0" on="1"/>
        <pt x="95" y="0" on="1"/>
      </contour>
    </TTGlyph>
    <TTGlyph name="IJ" xMin="95" yMin="-391" xMax="1610" yMax="1530">
      <contour>
        <pt x="95" y="78" on="1"/>
        <pt x="292" y="78" on="1"/>
        <pt x="293" y="1452" on="1"/>
        <pt x="95" y="1452" on="1"/>
        <pt x="95" y="1530" on="1"/>
        <pt x="759" y="1530" on="1"/>
        <pt x="759" y="1452" on="1"/>
        <pt x="562" y="1452" on="1"/>
        <pt x="562" y="78" on="1"/>
        <pt x="759" y="78" on="1"/>
        <pt x="759" y="0" on="1"/>
        <pt x="95" y="0" on="1"/>
      </contour>
      <contour>
        <pt x="1033" y="-290" on="0"/>
        <pt x="1102" y="-190" on="0"/>
        <pt x="1143" y="13" on="0"/>
        <pt x="1143" y="381" on="1"/>
        <pt x="1143" y="1452" on="1"/>
        <pt x="955" y="1452" on="1"/>
        <pt x="955" y="1530" on="1"/>
        <pt x="1610" y="1530" on="1"/>
        <pt x="1610" y="1452" on="1"/>
        <pt x="1413" y="1452" on="1"/>
        <pt x="1413" y="135" on="1"/>
        <pt x="1413" y="-81" on="0"/>
        <pt x="1186" y="-345" on="0"/>
        <pt x="1013" y="-391" on="1"/>
        <pt x="972" y="-318" on="1"/>
      </contour>
    </TTGlyph>
    <TTGlyph name="Iacute" xMin="95" yMin="0" xMax="804" yMax="2005">
      <contour>
        <pt x="95" y="78" on="1"/>
        <pt x="292" y="78" on="1"/>
        <pt x="293" y="1452" on="1"/>
        <pt x="95" y="1452" on="1"/>
        <pt x="95" y="1530" on="1"/>
        <pt x="759" y="1530" on="1"/>
        <pt x="759" y="1452" on="1"/>
        <pt x="562" y="1452" on="1"/>
        <pt x="562" y="78" on="1"/>
        <pt x="759" y="78" on="1"/>
        <pt x="759" y="0" on="1"/>
        <pt x="95" y="0" on="1"/>
      </contour>
      <contour>
        <pt x="301" y="1679" on="1"/>
        <pt x="590" y="1956" on="1"/>
        <pt x="644" y="2005" on="0"/>
        <pt x="681" y="2001" on="1"/>
        <pt x="744" y="1993" on="0"/>
        <pt x="804" y="1922" on="0"/>
        <pt x="797" y="1882" on="1"/>
        <pt x="784" y="1800" on="0"/>
        <pt x="718" y="1776" on="1"/>
        <pt x="323" y="1639" on="1"/>
      </contour>
    </TTGlyph>
    <TTGlyph name="Ibreve" xMin="95" yMin="0" xMax="759" yMax="2000">
      <contour>
        <pt x="95" y="78" on="1"/>
        <pt x="292" y="78" on="1"/>
        <pt x="293" y="1452" on="1"/>
        <pt x="95" y="1452" on="1"/>
        <pt x="95" y="1530" on="1"/>
        <pt x="759" y="1530" on="1"/>
        <pt x="759" y="1452" on="1"/>
        <pt x="562" y="1452" on="1"/>
        <pt x="562" y="78" on="1"/>
        <pt x="759" y="78" on="1"/>
        <pt x="759" y="0" on="1"/>
        <pt x="95" y="0" on="1"/>
      </contour>
      <contour>
        <pt x="742" y="2000" on="1"/>
        <pt x="747" y="1965" on="0"/>
        <pt x="747" y="1881" on="0"/>
        <pt x="702" y="1773" on="0"/>
        <pt x="660" y="1733" on="1"/>
        <pt x="568" y="1647" on="0"/>
        <pt x="421" y="1647" on="1"/>
        <pt x="274" y="1647" on="0"/>
        <pt x="95" y="1815" on="0"/>
        <pt x="95" y="1943" on="1"/>
        <pt x="95" y="1965" on="0"/>
        <pt x="100" y="2000" on="1"/>
        <pt x="157" y="2000" on="1"/>
        <pt x="229" y="1820" on="0"/>
        <pt x="421" y="1820" on="1"/>
        <pt x="613" y="1820" on="0"/>
        <pt x="685" y="2000" on="1"/>
      </contour>
    </TTGlyph>
    <TTGlyph name="Icircumflex" xMin="56" yMin="0" xMax="790" yMax="2000">
      <contour>
        <pt x="95" y="78" on="1"/>
        <pt x="292" y="78" on="1"/>
        <pt x="293" y="1452" on="1"/>
        <pt x="95" y="1452" on="1"/>
        <pt x="95" y="1530" on="1"/>
        <pt x="759" y="1530" on="1"/>
        <pt x="759" y="1452" on="1"/>
        <pt x="562" y="1452" on="1"/>
        <pt x="562" y="78" on="1"/>
        <pt x="759" y="78" on="1"/>
        <pt x="759" y="0" on="1"/>
        <pt x="95" y="0" on="1"/>
      </contour>
      <contour>
        <pt x="56" y="1646" on="1"/>
        <pt x="319" y="1936" on="1"/>
        <pt x="377" y="2000" on="0"/>
        <pt x="448" y="2000" on="0"/>
        <pt x="465" y="1992" on="1"/>
        <pt x="497" y="1979" on="0"/>
        <pt x="524" y="1950" on="1"/>
        <pt x="790" y="1647" on="1"/>
        <pt x="762" y="1610" on="1"/>
        <pt x="428" y="1794" on="1"/>
        <pt x="84" y="1610" on="1"/>
      </contour>
    </TTGlyph>
    <TTGlyph name="Idieresis" xMin="89" yMin="0" xMax="759" yMax="1946">
      <contour>
        <pt x="95" y="78" on="1"/>
        <pt x="292" y="78" on="1"/>
        <pt x="293" y="1452" on="1"/>
        <pt x="95" y="1452" on="1"/>
        <pt x="95" y="1530" on="1"/>
        <pt x="759" y="1530" on="1"/>
        <pt x="759" y="1452" on="1"/>
        <pt x="562" y="1452" on="1"/>
        <pt x="562" y="78" on="1"/>
        <pt x="759" y="78" on="1"/>
        <pt x="759" y="0" on="1"/>
        <pt x="95" y="0" on="1"/>
      </contour>
      <contour>
        <pt x="752" y="1834" on="1"/>
        <pt x="752" y="1740" on="0"/>
        <pt x="676" y="1708" on="1"/>
        <pt x="653" y="1699" on="0"/>
        <pt x="627" y="1699" on="1"/>
        <pt x="577" y="1699" on="0"/>
        <pt x="505" y="1771" on="0"/>
        <pt x="505" y="1809" on="1"/>
        <pt x="505" y="1874" on="0"/>
        <pt x="579" y="1946" on="0"/>
        <pt x="616" y="1946" on="1"/>
        <pt x="679" y="1946" on="0"/>
        <pt x="752" y="1873" on="0"/>
      </contour>
      <contour>
        <pt x="336" y="1834" on="1"/>
        <pt x="336" y="1740" on="0"/>
        <pt x="260" y="1708" on="1"/>
        <pt x="237" y="1699" on="0"/>
        <pt x="211" y="1699" on="1"/>
        <pt x="161" y="1699" on="0"/>
        <pt x="89" y="1771" on="0"/>
        <pt x="89" y="1809" on="1"/>
        <pt x="89" y="1874" on="0"/>
        <pt x="163" y="1946" on="0"/>
        <pt x="200" y="1946" on="1"/>
        <pt x="263" y="1946" on="0"/>
        <pt x="336" y="1873" on="0"/>
      </contour>
    </TTGlyph>
    <TTGlyph name="Idotaccent" xMin="95" yMin="0" xMax="759" yMax="1962">
      <contour>
        <pt x="95" y="78" on="1"/>
        <pt x="292" y="78" on="1"/>
        <pt x="293" y="1452" on="1"/>
        <pt x="95" y="1452" on="1"/>
        <pt x="95" y="1530" on="1"/>
        <pt x="759" y="1530" on="1"/>
        <pt x="759" y="1452" on="1"/>
        <pt x="562" y="1452" on="1"/>
        <pt x="562" y="78" on="1"/>
        <pt x="759" y="78" on="1"/>
        <pt x="759" y="0" on="1"/>
        <pt x="95" y="0" on="1"/>
      </contour>
      <contour>
        <pt x="482" y="1962" on="0"/>
        <pt x="560" y="1884" on="0"/>
        <pt x="560" y="1777" on="0"/>
        <pt x="483" y="1700" on="0"/>
        <pt x="374" y="1700" on="0"/>
        <pt x="298" y="1776" on="0"/>
        <pt x="298" y="1885" on="0"/>
        <pt x="326" y="1913" on="1"/>
        <pt x="375" y="1962" on="0"/>
      </contour>
    </TTGlyph>
    <TTGlyph name="Igrave" xMin="53" yMin="0" xMax="759" yMax="2003">
      <contour>
        <pt x="95" y="78" on="1"/>
        <pt x="292" y="78" on="1"/>
        <pt x="293" y="1452" on="1"/>
        <pt x="95" y="1452" on="1"/>
        <pt x="95" y="1530" on="1"/>
        <pt x="759" y="1530" on="1"/>
        <pt x="759" y="1452" on="1"/>
        <pt x="562" y="1452" on="1"/>
        <pt x="562" y="78" on="1"/>
        <pt x="759" y="78" on="1"/>
        <pt x="759" y="0" on="1"/>
        <pt x="95" y="0" on="1"/>
      </contour>
      <contour>
        <pt x="145" y="1774" on="1"/>
        <pt x="80" y="1796" on="0"/>
        <pt x="53" y="1917" on="0"/>
        <pt x="112" y="1991" on="0"/>
        <pt x="192" y="2003" on="0"/>
        <pt x="240" y="1982" on="0"/>
        <pt x="266" y="1959" on="1"/>
        <pt x="565" y="1692" on="1"/>
        <pt x="544" y="1651" on="1"/>
      </contour>
    </TTGlyph>
    <TTGlyph name="Imacron" xMin="95" yMin="0" xMax="759" yMax="1993">
      <contour>
        <pt x="95" y="78" on="1"/>
        <pt x="292" y="78" on="1"/>
        <pt x="293" y="1452" on="1"/>
        <pt x="95" y="1452" on="1"/>
        <pt x="95" y="1530" on="1"/>
        <pt x="759" y="1530" on="1"/>
        <pt x="759" y="1452" on="1"/>
        <pt x="562" y="1452" on="1"/>
        <pt x="562" y="78" on="1"/>
        <pt x="759" y="78" on="1"/>
        <pt x="759" y="0" on="1"/>
        <pt x="95" y="0" on="1"/>
      </contour>
      <contour>
        <pt x="101" y="1993" on="1"/>
        <pt x="758" y="1993" on="1"/>
        <pt x="758" y="1870" on="1"/>
        <pt x="101" y="1870" on="1"/>
      </contour>
    </TTGlyph>
    <TTGlyph name="Iogonek" xMin="74" yMin="-555" xMax="759" yMax="1530">
      <contour>
        <pt x="337" y="-555" on="1"/>
        <pt x="74" y="-555" on="0"/>
        <pt x="74" y="-352" on="1"/>
        <pt x="74" y="-252" on="0"/>
        <pt x="244" y="-63" on="0"/>
        <pt x="358" y="0" on="1"/>
        <pt x="95" y="0" on="1"/>
        <pt x="95" y="78" on="1"/>
        <pt x="292" y="78" on="1"/>
        <pt x="293" y="1452" on="1"/>
        <pt x="95" y="1452" on="1"/>
        <pt x="95" y="1530" on="1"/>
        <pt x="759" y="1530" on="1"/>
        <pt x="759" y="1452" on="1"/>
        <pt x="562" y="1452" on="1"/>
        <pt x="562" y="78" on="1"/>
        <pt x="759" y="78" on="1"/>
        <pt x="759" y="0" on="1"/>
        <pt x="526" y="0" on="1"/>
        <pt x="384" y="-97" on="0"/>
        <pt x="334" y="-215" on="1"/>
        <pt x="318" y="-253" on="0"/>
        <pt x="318" y="-288" on="1"/>
        <pt x="318" y="-356" on="0"/>
        <pt x="380" y="-439" on="0"/>
        <pt x="418" y="-439" on="1"/>
        <pt x="478" y="-439" on="0"/>
        <pt x="579" y="-375" on="0"/>
        <pt x="605" y="-338" on="1"/>
        <pt x="652" y="-390" on="1"/>
        <pt x="625" y="-435" on="0"/>
        <pt x="561" y="-476" on="1"/>
        <pt x="435" y="-555" on="0"/>
      </contour>
    </TTGlyph>
    <TTGlyph name="Itilde" xMin="53" yMin="0" xMax="793" yMax="1965">
      <contour>
        <pt x="95" y="78" on="1"/>
        <pt x="292" y="78" on="1"/>
        <pt x="293" y="1452" on="1"/>
        <pt x="95" y="1452" on="1"/>
        <pt x="95" y="1530" on="1"/>
        <pt x="759" y="1530" on="1"/>
        <pt x="759" y="1452" on="1"/>
        <pt x="562" y="1452" on="1"/>
        <pt x="562" y="78" on="1"/>
        <pt x="759" y="78" on="1"/>
        <pt x="759" y="0" on="1"/>
        <pt x="95" y="0" on="1"/>
      </contour>
      <contour>
        <pt x="53" y="1734" on="1"/>
        <pt x="109" y="1834" on="0"/>
        <pt x="148" y="1877" on="1"/>
        <pt x="228" y="1965" on="0"/>
        <pt x="367" y="1965" on="0"/>
        <pt x="436" y="1932" on="1"/>
        <pt x="539" y="1882" on="1"/>
        <pt x="573" y="1867" on="0"/>
        <pt x="646" y="1867" on="0"/>
        <pt x="711" y="1916" on="0"/>
        <pt x="747" y="1956" on="1"/>
        <pt x="793" y="1923" on="1"/>
        <pt x="737" y="1823" on="0"/>
        <pt x="698" y="1780" on="1"/>
        <pt x="618" y="1692" on="0"/>
        <pt x="537" y="1692" on="1"/>
        <pt x="481" y="1689" on="0"/>
        <pt x="347" y="1758" on="0"/>
        <pt x="275" y="1790" on="0"/>
        <pt x="200" y="1790" on="0"/>
        <pt x="135" y="1741" on="0"/>
        <pt x="99" y="1701" on="1"/>
      </contour>
    </TTGlyph>
    <TTGlyph name="J" xMin="101" yMin="-391" xMax="756" yMax="1530">
      <contour>
        <pt x="179" y="-290" on="0"/>
        <pt x="248" y="-190" on="0"/>
        <pt x="289" y="13" on="0"/>
        <pt x="289" y="381" on="1"/>
        <pt x="289" y="1452" on="1"/>
        <pt x="101" y="1452" on="1"/>
        <pt x="101" y="1530" on="1"/>
        <pt x="756" y="1530" on="1"/>
        <pt x="756" y="1452" on="1"/>
        <pt x="559" y="1452" on="1"/>
        <pt x="559" y="135" on="1"/>
        <pt x="559" y="-81" on="0"/>
        <pt x="332" y="-345" on="0"/>
        <pt x="159" y="-391" on="1"/>
        <pt x="118" y="-318" on="1"/>
      </contour>
    </TTGlyph>
    <TTGlyph name="Jcircumflex" xMin="49" yMin="-391" xMax="783" yMax="2000">
      <contour>
        <pt x="179" y="-290" on="0"/>
        <pt x="248" y="-190" on="0"/>
        <pt x="289" y="13" on="0"/>
        <pt x="289" y="381" on="1"/>
        <pt x="289" y="1452" on="1"/>
        <pt x="101" y="1452" on="1"/>
        <pt x="101" y="1530" on="1"/>
        <pt x="756" y="1530" on="1"/>
        <pt x="756" y="1452" on="1"/>
        <pt x="559" y="1452" on="1"/>
        <pt x="559" y="135" on="1"/>
        <pt x="559" y="-81" on="0"/>
        <pt x="332" y="-345" on="0"/>
        <pt x="159" y="-391" on="1"/>
        <pt x="118" y="-318" on="1"/>
      </contour>
      <contour>
        <pt x="49" y="1646" on="1"/>
        <pt x="312" y="1936" on="1"/>
        <pt x="370" y="2000" on="0"/>
        <pt x="441" y="2000" on="0"/>
        <pt x="458" y="1992" on="1"/>
        <pt x="490" y="1979" on="0"/>
        <pt x="517" y="1950" on="1"/>
        <pt x="783" y="1647" on="1"/>
        <pt x="755" y="1610" on="1"/>
        <pt x="421" y="1794" on="1"/>
        <pt x="77" y="1610" on="1"/>
      </contour>
    </TTGlyph>
    <TTGlyph name="K" xMin="141" yMin="0" xMax="1698" yMax="1530">
      <contour>
        <pt x="141" y="78" on="1"/>
        <pt x="331" y="78" on="1"/>
        <pt x="332" y="1452" on="1"/>
        <pt x="141" y="1452" on="1"/>
        <pt x="141" y="1530" on="1"/>
        <pt x="806" y="1530" on="1"/>
        <pt x="806" y="1452" on="1"/>
        <pt x="601" y="1452" on="1"/>
        <pt x="601" y="755" on="1"/>
        <pt x="1303" y="1452" on="1"/>
        <pt x="1154" y="1452" on="1"/>
        <pt x="1154" y="1530" on="1"/>
        <pt x="1601" y="1530" on="1"/>
        <pt x="1601" y="1452" on="1"/>
        <pt x="1426" y="1452" on="1"/>
        <pt x="878" y="908" on="1"/>
        <pt x="1556" y="78" on="1"/>
        <pt x="1698" y="78" on="1"/>
        <pt x="1698" y="0" on="1"/>
        <pt x="1068" y="0" on="1"/>
        <pt x="1068" y="78" on="1"/>
        <pt x="1215" y="78" on="1"/>
        <pt x="700" y="732" on="1"/>
        <pt x="601" y="634" on="1"/>
        <pt x="601" y="78" on="1"/>
        <pt x="806" y="78" on="1"/>
        <pt x="806" y="0" on="1"/>
        <pt x="141" y="0" on="1"/>
      </contour>
    </TTGlyph>
    <TTGlyph name="Kcommaaccent" xMin="141" yMin="-560" xMax="1698" yMax="1530">
      <contour>
        <pt x="141" y="78" on="1"/>
        <pt x="331" y="78" on="1"/>
        <pt x="332" y="1452" on="1"/>
        <pt x="141" y="1452" on="1"/>
        <pt x="141" y="1530" on="1"/>
        <pt x="806" y="1530" on="1"/>
        <pt x="806" y="1452" on="1"/>
        <pt x="601" y="1452" on="1"/>
        <pt x="601" y="755" on="1"/>
        <pt x="1303" y="1452" on="1"/>
        <pt x="1154" y="1452" on="1"/>
        <pt x="1154" y="1530" on="1"/>
        <pt x="1601" y="1530" on="1"/>
        <pt x="1601" y="1452" on="1"/>
        <pt x="1426" y="1452" on="1"/>
        <pt x="878" y="908" on="1"/>
        <pt x="1556" y="78" on="1"/>
        <pt x="1698" y="78" on="1"/>
        <pt x="1698" y="0" on="1"/>
        <pt x="1068" y="0" on="1"/>
        <pt x="1068" y="78" on="1"/>
        <pt x="1215" y="78" on="1"/>
        <pt x="700" y="732" on="1"/>
        <pt x="601" y="634" on="1"/>
        <pt x="601" y="78" on="1"/>
        <pt x="806" y="78" on="1"/>
        <pt x="806" y="0" on="1"/>
        <pt x="141" y="0" on="1"/>
      </contour>
      <contour>
        <pt x="735" y="-230" on="1"/>
        <pt x="735" y="-179" on="0"/>
        <pt x="815" y="-104" on="0"/>
        <pt x="962" y="-104" on="0"/>
        <pt x="1044" y="-203" on="0"/>
        <pt x="1044" y="-360" on="0"/>
        <pt x="922" y="-517" on="0"/>
        <pt x="836" y="-560" on="1"/>
        <pt x="788" y="-500" on="1"/>
        <pt x="840" y="-472" on="0"/>
        <pt x="876" y="-421" on="1"/>
        <pt x="888" y="-404" on="0"/>
        <pt x="894" y="-386" on="1"/>
        <pt x="890" y="-386" on="1"/>
        <pt x="735" y="-386" on="0"/>
      </contour>
    </TTGlyph>
    <TTGlyph name="L" xMin="71" yMin="0" xMax="1279" yMax="1530">
      <contour>
        <pt x="71" y="79" on="1"/>
        <pt x="285" y="78" on="1"/>
        <pt x="286" y="1453" on="1"/>
        <pt x="118" y="1453" on="1"/>
        <pt x="118" y="1530" on="1"/>
        <pt x="733" y="1530" on="1"/>
        <pt x="733" y="1453" on="1"/>
        <pt x="555" y="1453" on="1"/>
        <pt x="555" y="78" on="1"/>
        <pt x="861" y="78" on="1"/>
        <pt x="1124" y="78" on="0"/>
        <pt x="1180" y="321" on="1"/>
        <pt x="1196" y="391" on="0"/>
        <pt x="1201" y="465" on="1"/>
        <pt x="1279" y="465" on="1"/>
        <pt x="1279" y="0" on="1"/>
        <pt x="71" y="0" on="1"/>
      </contour>
    </TTGlyph>
    <TTGlyph name="Lacute" xMin="71" yMin="0" xMax="1279" yMax="2005">
      <contour>
        <pt x="71" y="79" on="1"/>
        <pt x="285" y="78" on="1"/>
        <pt x="286" y="1453" on="1"/>
        <pt x="118" y="1453" on="1"/>
        <pt x="118" y="1530" on="1"/>
        <pt x="733" y="1530" on="1"/>
        <pt x="733" y="1453" on="1"/>
        <pt x="555" y="1453" on="1"/>
        <pt x="555" y="78" on="1"/>
        <pt x="861" y="78" on="1"/>
        <pt x="1124" y="78" on="0"/>
        <pt x="1180" y="321" on="1"/>
        <pt x="1196" y="391" on="0"/>
        <pt x="1201" y="465" on="1"/>
        <pt x="1279" y="465" on="1"/>
        <pt x="1279" y="0" on="1"/>
        <pt x="71" y="0" on="1"/>
      </contour>
      <contour>
        <pt x="296" y="1679" on="1"/>
        <pt x="585" y="1956" on="1"/>
        <pt x="639" y="2005" on="0"/>
        <pt x="676" y="2001" on="1"/>
        <pt x="739" y="1993" on="0"/>
        <pt x="799" y="1922" on="0"/>
        <pt x="792" y="1882" on="1"/>
        <pt x="779" y="1800" on="0"/>
        <pt x="713" y="1776" on="1"/>
        <pt x="318" y="1639" on="1"/>
      </contour>
    </TTGlyph>
    <TTGlyph name="Lcaron" xMin="71" yMin="0" xMax="1279" yMax="1704">
      <contour>
        <pt x="860" y="1086" on="1"/>
        <pt x="966" y="1181" on="0"/>
        <pt x="988" y="1377" on="1"/>
        <pt x="983" y="1376" on="0"/>
        <pt x="979" y="1376" on="1"/>
        <pt x="970" y="1376" on="1"/>
        <pt x="902" y="1376" on="0"/>
        <pt x="815" y="1474" on="0"/>
        <pt x="815" y="1545" on="1"/>
        <pt x="815" y="1652" on="0"/>
        <pt x="906" y="1691" on="1"/>
        <pt x="936" y="1704" on="0"/>
        <pt x="977" y="1704" on="1"/>
        <pt x="1051" y="1704" on="0"/>
        <pt x="1126" y="1604" on="0"/>
        <pt x="1126" y="1532" on="1"/>
        <pt x="1126" y="1394" on="0"/>
        <pt x="1016" y="1118" on="0"/>
        <pt x="916" y="1039" on="1"/>
      </contour>
      <contour>
        <pt x="71" y="79" on="1"/>
        <pt x="285" y="78" on="1"/>
        <pt x="286" y="1453" on="1"/>
        <pt x="118" y="1453" on="1"/>
        <pt x="118" y="1530" on="1"/>
        <pt x="733" y="1530" on="1"/>
        <pt x="733" y="1453" on="1"/>
        <pt x="555" y="1453" on="1"/>
        <pt x="555" y="78" on="1"/>
        <pt x="861" y="78" on="1"/>
        <pt x="1124" y="78" on="0"/>
        <pt x="1180" y="321" on="1"/>
        <pt x="1196" y="391" on="0"/>
        <pt x="1201" y="465" on="1"/>
        <pt x="1279" y="465" on="1"/>
        <pt x="1279" y="0" on="1"/>
        <pt x="71" y="0" on="1"/>
      </contour>
    </TTGlyph>
    <TTGlyph name="Lcommaaccent" xMin="71" yMin="-560" xMax="1279" yMax="1530">
      <contour>
        <pt x="71" y="79" on="1"/>
        <pt x="285" y="78" on="1"/>
        <pt x="286" y="1453" on="1"/>
        <pt x="118" y="1453" on="1"/>
        <pt x="118" y="1530" on="1"/>
        <pt x="733" y="1530" on="1"/>
        <pt x="733" y="1453" on="1"/>
        <pt x="555" y="1453" on="1"/>
        <pt x="555" y="78" on="1"/>
        <pt x="861" y="78" on="1"/>
        <pt x="1124" y="78" on="0"/>
        <pt x="1180" y="321" on="1"/>
        <pt x="1196" y="391" on="0"/>
        <pt x="1201" y="465" on="1"/>
        <pt x="1279" y="465" on="1"/>
        <pt x="1279" y="0" on="1"/>
        <pt x="71" y="0" on="1"/>
      </contour>
      <contour>
        <pt x="577" y="-230" on="1"/>
        <pt x="577" y="-179" on="0"/>
        <pt x="657" y="-104" on="0"/>
        <pt x="804" y="-104" on="0"/>
        <pt x="886" y="-203" on="0"/>
        <pt x="886" y="-360" on="0"/>
        <pt x="764" y="-517" on="0"/>
        <pt x="678" y="-560" on="1"/>
        <pt x="630" y="-500" on="1"/>
        <pt x="682" y="-472" on="0"/>
        <pt x="718" y="-421" on="1"/>
        <pt x="730" y="-404" on="0"/>
        <pt x="736" y="-386" on="1"/>
        <pt x="732" y="-386" on="1"/>
        <pt x="577" y="-386" on="0"/>
      </contour>
    </TTGlyph>
    <TTGlyph name="Ldot" xMin="71" yMin="0" xMax="1368" yMax="1530">
      <contour>
        <pt x="1290" y="975" on="0"/>
        <pt x="1368" y="897" on="0"/>
        <pt x="1368" y="790" on="0"/>
        <pt x="1291" y="713" on="0"/>
        <pt x="1182" y="713" on="0"/>
        <pt x="1106" y="789" on="0"/>
        <pt x="1106" y="898" on="0"/>
        <pt x="1134" y="926" on="1"/>
        <pt x="1183" y="975" on="0"/>
      </contour>
      <contour>
        <pt x="71" y="79" on="1"/>
        <pt x="285" y="78" on="1"/>
        <pt x="286" y="1453" on="1"/>
        <pt x="118" y="1453" on="1"/>
        <pt x="118" y="1530" on="1"/>
        <pt x="733" y="1530" on="1"/>
        <pt x="733" y="1453" on="1"/>
        <pt x="555" y="1453" on="1"/>
        <pt x="555" y="78" on="1"/>
        <pt x="861" y="78" on="1"/>
        <pt x="1124" y="78" on="0"/>
        <pt x="1180" y="321" on="1"/>
        <pt x="1196" y="391" on="0"/>
        <pt x="1201" y="465" on="1"/>
        <pt x="1279" y="465" on="1"/>
        <pt x="1279" y="0" on="1"/>
        <pt x="71" y="0" on="1"/>
      </contour>
    </TTGlyph>
    <TTGlyph name="Lslash" xMin="64" yMin="0" xMax="1279" yMax="1530">
      <contour>
        <pt x="71" y="79" on="1"/>
        <pt x="285" y="78" on="1"/>
        <pt x="285" y="647" on="1"/>
        <pt x="97" y="551" on="1"/>
        <pt x="64" y="621" on="1"/>
        <pt x="285" y="734" on="1"/>
        <pt x="286" y="1453" on="1"/>
        <pt x="118" y="1453" on="1"/>
        <pt x="118" y="1530" on="1"/>
        <pt x="733" y="1530" on="1"/>
        <pt x="733" y="1453" on="1"/>
        <pt x="555" y="1453" on="1"/>
        <pt x="555" y="872" on="1"/>
        <pt x="986" y="1093" on="1"/>
        <pt x="1019" y="1023" on="1"/>
        <pt x="555" y="785" on="1"/>
        <pt x="555" y="78" on="1"/>
        <pt x="861" y="78" on="1"/>
        <pt x="1124" y="78" on="0"/>
        <pt x="1180" y="321" on="1"/>
        <pt x="1196" y="391" on="0"/>
        <pt x="1201" y="465" on="1"/>
        <pt x="1279" y="465" on="1"/>
        <pt x="1279" y="0" on="1"/>
        <pt x="71" y="0" on="1"/>
      </contour>
    </TTGlyph>
    <TTGlyph name="M" xMin="60" yMin="0" xMax="2004" yMax="1530">
      <contour>
        <pt x="62" y="78" on="1"/>
        <pt x="246" y="78" on="1"/>
        <pt x="246" y="1452" on="1"/>
        <pt x="60" y="1452" on="1"/>
        <pt x="60" y="1530" on="1"/>
        <pt x="582" y="1530" on="1"/>
        <pt x="1033" y="417" on="1"/>
        <pt x="1481" y="1530" on="1"/>
        <pt x="1986" y="1530" on="1"/>
        <pt x="1986" y="1452" on="1"/>
        <pt x="1791" y="1452" on="1"/>
        <pt x="1791" y="78" on="1"/>
        <pt x="2004" y="78" on="1"/>
        <pt x="2004" y="0" on="1"/>
        <pt x="1339" y="0" on="1"/>
        <pt x="1339" y="78" on="1"/>
        <pt x="1521" y="78" on="1"/>
        <pt x="1522" y="1409" on="1"/>
        <pt x="966" y="21" on="1"/>
        <pt x="926" y="21" on="1"/>
        <pt x="337" y="1416" on="1"/>
        <pt x="337" y="78" on="1"/>
        <pt x="518" y="78" on="1"/>
        <pt x="518" y="0" on="1"/>
        <pt x="62" y="0" on="1"/>
      </contour>
    </TTGlyph>
    <TTGlyph name="N" xMin="93" yMin="0" xMax="1637" yMax="1530">
      <contour>
        <pt x="93" y="78" on="1"/>
        <pt x="267" y="78" on="1"/>
        <pt x="267" y="1452" on="1"/>
        <pt x="93" y="1452" on="1"/>
        <pt x="93" y="1530" on="1"/>
        <pt x="546" y="1530" on="1"/>
        <pt x="1356" y="325" on="1"/>
        <pt x="1356" y="1452" on="1"/>
        <pt x="1162" y="1452" on="1"/>
        <pt x="1162" y="1530" on="1"/>
        <pt x="1637" y="1530" on="1"/>
        <pt x="1637" y="1452" on="1"/>
        <pt x="1454" y="1452" on="1"/>
        <pt x="1454" y="0" on="1"/>
        <pt x="1268" y="0" on="1"/>
        <pt x="365" y="1327" on="1"/>
        <pt x="365" y="78" on="1"/>
        <pt x="568" y="78" on="1"/>
        <pt x="568" y="0" on="1"/>
        <pt x="93" y="0" on="1"/>
      </contour>
    </TTGlyph>
    <TTGlyph name="Nacute" xMin="93" yMin="0" xMax="1637" yMax="2005">
      <contour>
        <pt x="93" y="78" on="1"/>
        <pt x="267" y="78" on="1"/>
        <pt x="267" y="1452" on="1"/>
        <pt x="93" y="1452" on="1"/>
        <pt x="93" y="1530" on="1"/>
        <pt x="546" y="1530" on="1"/>
        <pt x="1356" y="325" on="1"/>
        <pt x="1356" y="1452" on="1"/>
        <pt x="1162" y="1452" on="1"/>
        <pt x="1162" y="1530" on="1"/>
        <pt x="1637" y="1530" on="1"/>
        <pt x="1637" y="1452" on="1"/>
        <pt x="1454" y="1452" on="1"/>
        <pt x="1454" y="0" on="1"/>
        <pt x="1268" y="0" on="1"/>
        <pt x="365" y="1327" on="1"/>
        <pt x="365" y="78" on="1"/>
        <pt x="568" y="78" on="1"/>
        <pt x="568" y="0" on="1"/>
        <pt x="93" y="0" on="1"/>
      </contour>
      <contour>
        <pt x="774" y="1679" on="1"/>
        <pt x="1063" y="1956" on="1"/>
        <pt x="1117" y="2005" on="0"/>
        <pt x="1154" y="2001" on="1"/>
        <pt x="1217" y="1993" on="0"/>
        <pt x="1277" y="1922" on="0"/>
        <pt x="1270" y="1882" on="1"/>
        <pt x="1257" y="1800" on="0"/>
        <pt x="1191" y="1776" on="1"/>
        <pt x="796" y="1639" on="1"/>
      </contour>
    </TTGlyph>
    <TTGlyph name="Ncaron" xMin="93" yMin="0" xMax="1637" yMax="2000">
      <contour>
        <pt x="93" y="78" on="1"/>
        <pt x="267" y="78" on="1"/>
        <pt x="267" y="1452" on="1"/>
        <pt x="93" y="1452" on="1"/>
        <pt x="93" y="1530" on="1"/>
        <pt x="546" y="1530" on="1"/>
        <pt x="1356" y="325" on="1"/>
        <pt x="1356" y="1452" on="1"/>
        <pt x="1162" y="1452" on="1"/>
        <pt x="1162" y="1530" on="1"/>
        <pt x="1637" y="1530" on="1"/>
        <pt x="1637" y="1452" on="1"/>
        <pt x="1454" y="1452" on="1"/>
        <pt x="1454" y="0" on="1"/>
        <pt x="1268" y="0" on="1"/>
        <pt x="365" y="1327" on="1"/>
        <pt x="365" y="78" on="1"/>
        <pt x="568" y="78" on="1"/>
        <pt x="568" y="0" on="1"/>
        <pt x="93" y="0" on="1"/>
      </contour>
      <contour>
        <pt x="793" y="1694" on="1"/>
        <pt x="534" y="1964" on="1"/>
        <pt x="562" y="2000" on="1"/>
        <pt x="902" y="1836" on="1"/>
        <pt x="1240" y="2000" on="1"/>
        <pt x="1268" y="1963" on="1"/>
        <pt x="1018" y="1701" on="1"/>
        <pt x="975" y="1653" on="0"/>
        <pt x="922" y="1630" on="0"/>
        <pt x="851" y="1630" on="0"/>
      </contour>
    </TTGlyph>
    <TTGlyph name="Ncommaaccent" xMin="93" yMin="-560" xMax="1637" yMax="1530">
      <contour>
        <pt x="93" y="78" on="1"/>
        <pt x="267" y="78" on="1"/>
        <pt x="267" y="1452" on="1"/>
        <pt x="93" y="1452" on="1"/>
        <pt x="93" y="1530" on="1"/>
        <pt x="546" y="1530" on="1"/>
        <pt x="1356" y="325" on="1"/>
        <pt x="1356" y="1452" on="1"/>
        <pt x="1162" y="1452" on="1"/>
        <pt x="1162" y="1530" on="1"/>
        <pt x="1637" y="1530" on="1"/>
        <pt x="1637" y="1452" on="1"/>
        <pt x="1454" y="1452" on="1"/>
        <pt x="1454" y="0" on="1"/>
        <pt x="1268" y="0" on="1"/>
        <pt x="365" y="1327" on="1"/>
        <pt x="365" y="78" on="1"/>
        <pt x="568" y="78" on="1"/>
        <pt x="568" y="0" on="1"/>
        <pt x="93" y="0" on="1"/>
      </contour>
      <contour>
        <pt x="701" y="-230" on="1"/>
        <pt x="701" y="-179" on="0"/>
        <pt x="781" y="-104" on="0"/>
        <pt x="928" y="-104" on="0"/>
        <pt x="1010" y="-203" on="0"/>
        <pt x="1010" y="-360" on="0"/>
        <pt x="888" y="-517" on="0"/>
        <pt x="802" y="-560" on="1"/>
        <pt x="754" y="-500" on="1"/>
        <pt x="806" y="-472" on="0"/>
        <pt x="842" y="-421" on="1"/>
        <pt x="854" y="-404" on="0"/>
        <pt x="860" y="-386" on="1"/>
        <pt x="856" y="-386" on="1"/>
        <pt x="701" y="-386" on="0"/>
      </contour>
    </TTGlyph>
    <TTGlyph name="Ntilde" xMin="93" yMin="0" xMax="1637" yMax="1965">
      <contour>
        <pt x="93" y="78" on="1"/>
        <pt x="267" y="78" on="1"/>
        <pt x="267" y="1452" on="1"/>
        <pt x="93" y="1452" on="1"/>
        <pt x="93" y="1530" on="1"/>
        <pt x="546" y="1530" on="1"/>
        <pt x="1356" y="325" on="1"/>
        <pt x="1356" y="1452" on="1"/>
        <pt x="1162" y="1452" on="1"/>
        <pt x="1162" y="1530" on="1"/>
        <pt x="1637" y="1530" on="1"/>
        <pt x="1637" y="1452" on="1"/>
        <pt x="1454" y="1452" on="1"/>
        <pt x="1454" y="0" on="1"/>
        <pt x="1268" y="0" on="1"/>
        <pt x="365" y="1327" on="1"/>
        <pt x="365" y="78" on="1"/>
        <pt x="568" y="78" on="1"/>
        <pt x="568" y="0" on="1"/>
        <pt x="93" y="0" on="1"/>
      </contour>
      <contour>
        <pt x="526" y="1734" on="1"/>
        <pt x="582" y="1834" on="0"/>
        <pt x="621" y="1877" on="1"/>
        <pt x="701" y="1965" on="0"/>
        <pt x="840" y="1965" on="0"/>
        <pt x="909" y="1932" on="1"/>
        <pt x="1012" y="1882" on="1"/>
        <pt x="1046" y="1867" on="0"/>
        <pt x="1119" y="1867" on="0"/>
        <pt x="1184" y="1916" on="0"/>
        <pt x="1220" y="1956" on="1"/>
        <pt x="1266" y="1923" on="1"/>
        <pt x="1210" y="1823" on="0"/>
        <pt x="1171" y="1780" on="1"/>
        <pt x="1091" y="1692" on="0"/>
        <pt x="1010" y="1692" on="1"/>
        <pt x="954" y="1689" on="0"/>
        <pt x="820" y="1758" on="0"/>
        <pt x="748" y="1790" on="0"/>
        <pt x="673" y="1790" on="0"/>
        <pt x="608" y="1741" on="0"/>
        <pt x="572" y="1701" on="1"/>
      </contour>
    </TTGlyph>
    <TTGlyph name="O" xMin="98" yMin="-20" xMax="1613" yMax="1550">
      <contour>
        <pt x="141" y="467" on="0"/>
        <pt x="98" y="664" on="0"/>
        <pt x="98" y="865" on="0"/>
        <pt x="141" y="1058" on="0"/>
        <pt x="183" y="1145" on="1"/>
        <pt x="271" y="1328" on="0"/>
        <pt x="614" y="1550" on="0"/>
        <pt x="855" y="1550" on="1"/>
        <pt x="1221" y="1550" on="0"/>
        <pt x="1428" y="1306" on="1"/>
        <pt x="1613" y="1086" on="0"/>
        <pt x="1613" y="438" on="0"/>
        <pt x="1426" y="218" on="1"/>
        <pt x="1298" y="68" on="0"/>
        <pt x="1089" y="10" on="1"/>
        <pt x="983" y="-20" on="0"/>
        <pt x="730" y="-20" on="0"/>
        <pt x="520" y="39" on="0"/>
        <pt x="352" y="145" on="0"/>
        <pt x="225" y="292" on="0"/>
      </contour>
      <contour>
        <pt x="1216" y="296" on="1"/>
        <pt x="1254" y="365" on="0"/>
        <pt x="1325" y="597" on="0"/>
        <pt x="1325" y="852" on="0"/>
        <pt x="1302" y="1023" on="0"/>
        <pt x="1278" y="1100" on="1"/>
        <pt x="1225" y="1266" on="0"/>
        <pt x="1014" y="1467" on="0"/>
        <pt x="855" y="1467" on="1"/>
        <pt x="607" y="1467" on="0"/>
        <pt x="486" y="1245" on="1"/>
        <pt x="383" y="1054" on="0"/>
        <pt x="390" y="487" on="0"/>
        <pt x="490" y="296" on="1"/>
        <pt x="614" y="63" on="0"/>
        <pt x="1088" y="63" on="0"/>
      </contour>
    </TTGlyph>
    <TTGlyph name="OE" xMin="125" yMin="-20" xMax="2236" yMax="1550">
      <contour>
        <pt x="227" y="317" on="0"/>
        <pt x="125" y="604" on="0"/>
        <pt x="125" y="872" on="0"/>
        <pt x="170" y="1068" on="0"/>
        <pt x="214" y="1155" on="1"/>
        <pt x="307" y="1336" on="0"/>
        <pt x="650" y="1550" on="0"/>
        <pt x="882" y="1550" on="1"/>
        <pt x="980" y="1550" on="0"/>
        <pt x="1071" y="1530" on="1"/>
        <pt x="2213" y="1530" on="1"/>
        <pt x="2213" y="1094" on="1"/>
        <pt x="2135" y="1094" on="1"/>
        <pt x="2130" y="1177" on="0"/>
        <pt x="2112" y="1306" on="0"/>
        <pt x="2084" y="1351" on="1"/>
        <pt x="2025" y="1443" on="0"/>
        <pt x="1847" y="1452" on="1"/>
        <pt x="1379" y="1452" on="1"/>
        <pt x="1379" y="824" on="1"/>
        <pt x="1640" y="824" on="1"/>
        <pt x="1725" y="824" on="0"/>
        <pt x="1816" y="879" on="0"/>
        <pt x="1826" y="948" on="1"/>
        <pt x="1828" y="968" on="0"/>
        <pt x="1831" y="1013" on="0"/>
        <pt x="1833" y="1035" on="1"/>
        <pt x="1917" y="1035" on="1"/>
        <pt x="1917" y="519" on="1"/>
        <pt x="1833" y="519" on="1"/>
        <pt x="1831" y="542" on="0"/>
        <pt x="1828" y="602" on="0"/>
        <pt x="1826" y="622" on="1"/>
        <pt x="1816" y="691" on="0"/>
        <pt x="1723" y="746" on="0"/>
        <pt x="1640" y="746" on="1"/>
        <pt x="1379" y="746" on="1"/>
        <pt x="1379" y="78" on="1"/>
        <pt x="1818" y="78" on="1"/>
        <pt x="2081" y="78" on="0"/>
        <pt x="2137" y="321" on="1"/>
        <pt x="2153" y="391" on="0"/>
        <pt x="2158" y="465" on="1"/>
        <pt x="2236" y="465" on="1"/>
        <pt x="2236" y="0" on="1"/>
        <pt x="1075" y="0" on="1"/>
        <pt x="983" y="-20" on="0"/>
        <pt x="882" y="-20" on="1"/>
        <pt x="531" y="-20" on="0"/>
        <pt x="324" y="210" on="1"/>
      </contour>
      <contour>
        <pt x="1110" y="1387" on="1"/>
        <pt x="1011" y="1450" on="0"/>
        <pt x="791" y="1450" on="0"/>
        <pt x="651" y="1398" on="0"/>
        <pt x="598" y="1352" on="1"/>
        <pt x="499" y="1265" on="0"/>
        <pt x="452" y="1103" on="1"/>
        <pt x="390" y="888" on="0"/>
        <pt x="424" y="602" on="1"/>
        <pt x="471" y="207" on="0"/>
        <pt x="722" y="106" on="1"/>
        <pt x="792" y="78" on="0"/>
        <pt x="871" y="78" on="1"/>
        <pt x="1012" y="78" on="0"/>
        <pt x="1109" y="144" on="1"/>
      </contour>
    </TTGlyph>
    <TTGlyph name="Oacute" xMin="98" yMin="-20" xMax="1613" yMax="2005">
      <contour>
        <pt x="141" y="467" on="0"/>
        <pt x="98" y="664" on="0"/>
        <pt x="98" y="865" on="0"/>
        <pt x="141" y="1058" on="0"/>
        <pt x="183" y="1145" on="1"/>
        <pt x="271" y="1328" on="0"/>
        <pt x="614" y="1550" on="0"/>
        <pt x="855" y="1550" on="1"/>
        <pt x="1221" y="1550" on="0"/>
        <pt x="1428" y="1306" on="1"/>
        <pt x="1613" y="1086" on="0"/>
        <pt x="1613" y="438" on="0"/>
        <pt x="1426" y="218" on="1"/>
        <pt x="1298" y="68" on="0"/>
        <pt x="1089" y="10" on="1"/>
        <pt x="983" y="-20" on="0"/>
        <pt x="730" y="-20" on="0"/>
        <pt x="520" y="39" on="0"/>
        <pt x="352" y="145" on="0"/>
        <pt x="225" y="292" on="0"/>
      </contour>
      <contour>
        <pt x="1216" y="296" on="1"/>
        <pt x="1254" y="365" on="0"/>
        <pt x="1325" y="597" on="0"/>
        <pt x="1325" y="852" on="0"/>
        <pt x="1302" y="1023" on="0"/>
        <pt x="1278" y="1100" on="1"/>
        <pt x="1225" y="1266" on="0"/>
        <pt x="1014" y="1467" on="0"/>
        <pt x="855" y="1467" on="1"/>
        <pt x="607" y="1467" on="0"/>
        <pt x="486" y="1245" on="1"/>
        <pt x="383" y="1054" on="0"/>
        <pt x="390" y="487" on="0"/>
        <pt x="490" y="296" on="1"/>
        <pt x="614" y="63" on="0"/>
        <pt x="1088" y="63" on="0"/>
      </contour>
      <contour>
        <pt x="727" y="1679" on="1"/>
        <pt x="1016" y="1956" on="1"/>
        <pt x="1070" y="2005" on="0"/>
        <pt x="1107" y="2001" on="1"/>
        <pt x="1170" y="1993" on="0"/>
        <pt x="1230" y="1922" on="0"/>
        <pt x="1223" y="1882" on="1"/>
        <pt x="1210" y="1800" on="0"/>
        <pt x="1144" y="1776" on="1"/>
        <pt x="749" y="1639" on="1"/>
      </contour>
    </TTGlyph>
    <TTGlyph name="Obreve" xMin="98" yMin="-20" xMax="1613" yMax="2000">
      <contour>
        <pt x="141" y="467" on="0"/>
        <pt x="98" y="664" on="0"/>
        <pt x="98" y="865" on="0"/>
        <pt x="141" y="1058" on="0"/>
        <pt x="183" y="1145" on="1"/>
        <pt x="271" y="1328" on="0"/>
        <pt x="614" y="1550" on="0"/>
        <pt x="855" y="1550" on="1"/>
        <pt x="1221" y="1550" on="0"/>
        <pt x="1428" y="1306" on="1"/>
        <pt x="1613" y="1086" on="0"/>
        <pt x="1613" y="438" on="0"/>
        <pt x="1426" y="218" on="1"/>
        <pt x="1298" y="68" on="0"/>
        <pt x="1089" y="10" on="1"/>
        <pt x="983" y="-20" on="0"/>
        <pt x="730" y="-20" on="0"/>
        <pt x="520" y="39" on="0"/>
        <pt x="352" y="145" on="0"/>
        <pt x="225" y="292" on="0"/>
      </contour>
      <contour>
        <pt x="1216" y="296" on="1"/>
        <pt x="1254" y="365" on="0"/>
        <pt x="1325" y="597" on="0"/>
        <pt x="1325" y="852" on="0"/>
        <pt x="1302" y="1023" on="0"/>
        <pt x="1278" y="1100" on="1"/>
        <pt x="1225" y="1266" on="0"/>
        <pt x="1014" y="1467" on="0"/>
        <pt x="855" y="1467" on="1"/>
        <pt x="607" y="1467" on="0"/>
        <pt x="486" y="1245" on="1"/>
        <pt x="383" y="1054" on="0"/>
        <pt x="390" y="487" on="0"/>
        <pt x="490" y="296" on="1"/>
        <pt x="614" y="63" on="0"/>
        <pt x="1088" y="63" on="0"/>
      </contour>
      <contour>
        <pt x="1169" y="2000" on="1"/>
        <pt x="1174" y="1965" on="0"/>
        <pt x="1174" y="1881" on="0"/>
        <pt x="1129" y="1773" on="0"/>
        <pt x="1087" y="1733" on="1"/>
        <pt x="995" y="1647" on="0"/>
        <pt x="848" y="1647" on="1"/>
        <pt x="701" y="1647" on="0"/>
        <pt x="522" y="1815" on="0"/>
        <pt x="522" y="1943" on="1"/>
        <pt x="522" y="1965" on="0"/>
        <pt x="527" y="2000" on="1"/>
        <pt x="584" y="2000" on="1"/>
        <pt x="656" y="1820" on="0"/>
        <pt x="848" y="1820" on="1"/>
        <pt x="1040" y="1820" on="0"/>
        <pt x="1112" y="2000" on="1"/>
      </contour>
    </TTGlyph>
    <TTGlyph name="Ocircumflex" xMin="98" yMin="-20" xMax="1613" yMax="2000">
      <contour>
        <pt x="141" y="467" on="0"/>
        <pt x="98" y="664" on="0"/>
        <pt x="98" y="865" on="0"/>
        <pt x="141" y="1058" on="0"/>
        <pt x="183" y="1145" on="1"/>
        <pt x="271" y="1328" on="0"/>
        <pt x="614" y="1550" on="0"/>
        <pt x="855" y="1550" on="1"/>
        <pt x="1221" y="1550" on="0"/>
        <pt x="1428" y="1306" on="1"/>
        <pt x="1613" y="1086" on="0"/>
        <pt x="1613" y="438" on="0"/>
        <pt x="1426" y="218" on="1"/>
        <pt x="1298" y="68" on="0"/>
        <pt x="1089" y="10" on="1"/>
        <pt x="983" y="-20" on="0"/>
        <pt x="730" y="-20" on="0"/>
        <pt x="520" y="39" on="0"/>
        <pt x="352" y="145" on="0"/>
        <pt x="225" y="292" on="0"/>
      </contour>
      <contour>
        <pt x="1216" y="296" on="1"/>
        <pt x="1254" y="365" on="0"/>
        <pt x="1325" y="597" on="0"/>
        <pt x="1325" y="852" on="0"/>
        <pt x="1302" y="1023" on="0"/>
        <pt x="1278" y="1100" on="1"/>
        <pt x="1225" y="1266" on="0"/>
        <pt x="1014" y="1467" on="0"/>
        <pt x="855" y="1467" on="1"/>
        <pt x="607" y="1467" on="0"/>
        <pt x="486" y="1245" on="1"/>
        <pt x="383" y="1054" on="0"/>
        <pt x="390" y="487" on="0"/>
        <pt x="490" y="296" on="1"/>
        <pt x="614" y="63" on="0"/>
        <pt x="1088" y="63" on="0"/>
      </contour>
      <contour>
        <pt x="482" y="1646" on="1"/>
        <pt x="745" y="1936" on="1"/>
        <pt x="803" y="2000" on="0"/>
        <pt x="874" y="2000" on="0"/>
        <pt x="891" y="1992" on="1"/>
        <pt x="923" y="1979" on="0"/>
        <pt x="950" y="1950" on="1"/>
        <pt x="1216" y="1647" on="1"/>
        <pt x="1188" y="1610" on="1"/>
        <pt x="854" y="1794" on="1"/>
        <pt x="510" y="1610" on="1"/>
      </contour>
    </TTGlyph>
    <TTGlyph name="Odieresis" xMin="98" yMin="-20" xMax="1613" yMax="1946">
      <contour>
        <pt x="141" y="467" on="0"/>
        <pt x="98" y="664" on="0"/>
        <pt x="98" y="865" on="0"/>
        <pt x="141" y="1058" on="0"/>
        <pt x="183" y="1145" on="1"/>
        <pt x="271" y="1328" on="0"/>
        <pt x="614" y="1550" on="0"/>
        <pt x="855" y="1550" on="1"/>
        <pt x="1221" y="1550" on="0"/>
        <pt x="1428" y="1306" on="1"/>
        <pt x="1613" y="1086" on="0"/>
        <pt x="1613" y="438" on="0"/>
        <pt x="1426" y="218" on="1"/>
        <pt x="1298" y="68" on="0"/>
        <pt x="1089" y="10" on="1"/>
        <pt x="983" y="-20" on="0"/>
        <pt x="730" y="-20" on="0"/>
        <pt x="520" y="39" on="0"/>
        <pt x="352" y="145" on="0"/>
        <pt x="225" y="292" on="0"/>
      </contour>
      <contour>
        <pt x="1216" y="296" on="1"/>
        <pt x="1254" y="365" on="0"/>
        <pt x="1325" y="597" on="0"/>
        <pt x="1325" y="852" on="0"/>
        <pt x="1302" y="1023" on="0"/>
        <pt x="1278" y="1100" on="1"/>
        <pt x="1225" y="1266" on="0"/>
        <pt x="1014" y="1467" on="0"/>
        <pt x="855" y="1467" on="1"/>
        <pt x="607" y="1467" on="0"/>
        <pt x="486" y="1245" on="1"/>
        <pt x="383" y="1054" on="0"/>
        <pt x="390" y="487" on="0"/>
        <pt x="490" y="296" on="1"/>
        <pt x="614" y="63" on="0"/>
        <pt x="1088" y="63" on="0"/>
      </contour>
      <contour>
        <pt x="1178" y="1834" on="1"/>
        <pt x="1178" y="1740" on="0"/>
        <pt x="1102" y="1708" on="1"/>
        <pt x="1079" y="1699" on="0"/>
        <pt x="1053" y="1699" on="1"/>
        <pt x="1003" y="1699" on="0"/>
        <pt x="931" y="1771" on="0"/>
        <pt x="931" y="1809" on="1"/>
        <pt x="931" y="1874" on="0"/>
        <pt x="1005" y="1946" on="0"/>
        <pt x="1042" y="1946" on="1"/>
        <pt x="1105" y="1946" on="0"/>
        <pt x="1178" y="1873" on="0"/>
      </contour>
      <contour>
        <pt x="762" y="1834" on="1"/>
        <pt x="762" y="1740" on="0"/>
        <pt x="686" y="1708" on="1"/>
        <pt x="663" y="1699" on="0"/>
        <pt x="637" y="1699" on="1"/>
        <pt x="587" y="1699" on="0"/>
        <pt x="515" y="1771" on="0"/>
        <pt x="515" y="1809" on="1"/>
        <pt x="515" y="1874" on="0"/>
        <pt x="589" y="1946" on="0"/>
        <pt x="626" y="1946" on="1"/>
        <pt x="689" y="1946" on="0"/>
        <pt x="762" y="1873" on="0"/>
      </contour>
    </TTGlyph>
    <TTGlyph name="Ograve" xMin="98" yMin="-20" xMax="1613" yMax="2003">
      <contour>
        <pt x="141" y="467" on="0"/>
        <pt x="98" y="664" on="0"/>
        <pt x="98" y="865" on="0"/>
        <pt x="141" y="1058" on="0"/>
        <pt x="183" y="1145" on="1"/>
        <pt x="271" y="1328" on="0"/>
        <pt x="614" y="1550" on="0"/>
        <pt x="855" y="1550" on="1"/>
        <pt x="1221" y="1550" on="0"/>
        <pt x="1428" y="1306" on="1"/>
        <pt x="1613" y="1086" on="0"/>
        <pt x="1613" y="438" on="0"/>
        <pt x="1426" y="218" on="1"/>
        <pt x="1298" y="68" on="0"/>
        <pt x="1089" y="10" on="1"/>
        <pt x="983" y="-20" on="0"/>
        <pt x="730" y="-20" on="0"/>
        <pt x="520" y="39" on="0"/>
        <pt x="352" y="145" on="0"/>
        <pt x="225" y="292" on="0"/>
      </contour>
      <contour>
        <pt x="1216" y="296" on="1"/>
        <pt x="1254" y="365" on="0"/>
        <pt x="1325" y="597" on="0"/>
        <pt x="1325" y="852" on="0"/>
        <pt x="1302" y="1023" on="0"/>
        <pt x="1278" y="1100" on="1"/>
        <pt x="1225" y="1266" on="0"/>
        <pt x="1014" y="1467" on="0"/>
        <pt x="855" y="1467" on="1"/>
        <pt x="607" y="1467" on="0"/>
        <pt x="486" y="1245" on="1"/>
        <pt x="383" y="1054" on="0"/>
        <pt x="390" y="487" on="0"/>
        <pt x="490" y="296" on="1"/>
        <pt x="614" y="63" on="0"/>
        <pt x="1088" y="63" on="0"/>
      </contour>
      <contour>
        <pt x="571" y="1774" on="1"/>
        <pt x="506" y="1796" on="0"/>
        <pt x="479" y="1917" on="0"/>
        <pt x="538" y="1991" on="0"/>
        <pt x="618" y="2003" on="0"/>
        <pt x="666" y="1982" on="0"/>
        <pt x="692" y="1959" on="1"/>
        <pt x="991" y="1692" on="1"/>
        <pt x="970" y="1651" on="1"/>
      </contour>
    </TTGlyph>
    <TTGlyph name="Ohungarumlaut" xMin="98" yMin="-20" xMax="1613" yMax="2027">
      <contour>
        <pt x="141" y="467" on="0"/>
        <pt x="98" y="664" on="0"/>
        <pt x="98" y="865" on="0"/>
        <pt x="141" y="1058" on="0"/>
        <pt x="183" y="1145" on="1"/>
        <pt x="271" y="1328" on="0"/>
        <pt x="614" y="1550" on="0"/>
        <pt x="855" y="1550" on="1"/>
        <pt x="1221" y="1550" on="0"/>
        <pt x="1428" y="1306" on="1"/>
        <pt x="1613" y="1086" on="0"/>
        <pt x="1613" y="438" on="0"/>
        <pt x="1426" y="218" on="1"/>
        <pt x="1298" y="68" on="0"/>
        <pt x="1089" y="10" on="1"/>
        <pt x="983" y="-20" on="0"/>
        <pt x="730" y="-20" on="0"/>
        <pt x="520" y="39" on="0"/>
        <pt x="352" y="145" on="0"/>
        <pt x="225" y="292" on="0"/>
      </contour>
      <contour>
        <pt x="1216" y="296" on="1"/>
        <pt x="1254" y="365" on="0"/>
        <pt x="1325" y="597" on="0"/>
        <pt x="1325" y="852" on="0"/>
        <pt x="1302" y="1023" on="0"/>
        <pt x="1278" y="1100" on="1"/>
        <pt x="1225" y="1266" on="0"/>
        <pt x="1014" y="1467" on="0"/>
        <pt x="855" y="1467" on="1"/>
        <pt x="607" y="1467" on="0"/>
        <pt x="486" y="1245" on="1"/>
        <pt x="383" y="1054" on="0"/>
        <pt x="390" y="487" on="0"/>
        <pt x="490" y="296" on="1"/>
        <pt x="614" y="63" on="0"/>
        <pt x="1088" y="63" on="0"/>
      </contour>
      <contour>
        <pt x="974" y="1630" on="1"/>
        <pt x="1250" y="1948" on="1"/>
        <pt x="1301" y="2005" on="0"/>
        <pt x="1400" y="1992" on="0"/>
        <pt x="1420" y="1966" on="1"/>
        <pt x="1472" y="1894" on="0"/>
        <pt x="1429" y="1834" on="1"/>
        <pt x="1413" y="1813" on="0"/>
        <pt x="1381" y="1796" on="1"/>
        <pt x="1003" y="1594" on="1"/>
      </contour>
      <contour>
        <pt x="605" y="1624" on="1"/>
        <pt x="864" y="1944" on="1"/>
        <pt x="932" y="2027" on="0"/>
        <pt x="1069" y="1943" on="0"/>
        <pt x="1057" y="1824" on="0"/>
        <pt x="1000" y="1793" on="1"/>
        <pt x="634" y="1588" on="1"/>
      </contour>
    </TTGlyph>
    <TTGlyph name="Omacron" xMin="98" yMin="-20" xMax="1613" yMax="1993">
      <contour>
        <pt x="141" y="467" on="0"/>
        <pt x="98" y="664" on="0"/>
        <pt x="98" y="865" on="0"/>
        <pt x="141" y="1058" on="0"/>
        <pt x="183" y="1145" on="1"/>
        <pt x="271" y="1328" on="0"/>
        <pt x="614" y="1550" on="0"/>
        <pt x="855" y="1550" on="1"/>
        <pt x="1221" y="1550" on="0"/>
        <pt x="1428" y="1306" on="1"/>
        <pt x="1613" y="1086" on="0"/>
        <pt x="1613" y="438" on="0"/>
        <pt x="1426" y="218" on="1"/>
        <pt x="1298" y="68" on="0"/>
        <pt x="1089" y="10" on="1"/>
        <pt x="983" y="-20" on="0"/>
        <pt x="730" y="-20" on="0"/>
        <pt x="520" y="39" on="0"/>
        <pt x="352" y="145" on="0"/>
        <pt x="225" y="292" on="0"/>
      </contour>
      <contour>
        <pt x="1216" y="296" on="1"/>
        <pt x="1254" y="365" on="0"/>
        <pt x="1325" y="597" on="0"/>
        <pt x="1325" y="852" on="0"/>
        <pt x="1302" y="1023" on="0"/>
        <pt x="1278" y="1100" on="1"/>
        <pt x="1225" y="1266" on="0"/>
        <pt x="1014" y="1467" on="0"/>
        <pt x="855" y="1467" on="1"/>
        <pt x="607" y="1467" on="0"/>
        <pt x="486" y="1245" on="1"/>
        <pt x="383" y="1054" on="0"/>
        <pt x="390" y="487" on="0"/>
        <pt x="490" y="296" on="1"/>
        <pt x="614" y="63" on="0"/>
        <pt x="1088" y="63" on="0"/>
      </contour>
      <contour>
        <pt x="528" y="1993" on="1"/>
        <pt x="1185" y="1993" on="1"/>
        <pt x="1185" y="1870" on="1"/>
        <pt x="528" y="1870" on="1"/>
      </contour>
    </TTGlyph>
    <TTGlyph name="Omega" xMin="173" yMin="0" xMax="1704" yMax="1550">
      <contour>
        <pt x="1489" y="205" on="1"/>
        <pt x="1597" y="205" on="0"/>
        <pt x="1628" y="368" on="1"/>
        <pt x="1704" y="368" on="1"/>
        <pt x="1704" y="0" on="1"/>
        <pt x="1026" y="0" on="1"/>
        <pt x="1026" y="79" on="1"/>
        <pt x="1138" y="209" on="1"/>
        <pt x="1303" y="398" on="0"/>
        <pt x="1397" y="658" on="0"/>
        <pt x="1397" y="806" on="1"/>
        <pt x="1397" y="1110" on="0"/>
        <pt x="1294" y="1278" on="1"/>
        <pt x="1177" y="1470" on="0"/>
        <pt x="715" y="1470" on="0"/>
        <pt x="600" y="1278" on="1"/>
        <pt x="500" y="1112" on="0"/>
        <pt x="500" y="591" on="0"/>
        <pt x="594" y="430" on="1"/>
        <pt x="652" y="331" on="0"/>
        <pt x="731" y="241" on="1"/>
        <pt x="871" y="79" on="1"/>
        <pt x="871" y="0" on="1"/>
        <pt x="173" y="0" on="1"/>
        <pt x="173" y="368" on="1"/>
        <pt x="249" y="368" on="1"/>
        <pt x="280" y="205" on="0"/>
        <pt x="388" y="205" on="1"/>
        <pt x="668" y="205" on="1"/>
        <pt x="459" y="338" on="0"/>
        <pt x="222" y="704" on="0"/>
        <pt x="222" y="882" on="1"/>
        <pt x="222" y="1130" on="0"/>
        <pt x="406" y="1329" on="1"/>
        <pt x="611" y="1550" on="0"/>
        <pt x="946" y="1550" on="1"/>
        <pt x="1176" y="1550" on="0"/>
        <pt x="1351" y="1444" on="1"/>
        <pt x="1507" y="1349" on="0"/>
        <pt x="1675" y="1042" on="0"/>
        <pt x="1675" y="705" on="0"/>
        <pt x="1430" y="339" on="0"/>
        <pt x="1219" y="205" on="1"/>
      </contour>
    </TTGlyph>
    <TTGlyph name="Oslash" xMin="98" yMin="-20" xMax="1613" yMax="1550">
      <contour>
        <pt x="855" y="-20" on="1"/>
        <pt x="573" y="-20" on="0"/>
        <pt x="381" y="130" on="1"/>
        <pt x="266" y="-9" on="1"/>
        <pt x="174" y="69" on="1"/>
        <pt x="296" y="210" on="1"/>
        <pt x="98" y="428" on="0"/>
        <pt x="98" y="1084" on="0"/>
        <pt x="288" y="1306" on="1"/>
        <pt x="498" y="1550" on="0"/>
        <pt x="855" y="1550" on="1"/>
        <pt x="1130" y="1550" on="0"/>
        <pt x="1322" y="1405" on="1"/>
        <pt x="1433" y="1540" on="1"/>
        <pt x="1525" y="1462" on="1"/>
        <pt x="1408" y="1327" on="1"/>
        <pt x="1613" y="1106" on="0"/>
        <pt x="1613" y="438" on="0"/>
        <pt x="1426" y="218" on="1"/>
        <pt x="1298" y="68" on="0"/>
        <pt x="1089" y="10" on="1"/>
        <pt x="983" y="-20" on="0"/>
      </contour>
      <contour>
        <pt x="1200" y="1269" on="1"/>
        <pt x="1072" y="1467" on="0"/>
        <pt x="855" y="1467" on="1"/>
        <pt x="607" y="1467" on="0"/>
        <pt x="486" y="1245" on="1"/>
        <pt x="383" y="1054" on="0"/>
        <pt x="386" y="767" on="1"/>
        <pt x="388" y="550" on="0"/>
        <pt x="452" y="379" on="1"/>
        <pt x="807" y="790" on="1"/>
      </contour>
      <contour>
        <pt x="505" y="269" on="1"/>
        <pt x="630" y="63" on="0"/>
        <pt x="1088" y="63" on="0"/>
        <pt x="1216" y="296" on="1"/>
        <pt x="1325" y="494" on="0"/>
        <pt x="1325" y="986" on="0"/>
        <pt x="1256" y="1159" on="1"/>
        <pt x="879" y="722" on="1"/>
      </contour>
    </TTGlyph>
    <TTGlyph name="Otilde" xMin="98" yMin="-20" xMax="1613" yMax="1965">
      <contour>
        <pt x="141" y="467" on="0"/>
        <pt x="98" y="664" on="0"/>
        <pt x="98" y="865" on="0"/>
        <pt x="141" y="1058" on="0"/>
        <pt x="183" y="1145" on="1"/>
        <pt x="271" y="1328" on="0"/>
        <pt x="614" y="1550" on="0"/>
        <pt x="855" y="1550" on="1"/>
        <pt x="1221" y="1550" on="0"/>
        <pt x="1428" y="1306" on="1"/>
        <pt x="1613" y="1086" on="0"/>
        <pt x="1613" y="438" on="0"/>
        <pt x="1426" y="218" on="1"/>
        <pt x="1298" y="68" on="0"/>
        <pt x="1089" y="10" on="1"/>
        <pt x="983" y="-20" on="0"/>
        <pt x="730" y="-20" on="0"/>
        <pt x="520" y="39" on="0"/>
        <pt x="352" y="145" on="0"/>
        <pt x="225" y="292" on="0"/>
      </contour>
      <contour>
        <pt x="1216" y="296" on="1"/>
        <pt x="1254" y="365" on="0"/>
        <pt x="1325" y="597" on="0"/>
        <pt x="1325" y="852" on="0"/>
        <pt x="1302" y="1023" on="0"/>
        <pt x="1278" y="1100" on="1"/>
        <pt x="1225" y="1266" on="0"/>
        <pt x="1014" y="1467" on="0"/>
        <pt x="855" y="1467" on="1"/>
        <pt x="607" y="1467" on="0"/>
        <pt x="486" y="1245" on="1"/>
        <pt x="383" y="1054" on="0"/>
        <pt x="390" y="487" on="0"/>
        <pt x="490" y="296" on="1"/>
        <pt x="614" y="63" on="0"/>
        <pt x="1088" y="63" on="0"/>
      </contour>
      <contour>
        <pt x="479" y="1734" on="1"/>
        <pt x="535" y="1834" on="0"/>
        <pt x="574" y="1877" on="1"/>
        <pt x="654" y="1965" on="0"/>
        <pt x="793" y="1965" on="0"/>
        <pt x="862" y="1932" on="1"/>
        <pt x="965" y="1882" on="1"/>
        <pt x="999" y="1867" on="0"/>
        <pt x="1072" y="1867" on="0"/>
        <pt x="1137" y="1916" on="0"/>
        <pt x="1173" y="1956" on="1"/>
        <pt x="1219" y="1923" on="1"/>
        <pt x="1163" y="1823" on="0"/>
        <pt x="1124" y="1780" on="1"/>
        <pt x="1044" y="1692" on="0"/>
        <pt x="963" y="1692" on="1"/>
        <pt x="907" y="1689" on="0"/>
        <pt x="773" y="1758" on="0"/>
        <pt x="701" y="1790" on="0"/>
        <pt x="626" y="1790" on="0"/>
        <pt x="561" y="1741" on="0"/>
        <pt x="525" y="1701" on="1"/>
      </contour>
    </TTGlyph>
    <TTGlyph name="P" xMin="51" yMin="0" xMax="1300" yMax="1530">
      <contour>
        <pt x="51" y="78" on="1"/>
        <pt x="222" y="78" on="1"/>
        <pt x="223" y="1452" on="1"/>
        <pt x="52" y="1452" on="1"/>
        <pt x="52" y="1530" on="1"/>
        <pt x="701" y="1530" on="1"/>
        <pt x="1011" y="1530" on="0"/>
        <pt x="1300" y="1276" on="0"/>
        <pt x="1300" y="806" on="0"/>
        <pt x="999" y="513" on="0"/>
        <pt x="705" y="513" on="1"/>
        <pt x="492" y="513" on="1"/>
        <pt x="492" y="78" on="1"/>
        <pt x="745" y="78" on="1"/>
        <pt x="745" y="0" on="1"/>
        <pt x="51" y="0" on="1"/>
      </contour>
      <contour>
        <pt x="680" y="582" on="1"/>
        <pt x="919" y="582" on="0"/>
        <pt x="992" y="842" on="1"/>
        <pt x="1019" y="935" on="0"/>
        <pt x="1019" y="1034" on="1"/>
        <pt x="1019" y="1232" on="0"/>
        <pt x="940" y="1336" on="1"/>
        <pt x="855" y="1452" on="0"/>
        <pt x="682" y="1452" on="1"/>
        <pt x="492" y="1452" on="1"/>
        <pt x="492" y="582" on="1"/>
      </contour>
    </TTGlyph>
    <TTGlyph name="Q" xMin="98" yMin="-435" xMax="1613" yMax="1550">
      <contour>
        <pt x="650" y="-305" on="1"/>
        <pt x="523" y="-305" on="0"/>
        <pt x="416" y="-421" on="1"/>
        <pt x="363" y="-387" on="1"/>
        <pt x="396" y="-297" on="0"/>
        <pt x="570" y="-181" on="1"/>
        <pt x="616" y="-150" on="0"/>
        <pt x="657" y="-127" on="1"/>
        <pt x="852" y="-20" on="1"/>
        <pt x="614" y="-20" on="0"/>
        <pt x="272" y="196" on="0"/>
        <pt x="98" y="554" on="0"/>
        <pt x="98" y="767" on="1"/>
        <pt x="98" y="1084" on="0"/>
        <pt x="288" y="1306" on="1"/>
        <pt x="498" y="1550" on="0"/>
        <pt x="1221" y="1550" on="0"/>
        <pt x="1428" y="1306" on="1"/>
        <pt x="1613" y="1086" on="0"/>
        <pt x="1613" y="480" on="0"/>
        <pt x="1468" y="274" on="1"/>
        <pt x="1312" y="49" on="0"/>
        <pt x="1029" y="-4" on="1"/>
        <pt x="833" y="-122" on="1"/>
        <pt x="882" y="-135" on="0"/>
        <pt x="927" y="-154" on="1"/>
        <pt x="927" y="-154" on="0"/>
        <pt x="1020" y="-190" on="1"/>
        <pt x="1132" y="-231" on="0"/>
        <pt x="1224" y="-231" on="1"/>
        <pt x="1347" y="-231" on="0"/>
        <pt x="1453" y="-115" on="1"/>
        <pt x="1505" y="-149" on="1"/>
        <pt x="1476" y="-232" on="0"/>
        <pt x="1280" y="-435" on="0"/>
        <pt x="1170" y="-435" on="1"/>
        <pt x="1099" y="-435" on="0"/>
        <pt x="962" y="-394" on="0"/>
        <pt x="895" y="-370" on="1"/>
        <pt x="714" y="-305" on="0"/>
      </contour>
      <contour>
        <pt x="1216" y="296" on="1"/>
        <pt x="1254" y="365" on="0"/>
        <pt x="1325" y="597" on="0"/>
        <pt x="1325" y="852" on="0"/>
        <pt x="1302" y="1023" on="0"/>
        <pt x="1278" y="1100" on="1"/>
        <pt x="1225" y="1266" on="0"/>
        <pt x="1014" y="1467" on="0"/>
        <pt x="855" y="1467" on="1"/>
        <pt x="607" y="1467" on="0"/>
        <pt x="486" y="1245" on="1"/>
        <pt x="383" y="1054" on="0"/>
        <pt x="390" y="487" on="0"/>
        <pt x="490" y="296" on="1"/>
        <pt x="614" y="63" on="0"/>
        <pt x="1088" y="63" on="0"/>
      </contour>
    </TTGlyph>
    <TTGlyph name="R" xMin="76" yMin="-5" xMax="1549" yMax="1530">
      <contour>
        <pt x="755" y="1530" on="1"/>
        <pt x="1330" y="1530" on="0"/>
        <pt x="1330" y="1144" on="1"/>
        <pt x="1330" y="969" on="0"/>
        <pt x="1118" y="761" on="0"/>
        <pt x="940" y="732" on="1"/>
        <pt x="1175" y="693" on="0"/>
        <pt x="1262" y="490" on="1"/>
        <pt x="1297" y="408" on="0"/>
        <pt x="1350" y="211" on="0"/>
        <pt x="1371" y="170" on="1"/>
        <pt x="1417" y="78" on="0"/>
        <pt x="1507" y="78" on="1"/>
        <pt x="1547" y="78" on="1"/>
        <pt x="1549" y="-5" on="1"/>
        <pt x="1408" y="-5" on="1"/>
        <pt x="1212" y="-5" on="0"/>
        <pt x="1144" y="48" on="1"/>
        <pt x="1075" y="102" on="0"/>
        <pt x="1039" y="261" on="1"/>
        <pt x="1006" y="406" on="0"/>
        <pt x="985" y="459" on="1"/>
        <pt x="941" y="573" on="0"/>
        <pt x="801" y="703" on="0"/>
        <pt x="690" y="703" on="1"/>
        <pt x="507" y="703" on="1"/>
        <pt x="507" y="78" on="1"/>
        <pt x="741" y="78" on="1"/>
        <pt x="741" y="0" on="1"/>
        <pt x="76" y="0" on="1"/>
        <pt x="76" y="78" on="1"/>
        <pt x="237" y="78" on="1"/>
        <pt x="238" y="1452" on="1"/>
        <pt x="76" y="1452" on="1"/>
        <pt x="76" y="1530" on="1"/>
      </contour>
      <contour>
        <pt x="737" y="772" on="1"/>
        <pt x="919" y="772" on="0"/>
        <pt x="993" y="889" on="1"/>
        <pt x="1047" y="974" on="0"/>
        <pt x="1047" y="1286" on="0"/>
        <pt x="984" y="1360" on="1"/>
        <pt x="906" y="1452" on="0"/>
        <pt x="719" y="1452" on="1"/>
        <pt x="507" y="1452" on="1"/>
        <pt x="507" y="772" on="1"/>
      </contour>
    </TTGlyph>
    <TTGlyph name="Racute" xMin="76" yMin="-5" xMax="1549" yMax="2005">
      <contour>
        <pt x="755" y="1530" on="1"/>
        <pt x="1330" y="1530" on="0"/>
        <pt x="1330" y="1144" on="1"/>
        <pt x="1330" y="969" on="0"/>
        <pt x="1118" y="761" on="0"/>
        <pt x="940" y="732" on="1"/>
        <pt x="1175" y="693" on="0"/>
        <pt x="1262" y="490" on="1"/>
        <pt x="1297" y="408" on="0"/>
        <pt x="1350" y="211" on="0"/>
        <pt x="1371" y="170" on="1"/>
        <pt x="1417" y="78" on="0"/>
        <pt x="1507" y="78" on="1"/>
        <pt x="1547" y="78" on="1"/>
        <pt x="1549" y="-5" on="1"/>
        <pt x="1408" y="-5" on="1"/>
        <pt x="1212" y="-5" on="0"/>
        <pt x="1144" y="48" on="1"/>
        <pt x="1075" y="102" on="0"/>
        <pt x="1039" y="261" on="1"/>
        <pt x="1006" y="406" on="0"/>
        <pt x="985" y="459" on="1"/>
        <pt x="941" y="573" on="0"/>
        <pt x="801" y="703" on="0"/>
        <pt x="690" y="703" on="1"/>
        <pt x="507" y="703" on="1"/>
        <pt x="507" y="78" on="1"/>
        <pt x="741" y="78" on="1"/>
        <pt x="741" y="0" on="1"/>
        <pt x="76" y="0" on="1"/>
        <pt x="76" y="78" on="1"/>
        <pt x="237" y="78" on="1"/>
        <pt x="238" y="1452" on="1"/>
        <pt x="76" y="1452" on="1"/>
        <pt x="76" y="1530" on="1"/>
      </contour>
      <contour>
        <pt x="737" y="772" on="1"/>
        <pt x="919" y="772" on="0"/>
        <pt x="993" y="889" on="1"/>
        <pt x="1047" y="974" on="0"/>
        <pt x="1047" y="1286" on="0"/>
        <pt x="984" y="1360" on="1"/>
        <pt x="906" y="1452" on="0"/>
        <pt x="719" y="1452" on="1"/>
        <pt x="507" y="1452" on="1"/>
        <pt x="507" y="772" on="1"/>
      </contour>
      <contour>
        <pt x="588" y="1679" on="1"/>
        <pt x="877" y="1956" on="1"/>
        <pt x="931" y="2005" on="0"/>
        <pt x="968" y="2001" on="1"/>
        <pt x="1031" y="1993" on="0"/>
        <pt x="1091" y="1922" on="0"/>
        <pt x="1084" y="1882" on="1"/>
        <pt x="1071" y="1800" on="0"/>
        <pt x="1005" y="1776" on="1"/>
        <pt x="610" y="1639" on="1"/>
      </contour>
    </TTGlyph>
    <TTGlyph name="Rcaron" xMin="76" yMin="-5" xMax="1549" yMax="2000">
      <contour>
        <pt x="755" y="1530" on="1"/>
        <pt x="1330" y="1530" on="0"/>
        <pt x="1330" y="1144" on="1"/>
        <pt x="1330" y="969" on="0"/>
        <pt x="1118" y="761" on="0"/>
        <pt x="940" y="732" on="1"/>
        <pt x="1175" y="693" on="0"/>
        <pt x="1262" y="490" on="1"/>
        <pt x="1297" y="408" on="0"/>
        <pt x="1350" y="211" on="0"/>
        <pt x="1371" y="170" on="1"/>
        <pt x="1417" y="78" on="0"/>
        <pt x="1507" y="78" on="1"/>
        <pt x="1547" y="78" on="1"/>
        <pt x="1549" y="-5" on="1"/>
        <pt x="1408" y="-5" on="1"/>
        <pt x="1212" y="-5" on="0"/>
        <pt x="1144" y="48" on="1"/>
        <pt x="1075" y="102" on="0"/>
        <pt x="1039" y="261" on="1"/>
        <pt x="1006" y="406" on="0"/>
        <pt x="985" y="459" on="1"/>
        <pt x="941" y="573" on="0"/>
        <pt x="801" y="703" on="0"/>
        <pt x="690" y="703" on="1"/>
        <pt x="507" y="703" on="1"/>
        <pt x="507" y="78" on="1"/>
        <pt x="741" y="78" on="1"/>
        <pt x="741" y="0" on="1"/>
        <pt x="76" y="0" on="1"/>
        <pt x="76" y="78" on="1"/>
        <pt x="237" y="78" on="1"/>
        <pt x="238" y="1452" on="1"/>
        <pt x="76" y="1452" on="1"/>
        <pt x="76" y="1530" on="1"/>
      </contour>
      <contour>
        <pt x="737" y="772" on="1"/>
        <pt x="919" y="772" on="0"/>
        <pt x="993" y="889" on="1"/>
        <pt x="1047" y="974" on="0"/>
        <pt x="1047" y="1286" on="0"/>
        <pt x="984" y="1360" on="1"/>
        <pt x="906" y="1452" on="0"/>
        <pt x="719" y="1452" on="1"/>
        <pt x="507" y="1452" on="1"/>
        <pt x="507" y="772" on="1"/>
      </contour>
      <contour>
        <pt x="607" y="1694" on="1"/>
        <pt x="348" y="1964" on="1"/>
        <pt x="376" y="2000" on="1"/>
        <pt x="716" y="1836" on="1"/>
        <pt x="1054" y="2000" on="1"/>
        <pt x="1082" y="1963" on="1"/>
        <pt x="832" y="1701" on="1"/>
        <pt x="789" y="1653" on="0"/>
        <pt x="736" y="1630" on="0"/>
        <pt x="665" y="1630" on="0"/>
      </contour>
    </TTGlyph>
    <TTGlyph name="Rcommaaccent" xMin="76" yMin="-560" xMax="1549" yMax="1530">
      <contour>
        <pt x="755" y="1530" on="1"/>
        <pt x="1330" y="1530" on="0"/>
        <pt x="1330" y="1144" on="1"/>
        <pt x="1330" y="969" on="0"/>
        <pt x="1118" y="761" on="0"/>
        <pt x="940" y="732" on="1"/>
        <pt x="1175" y="693" on="0"/>
        <pt x="1262" y="490" on="1"/>
        <pt x="1297" y="408" on="0"/>
        <pt x="1350" y="211" on="0"/>
        <pt x="1371" y="170" on="1"/>
        <pt x="1417" y="78" on="0"/>
        <pt x="1507" y="78" on="1"/>
        <pt x="1547" y="78" on="1"/>
        <pt x="1549" y="-5" on="1"/>
        <pt x="1408" y="-5" on="1"/>
        <pt x="1212" y="-5" on="0"/>
        <pt x="1144" y="48" on="1"/>
        <pt x="1075" y="102" on="0"/>
        <pt x="1039" y="261" on="1"/>
        <pt x="1006" y="406" on="0"/>
        <pt x="985" y="459" on="1"/>
        <pt x="941" y="573" on="0"/>
        <pt x="801" y="703" on="0"/>
        <pt x="690" y="703" on="1"/>
        <pt x="507" y="703" on="1"/>
        <pt x="507" y="78" on="1"/>
        <pt x="741" y="78" on="1"/>
        <pt x="741" y="0" on="1"/>
        <pt x="76" y="0" on="1"/>
        <pt x="76" y="78" on="1"/>
        <pt x="237" y="78" on="1"/>
        <pt x="238" y="1452" on="1"/>
        <pt x="76" y="1452" on="1"/>
        <pt x="76" y="1530" on="1"/>
      </contour>
      <contour>
        <pt x="737" y="772" on="1"/>
        <pt x="919" y="772" on="0"/>
        <pt x="993" y="889" on="1"/>
        <pt x="1047" y="974" on="0"/>
        <pt x="1047" y="1286" on="0"/>
        <pt x="984" y="1360" on="1"/>
        <pt x="906" y="1452" on="0"/>
        <pt x="719" y="1452" on="1"/>
        <pt x="507" y="1452" on="1"/>
        <pt x="507" y="772" on="1"/>
      </contour>
      <contour>
        <pt x="670" y="-230" on="1"/>
        <pt x="670" y="-179" on="0"/>
        <pt x="750" y="-104" on="0"/>
        <pt x="897" y="-104" on="0"/>
        <pt x="979" y="-203" on="0"/>
        <pt x="979" y="-360" on="0"/>
        <pt x="857" y="-517" on="0"/>
        <pt x="771" y="-560" on="1"/>
        <pt x="723" y="-500" on="1"/>
        <pt x="775" y="-472" on="0"/>
        <pt x="811" y="-421" on="1"/>
        <pt x="823" y="-404" on="0"/>
        <pt x="829" y="-386" on="1"/>
        <pt x="825" y="-386" on="1"/>
        <pt x="670" y="-386" on="0"/>
      </contour>
    </TTGlyph>
    <TTGlyph name="S" xMin="177" yMin="-20" xMax="1252" yMax="1550">
      <contour>
        <pt x="307" y="116" on="1"/>
        <pt x="266" y="70" on="0"/>
        <pt x="266" y="0" on="1"/>
        <pt x="177" y="0" on="1"/>
        <pt x="177" y="408" on="1"/>
        <pt x="280" y="408" on="1"/>
        <pt x="319" y="254" on="0"/>
        <pt x="566" y="63" on="0"/>
        <pt x="741" y="63" on="1"/>
        <pt x="960" y="63" on="0"/>
        <pt x="1034" y="184" on="1"/>
        <pt x="1058" y="225" on="0"/>
        <pt x="1058" y="276" on="1"/>
        <pt x="1058" y="385" on="0"/>
        <pt x="904" y="541" on="0"/>
        <pt x="531" y="678" on="0"/>
        <pt x="340" y="792" on="0"/>
        <pt x="285" y="855" on="1"/>
        <pt x="188" y="966" on="0"/>
        <pt x="188" y="1326" on="0"/>
        <pt x="497" y="1550" on="0"/>
        <pt x="718" y="1550" on="1"/>
        <pt x="843" y="1550" on="0"/>
        <pt x="1018" y="1492" on="0"/>
        <pt x="1064" y="1453" on="1"/>
        <pt x="1088" y="1488" on="0"/>
        <pt x="1090" y="1530" on="1"/>
        <pt x="1183" y="1530" on="1"/>
        <pt x="1183" y="1158" on="1"/>
        <pt x="1087" y="1158" on="1"/>
        <pt x="1072" y="1306" on="0"/>
        <pt x="855" y="1467" on="0"/>
        <pt x="570" y="1467" on="0"/>
        <pt x="390" y="1350" on="0"/>
        <pt x="390" y="1148" on="0"/>
        <pt x="558" y="996" on="0"/>
        <pt x="817" y="882" on="1"/>
        <pt x="1060" y="783" on="0"/>
        <pt x="1252" y="580" on="0"/>
        <pt x="1252" y="431" on="1"/>
        <pt x="1252" y="221" on="0"/>
        <pt x="957" y="-20" on="0"/>
        <pt x="538" y="-20" on="0"/>
        <pt x="383" y="64" on="1"/>
        <pt x="337" y="89" on="0"/>
      </contour>
    </TTGlyph>
    <TTGlyph name="Sacute" xMin="177" yMin="-20" xMax="1252" yMax="2005">
      <contour>
        <pt x="307" y="116" on="1"/>
        <pt x="266" y="70" on="0"/>
        <pt x="266" y="0" on="1"/>
        <pt x="177" y="0" on="1"/>
        <pt x="177" y="408" on="1"/>
        <pt x="280" y="408" on="1"/>
        <pt x="319" y="254" on="0"/>
        <pt x="566" y="63" on="0"/>
        <pt x="741" y="63" on="1"/>
        <pt x="960" y="63" on="0"/>
        <pt x="1034" y="184" on="1"/>
        <pt x="1058" y="225" on="0"/>
        <pt x="1058" y="276" on="1"/>
        <pt x="1058" y="385" on="0"/>
        <pt x="904" y="541" on="0"/>
        <pt x="531" y="678" on="0"/>
        <pt x="340" y="792" on="0"/>
        <pt x="285" y="855" on="1"/>
        <pt x="188" y="966" on="0"/>
        <pt x="188" y="1326" on="0"/>
        <pt x="497" y="1550" on="0"/>
        <pt x="718" y="1550" on="1"/>
        <pt x="843" y="1550" on="0"/>
        <pt x="1018" y="1492" on="0"/>
        <pt x="1064" y="1453" on="1"/>
        <pt x="1088" y="1488" on="0"/>
        <pt x="1090" y="1530" on="1"/>
        <pt x="1183" y="1530" on="1"/>
        <pt x="1183" y="1158" on="1"/>
        <pt x="1087" y="1158" on="1"/>
        <pt x="1072" y="1306" on="0"/>
        <pt x="855" y="1467" on="0"/>
        <pt x="570" y="1467" on="0"/>
        <pt x="390" y="1350" on="0"/>
        <pt x="390" y="1148" on="0"/>
        <pt x="558" y="996" on="0"/>
        <pt x="817" y="882" on="1"/>
        <pt x="1060" y="783" on="0"/>
        <pt x="1252" y="580" on="0"/>
        <pt x="1252" y="431" on="1"/>
        <pt x="1252" y="221" on="0"/>
        <pt x="957" y="-20" on="0"/>
        <pt x="538" y="-20" on="0"/>
        <pt x="383" y="64" on="1"/>
        <pt x="337" y="89" on="0"/>
      </contour>
      <contour>
        <pt x="581" y="1679" on="1"/>
        <pt x="870" y="1956" on="1"/>
        <pt x="924" y="2005" on="0"/>
        <pt x="961" y="2001" on="1"/>
        <pt x="1024" y="1993" on="0"/>
        <pt x="1084" y="1922" on="0"/>
        <pt x="1077" y="1882" on="1"/>
        <pt x="1064" y="1800" on="0"/>
        <pt x="998" y="1776" on="1"/>
        <pt x="603" y="1639" on="1"/>
      </contour>
    </TTGlyph>
    <TTGlyph name="Scaron" xMin="177" yMin="-20" xMax="1252" yMax="2000">
      <contour>
        <pt x="307" y="116" on="1"/>
        <pt x="266" y="70" on="0"/>
        <pt x="266" y="0" on="1"/>
        <pt x="177" y="0" on="1"/>
        <pt x="177" y="408" on="1"/>
        <pt x="280" y="408" on="1"/>
        <pt x="319" y="254" on="0"/>
        <pt x="566" y="63" on="0"/>
        <pt x="741" y="63" on="1"/>
        <pt x="960" y="63" on="0"/>
        <pt x="1034" y="184" on="1"/>
        <pt x="1058" y="225" on="0"/>
        <pt x="1058" y="276" on="1"/>
        <pt x="1058" y="385" on="0"/>
        <pt x="904" y="541" on="0"/>
        <pt x="531" y="678" on="0"/>
        <pt x="340" y="792" on="0"/>
        <pt x="285" y="855" on="1"/>
        <pt x="188" y="966" on="0"/>
        <pt x="188" y="1326" on="0"/>
        <pt x="497" y="1550" on="0"/>
        <pt x="718" y="1550" on="1"/>
        <pt x="843" y="1550" on="0"/>
        <pt x="1018" y="1492" on="0"/>
        <pt x="1064" y="1453" on="1"/>
        <pt x="1088" y="1488" on="0"/>
        <pt x="1090" y="1530" on="1"/>
        <pt x="1183" y="1530" on="1"/>
        <pt x="1183" y="1158" on="1"/>
        <pt x="1087" y="1158" on="1"/>
        <pt x="1072" y="1306" on="0"/>
        <pt x="855" y="1467" on="0"/>
        <pt x="570" y="1467" on="0"/>
        <pt x="390" y="1350" on="0"/>
        <pt x="390" y="1148" on="0"/>
        <pt x="558" y="996" on="0"/>
        <pt x="817" y="882" on="1"/>
        <pt x="1060" y="783" on="0"/>
        <pt x="1252" y="580" on="0"/>
        <pt x="1252" y="431" on="1"/>
        <pt x="1252" y="221" on="0"/>
        <pt x="957" y="-20" on="0"/>
        <pt x="538" y="-20" on="0"/>
        <pt x="383" y="64" on="1"/>
        <pt x="337" y="89" on="0"/>
      </contour>
      <contour>
        <pt x="600" y="1694" on="1"/>
        <pt x="341" y="1964" on="1"/>
        <pt x="369" y="2000" on="1"/>
        <pt x="709" y="1836" on="1"/>
        <pt x="1047" y="2000" on="1"/>
        <pt x="1075" y="1963" on="1"/>
        <pt x="825" y="1701" on="1"/>
        <pt x="782" y="1653" on="0"/>
        <pt x="729" y="1630" on="0"/>
        <pt x="658" y="1630" on="0"/>
      </contour>
    </TTGlyph>
    <TTGlyph name="Scedilla" xMin="177" yMin="-560" xMax="1252" yMax="1550">
      <contour>
        <pt x="307" y="116" on="1"/>
        <pt x="266" y="70" on="0"/>
        <pt x="266" y="0" on="1"/>
        <pt x="177" y="0" on="1"/>
        <pt x="177" y="408" on="1"/>
        <pt x="280" y="408" on="1"/>
        <pt x="319" y="254" on="0"/>
        <pt x="566" y="63" on="0"/>
        <pt x="741" y="63" on="1"/>
        <pt x="960" y="63" on="0"/>
        <pt x="1034" y="184" on="1"/>
        <pt x="1058" y="225" on="0"/>
        <pt x="1058" y="276" on="1"/>
        <pt x="1058" y="385" on="0"/>
        <pt x="904" y="541" on="0"/>
        <pt x="531" y="678" on="0"/>
        <pt x="340" y="792" on="0"/>
        <pt x="285" y="855" on="1"/>
        <pt x="188" y="966" on="0"/>
        <pt x="188" y="1326" on="0"/>
        <pt x="497" y="1550" on="0"/>
        <pt x="718" y="1550" on="1"/>
        <pt x="843" y="1550" on="0"/>
        <pt x="1018" y="1492" on="0"/>
        <pt x="1064" y="1453" on="1"/>
        <pt x="1088" y="1488" on="0"/>
        <pt x="1090" y="1530" on="1"/>
        <pt x="1183" y="1530" on="1"/>
        <pt x="1183" y="1158" on="1"/>
        <pt x="1087" y="1158" on="1"/>
        <pt x="1072" y="1306" on="0"/>
        <pt x="855" y="1467" on="0"/>
        <pt x="570" y="1467" on="0"/>
        <pt x="390" y="1350" on="0"/>
        <pt x="390" y="1148" on="0"/>
        <pt x="558" y="996" on="0"/>
        <pt x="817" y="882" on="1"/>
        <pt x="1060" y="783" on="0"/>
        <pt x="1252" y="580" on="0"/>
        <pt x="1252" y="431" on="1"/>
        <pt x="1252" y="225" on="0"/>
        <pt x="970" y="-13" on="0"/>
        <pt x="766" y="-19" on="1"/>
        <pt x="746" y="-127" on="1"/>
        <pt x="755" y="-126" on="0"/>
        <pt x="764" y="-126" on="1"/>
        <pt x="783" y="-126" on="1"/>
        <pt x="950" y="-126" on="0"/>
        <pt x="1012" y="-207" on="1"/>
        <pt x="1037" y="-239" on="0"/>
        <pt x="1037" y="-333" on="0"/>
        <pt x="995" y="-406" on="0"/>
        <pt x="960" y="-436" on="1"/>
        <pt x="891" y="-494" on="0"/>
        <pt x="675" y="-560" on="0"/>
        <pt x="581" y="-560" on="1"/>
        <pt x="573" y="-485" on="1"/>
        <pt x="756" y="-471" on="0"/>
        <pt x="830" y="-402" on="1"/>
        <pt x="860" y="-374" on="0"/>
        <pt x="860" y="-332" on="1"/>
        <pt x="860" y="-247" on="0"/>
        <pt x="714" y="-247" on="1"/>
        <pt x="706" y="-247" on="0"/>
        <pt x="694" y="-248" on="1"/>
        <pt x="670" y="-248" on="1"/>
        <pt x="649" y="-249" on="0"/>
        <pt x="625" y="-252" on="1"/>
        <pt x="673" y="-17" on="1"/>
        <pt x="498" y="-2" on="0"/>
        <pt x="372" y="70" on="1"/>
        <pt x="333" y="92" on="0"/>
      </contour>
    </TTGlyph>
    <TTGlyph name="Scircumflex" xMin="177" yMin="-20" xMax="1252" yMax="2000">
      <contour>
        <pt x="307" y="116" on="1"/>
        <pt x="266" y="70" on="0"/>
        <pt x="266" y="0" on="1"/>
        <pt x="177" y="0" on="1"/>
        <pt x="177" y="408" on="1"/>
        <pt x="280" y="408" on="1"/>
        <pt x="319" y="254" on="0"/>
        <pt x="566" y="63" on="0"/>
        <pt x="741" y="63" on="1"/>
        <pt x="960" y="63" on="0"/>
        <pt x="1034" y="184" on="1"/>
        <pt x="1058" y="225" on="0"/>
        <pt x="1058" y="276" on="1"/>
        <pt x="1058" y="385" on="0"/>
        <pt x="904" y="541" on="0"/>
        <pt x="531" y="678" on="0"/>
        <pt x="340" y="792" on="0"/>
        <pt x="285" y="855" on="1"/>
        <pt x="188" y="966" on="0"/>
        <pt x="188" y="1326" on="0"/>
        <pt x="497" y="1550" on="0"/>
        <pt x="718" y="1550" on="1"/>
        <pt x="843" y="1550" on="0"/>
        <pt x="1018" y="1492" on="0"/>
        <pt x="1064" y="1453" on="1"/>
        <pt x="1088" y="1488" on="0"/>
        <pt x="1090" y="1530" on="1"/>
        <pt x="1183" y="1530" on="1"/>
        <pt x="1183" y="1158" on="1"/>
        <pt x="1087" y="1158" on="1"/>
        <pt x="1072" y="1306" on="0"/>
        <pt x="855" y="1467" on="0"/>
        <pt x="570" y="1467" on="0"/>
        <pt x="390" y="1350" on="0"/>
        <pt x="390" y="1148" on="0"/>
        <pt x="558" y="996" on="0"/>
        <pt x="817" y="882" on="1"/>
        <pt x="1060" y="783" on="0"/>
        <pt x="1252" y="580" on="0"/>
        <pt x="1252" y="431" on="1"/>
        <pt x="1252" y="221" on="0"/>
        <pt x="957" y="-20" on="0"/>
        <pt x="538" y="-20" on="0"/>
        <pt x="383" y="64" on="1"/>
        <pt x="337" y="89" on="0"/>
      </contour>
      <contour>
        <pt x="336" y="1646" on="1"/>
        <pt x="599" y="1936" on="1"/>
        <pt x="657" y="2000" on="0"/>
        <pt x="728" y="2000" on="0"/>
        <pt x="745" y="1992" on="1"/>
        <pt x="777" y="1979" on="0"/>
        <pt x="804" y="1950" on="1"/>
        <pt x="1070" y="1647" on="1"/>
        <pt x="1042" y="1610" on="1"/>
        <pt x="708" y="1794" on="1"/>
        <pt x="364" y="1610" on="1"/>
      </contour>
    </TTGlyph>
    <TTGlyph name="Scommaaccent" xMin="177" yMin="-560" xMax="1252" yMax="1550">
      <contour>
        <pt x="307" y="116" on="1"/>
        <pt x="266" y="70" on="0"/>
        <pt x="266" y="0" on="1"/>
        <pt x="177" y="0" on="1"/>
        <pt x="177" y="408" on="1"/>
        <pt x="280" y="408" on="1"/>
        <pt x="319" y="254" on="0"/>
        <pt x="566" y="63" on="0"/>
        <pt x="741" y="63" on="1"/>
        <pt x="960" y="63" on="0"/>
        <pt x="1034" y="184" on="1"/>
        <pt x="1058" y="225" on="0"/>
        <pt x="1058" y="276" on="1"/>
        <pt x="1058" y="385" on="0"/>
        <pt x="904" y="541" on="0"/>
        <pt x="531" y="678" on="0"/>
        <pt x="340" y="792" on="0"/>
        <pt x="285" y="855" on="1"/>
        <pt x="188" y="966" on="0"/>
        <pt x="188" y="1326" on="0"/>
        <pt x="497" y="1550" on="0"/>
        <pt x="718" y="1550" on="1"/>
        <pt x="843" y="1550" on="0"/>
        <pt x="1018" y="1492" on="0"/>
        <pt x="1064" y="1453" on="1"/>
        <pt x="1088" y="1488" on="0"/>
        <pt x="1090" y="1530" on="1"/>
        <pt x="1183" y="1530" on="1"/>
        <pt x="1183" y="1158" on="1"/>
        <pt x="1087" y="1158" on="1"/>
        <pt x="1072" y="1306" on="0"/>
        <pt x="855" y="1467" on="0"/>
        <pt x="570" y="1467" on="0"/>
        <pt x="390" y="1350" on="0"/>
        <pt x="390" y="1148" on="0"/>
        <pt x="558" y="996" on="0"/>
        <pt x="817" y="882" on="1"/>
        <pt x="1060" y="783" on="0"/>
        <pt x="1252" y="580" on="0"/>
        <pt x="1252" y="431" on="1"/>
        <pt x="1252" y="221" on="0"/>
        <pt x="957" y="-20" on="0"/>
        <pt x="538" y="-20" on="0"/>
        <pt x="383" y="64" on="1"/>
        <pt x="337" y="89" on="0"/>
      </contour>
      <contour>
        <pt x="595" y="-230" on="1"/>
        <pt x="595" y="-179" on="0"/>
        <pt x="675" y="-104" on="0"/>
        <pt x="822" y="-104" on="0"/>
        <pt x="904" y="-203" on="0"/>
        <pt x="904" y="-360" on="0"/>
        <pt x="782" y="-517" on="0"/>
        <pt x="696" y="-560" on="1"/>
        <pt x="648" y="-500" on="1"/>
        <pt x="700" y="-472" on="0"/>
        <pt x="736" y="-421" on="1"/>
        <pt x="748" y="-404" on="0"/>
        <pt x="754" y="-386" on="1"/>
        <pt x="750" y="-386" on="1"/>
        <pt x="595" y="-386" on="0"/>
      </contour>
    </TTGlyph>
    <TTGlyph name="T" xMin="80" yMin="0" xMax="1454" yMax="1530">
      <contour>
        <pt x="433" y="78" on="1"/>
        <pt x="632" y="78" on="1"/>
        <pt x="633" y="1453" on="1"/>
        <pt x="447" y="1453" on="1"/>
        <pt x="282" y="1442" on="0"/>
        <pt x="217" y="1331" on="1"/>
        <pt x="167" y="1246" on="0"/>
        <pt x="158" y="1049" on="1"/>
        <pt x="80" y="1049" on="1"/>
        <pt x="80" y="1530" on="1"/>
        <pt x="1454" y="1530" on="1"/>
        <pt x="1454" y="1049" on="1"/>
        <pt x="1376" y="1049" on="1"/>
        <pt x="1367" y="1244" on="0"/>
        <pt x="1316" y="1331" on="1"/>
        <pt x="1251" y="1442" on="0"/>
        <pt x="1087" y="1453" on="1"/>
        <pt x="902" y="1453" on="1"/>
        <pt x="902" y="78" on="1"/>
        <pt x="1102" y="78" on="1"/>
        <pt x="1102" y="0" on="1"/>
        <pt x="433" y="0" on="1"/>
      </contour>
    </TTGlyph>
    <TTGlyph name="Tbar" xMin="80" yMin="0" xMax="1454" yMax="1530">
      <contour>
        <pt x="433" y="78" on="1"/>
        <pt x="632" y="78" on="1"/>
        <pt x="632" y="743" on="1"/>
        <pt x="320" y="743" on="1"/>
        <pt x="320" y="821" on="1"/>
        <pt x="632" y="821" on="1"/>
        <pt x="633" y="1453" on="1"/>
        <pt x="447" y="1453" on="1"/>
        <pt x="282" y="1442" on="0"/>
        <pt x="217" y="1331" on="1"/>
        <pt x="167" y="1246" on="0"/>
        <pt x="158" y="1049" on="1"/>
        <pt x="80" y="1049" on="1"/>
        <pt x="80" y="1530" on="1"/>
        <pt x="1454" y="1530" on="1"/>
        <pt x="1454" y="1049" on="1"/>
        <pt x="1376" y="1049" on="1"/>
        <pt x="1367" y="1244" on="0"/>
        <pt x="1316" y="1331" on="1"/>
        <pt x="1251" y="1442" on="0"/>
        <pt x="1087" y="1453" on="1"/>
        <pt x="902" y="1453" on="1"/>
        <pt x="902" y="821" on="1"/>
        <pt x="1210" y="821" on="1"/>
        <pt x="1210" y="743" on="1"/>
        <pt x="902" y="743" on="1"/>
        <pt x="902" y="78" on="1"/>
        <pt x="1102" y="78" on="1"/>
        <pt x="1102" y="0" on="1"/>
        <pt x="433" y="0" on="1"/>
      </contour>
    </TTGlyph>
    <TTGlyph name="Tcaron" xMin="80" yMin="0" xMax="1454" yMax="2000">
      <contour>
        <pt x="433" y="78" on="1"/>
        <pt x="632" y="78" on="1"/>
        <pt x="633" y="1453" on="1"/>
        <pt x="447" y="1453" on="1"/>
        <pt x="282" y="1442" on="0"/>
        <pt x="217" y="1331" on="1"/>
        <pt x="167" y="1246" on="0"/>
        <pt x="158" y="1049" on="1"/>
        <pt x="80" y="1049" on="1"/>
        <pt x="80" y="1530" on="1"/>
        <pt x="1454" y="1530" on="1"/>
        <pt x="1454" y="1049" on="1"/>
        <pt x="1376" y="1049" on="1"/>
        <pt x="1367" y="1244" on="0"/>
        <pt x="1316" y="1331" on="1"/>
        <pt x="1251" y="1442" on="0"/>
        <pt x="1087" y="1453" on="1"/>
        <pt x="902" y="1453" on="1"/>
        <pt x="902" y="78" on="1"/>
        <pt x="1102" y="78" on="1"/>
        <pt x="1102" y="0" on="1"/>
        <pt x="433" y="0" on="1"/>
      </contour>
      <contour>
        <pt x="659" y="1694" on="1"/>
        <pt x="400" y="1964" on="1"/>
        <pt x="428" y="2000" on="1"/>
        <pt x="768" y="1836" on="1"/>
        <pt x="1106" y="2000" on="1"/>
        <pt x="1134" y="1963" on="1"/>
        <pt x="884" y="1701" on="1"/>
        <pt x="841" y="1653" on="0"/>
        <pt x="788" y="1630" on="0"/>
        <pt x="717" y="1630" on="0"/>
      </contour>
    </TTGlyph>
    <TTGlyph name="Tcommaaccent" xMin="80" yMin="-560" xMax="1454" yMax="1530">
      <contour>
        <pt x="433" y="78" on="1"/>
        <pt x="632" y="78" on="1"/>
        <pt x="633" y="1453" on="1"/>
        <pt x="447" y="1453" on="1"/>
        <pt x="282" y="1442" on="0"/>
        <pt x="217" y="1331" on="1"/>
        <pt x="167" y="1246" on="0"/>
        <pt x="158" y="1049" on="1"/>
        <pt x="80" y="1049" on="1"/>
        <pt x="80" y="1530" on="1"/>
        <pt x="1454" y="1530" on="1"/>
        <pt x="1454" y="1049" on="1"/>
        <pt x="1376" y="1049" on="1"/>
        <pt x="1367" y="1244" on="0"/>
        <pt x="1316" y="1331" on="1"/>
        <pt x="1251" y="1442" on="0"/>
        <pt x="1087" y="1453" on="1"/>
        <pt x="902" y="1453" on="1"/>
        <pt x="902" y="78" on="1"/>
        <pt x="1102" y="78" on="1"/>
        <pt x="1102" y="0" on="1"/>
        <pt x="433" y="0" on="1"/>
      </contour>
      <contour>
        <pt x="619" y="-230" on="1"/>
        <pt x="619" y="-179" on="0"/>
        <pt x="699" y="-104" on="0"/>
        <pt x="846" y="-104" on="0"/>
        <pt x="928" y="-203" on="0"/>
        <pt x="928" y="-360" on="0"/>
        <pt x="806" y="-517" on="0"/>
        <pt x="720" y="-560" on="1"/>
        <pt x="672" y="-500" on="1"/>
        <pt x="724" y="-472" on="0"/>
        <pt x="760" y="-421" on="1"/>
        <pt x="772" y="-404" on="0"/>
        <pt x="778" y="-386" on="1"/>
        <pt x="774" y="-386" on="1"/>
        <pt x="619" y="-386" on="0"/>
      </contour>
    </TTGlyph>
    <TTGlyph name="Thorn" xMin="51" yMin="0" xMax="1310" yMax="1530">
      <contour>
        <pt x="671" y="1226" on="1"/>
        <pt x="1310" y="1226" on="0"/>
        <pt x="1310" y="792" on="1"/>
        <pt x="1310" y="578" on="0"/>
        <pt x="990" y="317" on="0"/>
        <pt x="675" y="317" on="1"/>
        <pt x="492" y="317" on="1"/>
        <pt x="492" y="78" on="1"/>
        <pt x="705" y="78" on="1"/>
        <pt x="705" y="0" on="1"/>
        <pt x="51" y="0" on="1"/>
        <pt x="51" y="78" on="1"/>
        <pt x="222" y="78" on="1"/>
        <pt x="223" y="1452" on="1"/>
        <pt x="51" y="1452" on="1"/>
        <pt x="51" y="1530" on="1"/>
        <pt x="705" y="1530" on="1"/>
        <pt x="705" y="1452" on="1"/>
        <pt x="492" y="1452" on="1"/>
        <pt x="492" y="1226" on="1"/>
      </contour>
      <contour>
        <pt x="700" y="386" on="1"/>
        <pt x="932" y="386" on="0"/>
        <pt x="1003" y="612" on="1"/>
        <pt x="1029" y="695" on="0"/>
        <pt x="1029" y="781" on="1"/>
        <pt x="1029" y="958" on="0"/>
        <pt x="869" y="1157" on="0"/>
        <pt x="702" y="1157" on="1"/>
        <pt x="492" y="1157" on="1"/>
        <pt x="492" y="386" on="1"/>
      </contour>
    </TTGlyph>
    <TTGlyph name="U" xMin="46" yMin="-20" xMax="1479" yMax="1530">
      <contour>
        <pt x="183" y="1452" on="1"/>
        <pt x="46" y="1452" on="1"/>
        <pt x="46" y="1530" on="1"/>
        <pt x="598" y="1530" on="1"/>
        <pt x="598" y="1452" on="1"/>
        <pt x="452" y="1452" on="1"/>
        <pt x="452" y="525" on="1"/>
        <pt x="452" y="162" on="0"/>
        <pt x="656" y="95" on="1"/>
        <pt x="724" y="73" on="0"/>
        <pt x="853" y="73" on="0"/>
        <pt x="948" y="85" on="0"/>
        <pt x="995" y="102" on="1"/>
        <pt x="1100" y="142" on="0"/>
        <pt x="1235" y="350" on="0"/>
        <pt x="1235" y="543" on="1"/>
        <pt x="1235" y="1452" on="1"/>
        <pt x="1079" y="1452" on="1"/>
        <pt x="1079" y="1530" on="1"/>
        <pt x="1479" y="1530" on="1"/>
        <pt x="1479" y="1452" on="1"/>
        <pt x="1333" y="1452" on="1"/>
        <pt x="1333" y="529" on="1"/>
        <pt x="1333" y="252" on="0"/>
        <pt x="1045" y="-20" on="0"/>
        <pt x="798" y="-20" on="1"/>
        <pt x="333" y="-20" on="0"/>
        <pt x="214" y="332" on="1"/>
        <pt x="182" y="426" on="0"/>
        <pt x="182" y="559" on="1"/>
      </contour>
    </TTGlyph>
    <TTGlyph name="Uacute" xMin="46" yMin="-20" xMax="1479" yMax="2005">
      <contour>
        <pt x="183" y="1452" on="1"/>
        <pt x="46" y="1452" on="1"/>
        <pt x="46" y="1530" on="1"/>
        <pt x="598" y="1530" on="1"/>
        <pt x="598" y="1452" on="1"/>
        <pt x="452" y="1452" on="1"/>
        <pt x="452" y="525" on="1"/>
        <pt x="452" y="162" on="0"/>
        <pt x="656" y="95" on="1"/>
        <pt x="724" y="73" on="0"/>
        <pt x="853" y="73" on="0"/>
        <pt x="948" y="85" on="0"/>
        <pt x="995" y="102" on="1"/>
        <pt x="1100" y="142" on="0"/>
        <pt x="1235" y="350" on="0"/>
        <pt x="1235" y="543" on="1"/>
        <pt x="1235" y="1452" on="1"/>
        <pt x="1079" y="1452" on="1"/>
        <pt x="1079" y="1530" on="1"/>
        <pt x="1479" y="1530" on="1"/>
        <pt x="1479" y="1452" on="1"/>
        <pt x="1333" y="1452" on="1"/>
        <pt x="1333" y="529" on="1"/>
        <pt x="1333" y="252" on="0"/>
        <pt x="1045" y="-20" on="0"/>
        <pt x="798" y="-20" on="1"/>
        <pt x="333" y="-20" on="0"/>
        <pt x="214" y="332" on="1"/>
        <pt x="182" y="426" on="0"/>
        <pt x="182" y="559" on="1"/>
      </contour>
      <contour>
        <pt x="676" y="1679" on="1"/>
        <pt x="965" y="1956" on="1"/>
        <pt x="1019" y="2005" on="0"/>
        <pt x="1056" y="2001" on="1"/>
        <pt x="1119" y="1993" on="0"/>
        <pt x="1179" y="1922" on="0"/>
        <pt x="1172" y="1882" on="1"/>
        <pt x="1159" y="1800" on="0"/>
        <pt x="1093" y="1776" on="1"/>
        <pt x="698" y="1639" on="1"/>
      </contour>
    </TTGlyph>
    <TTGlyph name="Ubreve" xMin="46" yMin="-20" xMax="1479" yMax="2000">
      <contour>
        <pt x="183" y="1452" on="1"/>
        <pt x="46" y="1452" on="1"/>
        <pt x="46" y="1530" on="1"/>
        <pt x="598" y="1530" on="1"/>
        <pt x="598" y="1452" on="1"/>
        <pt x="452" y="1452" on="1"/>
        <pt x="452" y="525" on="1"/>
        <pt x="452" y="162" on="0"/>
        <pt x="656" y="95" on="1"/>
        <pt x="724" y="73" on="0"/>
        <pt x="853" y="73" on="0"/>
        <pt x="948" y="85" on="0"/>
        <pt x="995" y="102" on="1"/>
        <pt x="1100" y="142" on="0"/>
        <pt x="1235" y="350" on="0"/>
        <pt x="1235" y="543" on="1"/>
        <pt x="1235" y="1452" on="1"/>
        <pt x="1079" y="1452" on="1"/>
        <pt x="1079" y="1530" on="1"/>
        <pt x="1479" y="1530" on="1"/>
        <pt x="1479" y="1452" on="1"/>
        <pt x="1333" y="1452" on="1"/>
        <pt x="1333" y="529" on="1"/>
        <pt x="1333" y="252" on="0"/>
        <pt x="1045" y="-20" on="0"/>
        <pt x="798" y="-20" on="1"/>
        <pt x="333" y="-20" on="0"/>
        <pt x="214" y="332" on="1"/>
        <pt x="182" y="426" on="0"/>
        <pt x="182" y="559" on="1"/>
      </contour>
      <contour>
        <pt x="1118" y="2000" on="1"/>
        <pt x="1123" y="1965" on="0"/>
        <pt x="1123" y="1881" on="0"/>
        <pt x="1078" y="1773" on="0"/>
        <pt x="1036" y="1733" on="1"/>
        <pt x="944" y="1647" on="0"/>
        <pt x="797" y="1647" on="1"/>
        <pt x="650" y="1647" on="0"/>
        <pt x="471" y="1815" on="0"/>
        <pt x="471" y="1943" on="1"/>
        <pt x="471" y="1965" on="0"/>
        <pt x="476" y="2000" on="1"/>
        <pt x="533" y="2000" on="1"/>
        <pt x="605" y="1820" on="0"/>
        <pt x="797" y="1820" on="1"/>
        <pt x="989" y="1820" on="0"/>
        <pt x="1061" y="2000" on="1"/>
      </contour>
    </TTGlyph>
    <TTGlyph name="Ucircumflex" xMin="46" yMin="-20" xMax="1479" yMax="2000">
      <contour>
        <pt x="183" y="1452" on="1"/>
        <pt x="46" y="1452" on="1"/>
        <pt x="46" y="1530" on="1"/>
        <pt x="598" y="1530" on="1"/>
        <pt x="598" y="1452" on="1"/>
        <pt x="452" y="1452" on="1"/>
        <pt x="452" y="525" on="1"/>
        <pt x="452" y="162" on="0"/>
        <pt x="656" y="95" on="1"/>
        <pt x="724" y="73" on="0"/>
        <pt x="853" y="73" on="0"/>
        <pt x="948" y="85" on="0"/>
        <pt x="995" y="102" on="1"/>
        <pt x="1100" y="142" on="0"/>
        <pt x="1235" y="350" on="0"/>
        <pt x="1235" y="543" on="1"/>
        <pt x="1235" y="1452" on="1"/>
        <pt x="1079" y="1452" on="1"/>
        <pt x="1079" y="1530" on="1"/>
        <pt x="1479" y="1530" on="1"/>
        <pt x="1479" y="1452" on="1"/>
        <pt x="1333" y="1452" on="1"/>
        <pt x="1333" y="529" on="1"/>
        <pt x="1333" y="252" on="0"/>
        <pt x="1045" y="-20" on="0"/>
        <pt x="798" y="-20" on="1"/>
        <pt x="333" y="-20" on="0"/>
        <pt x="214" y="332" on="1"/>
        <pt x="182" y="426" on="0"/>
        <pt x="182" y="559" on="1"/>
      </contour>
      <contour>
        <pt x="431" y="1646" on="1"/>
        <pt x="694" y="1936" on="1"/>
        <pt x="752" y="2000" on="0"/>
        <pt x="823" y="2000" on="0"/>
        <pt x="840" y="1992" on="1"/>
        <pt x="872" y="1979" on="0"/>
        <pt x="899" y="1950" on="1"/>
        <pt x="1165" y="1647" on="1"/>
        <pt x="1137" y="1610" on="1"/>
        <pt x="803" y="1794" on="1"/>
        <pt x="459" y="1610" on="1"/>
      </contour>
    </TTGlyph>
    <TTGlyph name="Udieresis" xMin="46" yMin="-20" xMax="1479" yMax="1946">
      <contour>
        <pt x="183" y="1452" on="1"/>
        <pt x="46" y="1452" on="1"/>
        <pt x="46" y="1530" on="1"/>
        <pt x="598" y="1530" on="1"/>
        <pt x="598" y="1452" on="1"/>
        <pt x="452" y="1452" on="1"/>
        <pt x="452" y="525" on="1"/>
        <pt x="452" y="162" on="0"/>
        <pt x="656" y="95" on="1"/>
        <pt x="724" y="73" on="0"/>
        <pt x="853" y="73" on="0"/>
        <pt x="948" y="85" on="0"/>
        <pt x="995" y="102" on="1"/>
        <pt x="1100" y="142" on="0"/>
        <pt x="1235" y="350" on="0"/>
        <pt x="1235" y="543" on="1"/>
        <pt x="1235" y="1452" on="1"/>
        <pt x="1079" y="1452" on="1"/>
        <pt x="1079" y="1530" on="1"/>
        <pt x="1479" y="1530" on="1"/>
        <pt x="1479" y="1452" on="1"/>
        <pt x="1333" y="1452" on="1"/>
        <pt x="1333" y="529" on="1"/>
        <pt x="1333" y="252" on="0"/>
        <pt x="1045" y="-20" on="0"/>
        <pt x="798" y="-20" on="1"/>
        <pt x="333" y="-20" on="0"/>
        <pt x="214" y="332" on="1"/>
        <pt x="182" y="426" on="0"/>
        <pt x="182" y="559" on="1"/>
      </contour>
      <contour>
        <pt x="1127" y="1834" on="1"/>
        <pt x="1127" y="1740" on="0"/>
        <pt x="1051" y="1708" on="1"/>
        <pt x="1028" y="1699" on="0"/>
        <pt x="1002" y="1699" on="1"/>
        <pt x="952" y="1699" on="0"/>
        <pt x="880" y="1771" on="0"/>
        <pt x="880" y="1809" on="1"/>
        <pt x="880" y="1874" on="0"/>
        <pt x="954" y="1946" on="0"/>
        <pt x="991" y="1946" on="1"/>
        <pt x="1054" y="1946" on="0"/>
        <pt x="1127" y="1873" on="0"/>
      </contour>
      <contour>
        <pt x="711" y="1834" on="1"/>
        <pt x="711" y="1740" on="0"/>
        <pt x="635" y="1708" on="1"/>
        <pt x="612" y="1699" on="0"/>
        <pt x="586" y="1699" on="1"/>
        <pt x="536" y="1699" on="0"/>
        <pt x="464" y="1771" on="0"/>
        <pt x="464" y="1809" on="1"/>
        <pt x="464" y="1874" on="0"/>
        <pt x="538" y="1946" on="0"/>
        <pt x="575" y="1946" on="1"/>
        <pt x="638" y="1946" on="0"/>
        <pt x="711" y="1873" on="0"/>
      </contour>
    </TTGlyph>
    <TTGlyph name="Ugrave" xMin="46" yMin="-20" xMax="1479" yMax="2003">
      <contour>
        <pt x="183" y="1452" on="1"/>
        <pt x="46" y="1452" on="1"/>
        <pt x="46" y="1530" on="1"/>
        <pt x="598" y="1530" on="1"/>
        <pt x="598" y="1452" on="1"/>
        <pt x="452" y="1452" on="1"/>
        <pt x="452" y="525" on="1"/>
        <pt x="452" y="162" on="0"/>
        <pt x="656" y="95" on="1"/>
        <pt x="724" y="73" on="0"/>
        <pt x="853" y="73" on="0"/>
        <pt x="948" y="85" on="0"/>
        <pt x="995" y="102" on="1"/>
        <pt x="1100" y="142" on="0"/>
        <pt x="1235" y="350" on="0"/>
        <pt x="1235" y="543" on="1"/>
        <pt x="1235" y="1452" on="1"/>
        <pt x="1079" y="1452" on="1"/>
        <pt x="1079" y="1530" on="1"/>
        <pt x="1479" y="1530" on="1"/>
        <pt x="1479" y="1452" on="1"/>
        <pt x="1333" y="1452" on="1"/>
        <pt x="1333" y="529" on="1"/>
        <pt x="1333" y="252" on="0"/>
        <pt x="1045" y="-20" on="0"/>
        <pt x="798" y="-20" on="1"/>
        <pt x="333" y="-20" on="0"/>
        <pt x="214" y="332" on="1"/>
        <pt x="182" y="426" on="0"/>
        <pt x="182" y="559" on="1"/>
      </contour>
      <contour>
        <pt x="520" y="1774" on="1"/>
        <pt x="455" y="1796" on="0"/>
        <pt x="428" y="1917" on="0"/>
        <pt x="487" y="1991" on="0"/>
        <pt x="567" y="2003" on="0"/>
        <pt x="615" y="1982" on="0"/>
        <pt x="641" y="1959" on="1"/>
        <pt x="940" y="1692" on="1"/>
        <pt x="919" y="1651" on="1"/>
      </contour>
    </TTGlyph>
    <TTGlyph name="Uhungarumlaut" xMin="46" yMin="-20" xMax="1479" yMax="2027">
      <contour>
        <pt x="183" y="1452" on="1"/>
        <pt x="46" y="1452" on="1"/>
        <pt x="46" y="1530" on="1"/>
        <pt x="598" y="1530" on="1"/>
        <pt x="598" y="1452" on="1"/>
        <pt x="452" y="1452" on="1"/>
        <pt x="452" y="525" on="1"/>
        <pt x="452" y="162" on="0"/>
        <pt x="656" y="95" on="1"/>
        <pt x="724" y="73" on="0"/>
        <pt x="853" y="73" on="0"/>
        <pt x="948" y="85" on="0"/>
        <pt x="995" y="102" on="1"/>
        <pt x="1100" y="142" on="0"/>
        <pt x="1235" y="350" on="0"/>
        <pt x="1235" y="543" on="1"/>
        <pt x="1235" y="1452" on="1"/>
        <pt x="1079" y="1452" on="1"/>
        <pt x="1079" y="1530" on="1"/>
        <pt x="1479" y="1530" on="1"/>
        <pt x="1479" y="1452" on="1"/>
        <pt x="1333" y="1452" on="1"/>
        <pt x="1333" y="529" on="1"/>
        <pt x="1333" y="252" on="0"/>
        <pt x="1045" y="-20" on="0"/>
        <pt x="798" y="-20" on="1"/>
        <pt x="333" y="-20" on="0"/>
        <pt x="214" y="332" on="1"/>
        <pt x="182" y="426" on="0"/>
        <pt x="182" y="559" on="1"/>
      </contour>
      <contour>
        <pt x="923" y="1630" on="1"/>
        <pt x="1199" y="1948" on="1"/>
        <pt x="1250" y="2005" on="0"/>
        <pt x="1349" y="1992" on="0"/>
        <pt x="1369" y="1966" on="1"/>
        <pt x="1421" y="1894" on="0"/>
        <pt x="1378" y="1834" on="1"/>
        <pt x="1362" y="1813" on="0"/>
        <pt x="1330" y="1796" on="1"/>
        <pt x="952" y="1594" on="1"/>
      </contour>
      <contour>
        <pt x="554" y="1624" on="1"/>
        <pt x="813" y="1944" on="1"/>
        <pt x="881" y="2027" on="0"/>
        <pt x="1018" y="1943" on="0"/>
        <pt x="1006" y="1824" on="0"/>
        <pt x="949" y="1793" on="1"/>
        <pt x="583" y="1588" on="1"/>
      </contour>
    </TTGlyph>
    <TTGlyph name="Umacron" xMin="46" yMin="-20" xMax="1479" yMax="1993">
      <contour>
        <pt x="183" y="1452" on="1"/>
        <pt x="46" y="1452" on="1"/>
        <pt x="46" y="1530" on="1"/>
        <pt x="598" y="1530" on="1"/>
        <pt x="598" y="1452" on="1"/>
        <pt x="452" y="1452" on="1"/>
        <pt x="452" y="525" on="1"/>
        <pt x="452" y="162" on="0"/>
        <pt x="656" y="95" on="1"/>
        <pt x="724" y="73" on="0"/>
        <pt x="853" y="73" on="0"/>
        <pt x="948" y="85" on="0"/>
        <pt x="995" y="102" on="1"/>
        <pt x="1100" y="142" on="0"/>
        <pt x="1235" y="350" on="0"/>
        <pt x="1235" y="543" on="1"/>
        <pt x="1235" y="1452" on="1"/>
        <pt x="1079" y="1452" on="1"/>
        <pt x="1079" y="1530" on="1"/>
        <pt x="1479" y="1530" on="1"/>
        <pt x="1479" y="1452" on="1"/>
        <pt x="1333" y="1452" on="1"/>
        <pt x="1333" y="529" on="1"/>
        <pt x="1333" y="252" on="0"/>
        <pt x="1045" y="-20" on="0"/>
        <pt x="798" y="-20" on="1"/>
        <pt x="333" y="-20" on="0"/>
        <pt x="214" y="332" on="1"/>
        <pt x="182" y="426" on="0"/>
        <pt x="182" y="559" on="1"/>
      </contour>
      <contour>
        <pt x="477" y="1993" on="1"/>
        <pt x="1134" y="1993" on="1"/>
        <pt x="1134" y="1870" on="1"/>
        <pt x="477" y="1870" on="1"/>
      </contour>
    </TTGlyph>
    <TTGlyph name="Uogonek" xMin="46" yMin="-555" xMax="1479" yMax="1530">
      <contour>
        <pt x="888" y="-15" on="1"/>
        <pt x="833" y="-20" on="0"/>
        <pt x="750" y="-20" on="0"/>
        <pt x="621" y="-8" on="0"/>
        <pt x="552" y="12" on="1"/>
        <pt x="392" y="59" on="0"/>
        <pt x="298" y="172" on="1"/>
        <pt x="182" y="316" on="0"/>
        <pt x="182" y="559" on="1"/>
        <pt x="183" y="1452" on="1"/>
        <pt x="46" y="1452" on="1"/>
        <pt x="46" y="1530" on="1"/>
        <pt x="598" y="1530" on="1"/>
        <pt x="598" y="1452" on="1"/>
        <pt x="452" y="1452" on="1"/>
        <pt x="452" y="525" on="1"/>
        <pt x="452" y="162" on="0"/>
        <pt x="656" y="95" on="1"/>
        <pt x="724" y="73" on="0"/>
        <pt x="853" y="73" on="0"/>
        <pt x="948" y="85" on="0"/>
        <pt x="995" y="102" on="1"/>
        <pt x="1100" y="142" on="0"/>
        <pt x="1235" y="350" on="0"/>
        <pt x="1235" y="543" on="1"/>
        <pt x="1235" y="1452" on="1"/>
        <pt x="1079" y="1452" on="1"/>
        <pt x="1079" y="1530" on="1"/>
        <pt x="1479" y="1530" on="1"/>
        <pt x="1479" y="1452" on="1"/>
        <pt x="1333" y="1452" on="1"/>
        <pt x="1333" y="529" on="1"/>
        <pt x="1333" y="222" on="0"/>
        <pt x="1149" y="82" on="1"/>
        <pt x="1009" y="-32" on="0"/>
        <pt x="956" y="-98" on="1"/>
        <pt x="864" y="-214" on="0"/>
        <pt x="864" y="-289" on="1"/>
        <pt x="864" y="-393" on="0"/>
        <pt x="936" y="-428" on="1"/>
        <pt x="959" y="-439" on="0"/>
        <pt x="987" y="-439" on="1"/>
        <pt x="1037" y="-439" on="0"/>
        <pt x="1143" y="-375" on="0"/>
        <pt x="1171" y="-338" on="1"/>
        <pt x="1218" y="-390" on="1"/>
        <pt x="1192" y="-434" on="0"/>
        <pt x="1125" y="-475" on="1"/>
        <pt x="995" y="-555" on="0"/>
        <pt x="893" y="-555" on="1"/>
        <pt x="620" y="-555" on="0"/>
        <pt x="620" y="-352" on="1"/>
        <pt x="620" y="-248" on="0"/>
        <pt x="716" y="-146" on="1"/>
        <pt x="782" y="-76" on="0"/>
      </contour>
    </TTGlyph>
    <TTGlyph name="Uring" xMin="46" yMin="-20" xMax="1479" yMax="1996">
      <contour>
        <pt x="183" y="1452" on="1"/>
        <pt x="46" y="1452" on="1"/>
        <pt x="46" y="1530" on="1"/>
        <pt x="598" y="1530" on="1"/>
        <pt x="598" y="1452" on="1"/>
        <pt x="452" y="1452" on="1"/>
        <pt x="452" y="525" on="1"/>
        <pt x="452" y="162" on="0"/>
        <pt x="656" y="95" on="1"/>
        <pt x="724" y="73" on="0"/>
        <pt x="853" y="73" on="0"/>
        <pt x="948" y="85" on="0"/>
        <pt x="995" y="102" on="1"/>
        <pt x="1100" y="142" on="0"/>
        <pt x="1235" y="350" on="0"/>
        <pt x="1235" y="543" on="1"/>
        <pt x="1235" y="1452" on="1"/>
        <pt x="1079" y="1452" on="1"/>
        <pt x="1079" y="1530" on="1"/>
        <pt x="1479" y="1530" on="1"/>
        <pt x="1479" y="1452" on="1"/>
        <pt x="1333" y="1452" on="1"/>
        <pt x="1333" y="529" on="1"/>
        <pt x="1333" y="252" on="0"/>
        <pt x="1045" y="-20" on="0"/>
        <pt x="798" y="-20" on="1"/>
        <pt x="333" y="-20" on="0"/>
        <pt x="214" y="332" on="1"/>
        <pt x="182" y="426" on="0"/>
        <pt x="182" y="559" on="1"/>
      </contour>
      <contour>
        <pt x="712" y="1627" on="0"/>
        <pt x="588" y="1729" on="0"/>
        <pt x="588" y="1894" on="0"/>
        <pt x="650" y="1945" on="1"/>
        <pt x="712" y="1996" on="0"/>
        <pt x="899" y="1996" on="0"/>
        <pt x="1020" y="1894" on="0"/>
        <pt x="1020" y="1729" on="0"/>
        <pt x="899" y="1627" on="0"/>
      </contour>
      <contour>
        <pt x="706" y="1943" on="0"/>
        <pt x="706" y="1679" on="0"/>
        <pt x="903" y="1679" on="0"/>
        <pt x="903" y="1943" on="0"/>
      </contour>
    </TTGlyph>
    <TTGlyph name="Utilde" xMin="46" yMin="-20" xMax="1479" yMax="1965">
      <contour>
        <pt x="183" y="1452" on="1"/>
        <pt x="46" y="1452" on="1"/>
        <pt x="46" y="1530" on="1"/>
        <pt x="598" y="1530" on="1"/>
        <pt x="598" y="1452" on="1"/>
        <pt x="452" y="1452" on="1"/>
        <pt x="452" y="525" on="1"/>
        <pt x="452" y="162" on="0"/>
        <pt x="656" y="95" on="1"/>
        <pt x="724" y="73" on="0"/>
        <pt x="853" y="73" on="0"/>
        <pt x="948" y="85" on="0"/>
        <pt x="995" y="102" on="1"/>
        <pt x="1100" y="142" on="0"/>
        <pt x="1235" y="350" on="0"/>
        <pt x="1235" y="543" on="1"/>
        <pt x="1235" y="1452" on="1"/>
        <pt x="1079" y="1452" on="1"/>
        <pt x="1079" y="1530" on="1"/>
        <pt x="1479" y="1530" on="1"/>
        <pt x="1479" y="1452" on="1"/>
        <pt x="1333" y="1452" on="1"/>
        <pt x="1333" y="529" on="1"/>
        <pt x="1333" y="252" on="0"/>
        <pt x="1045" y="-20" on="0"/>
        <pt x="798" y="-20" on="1"/>
        <pt x="333" y="-20" on="0"/>
        <pt x="214" y="332" on="1"/>
        <pt x="182" y="426" on="0"/>
        <pt x="182" y="559" on="1"/>
      </contour>
      <contour>
        <pt x="428" y="1734" on="1"/>
        <pt x="484" y="1834" on="0"/>
        <pt x="523" y="1877" on="1"/>
        <pt x="603" y="1965" on="0"/>
        <pt x="742" y="1965" on="0"/>
        <pt x="811" y="1932" on="1"/>
        <pt x="914" y="1882" on="1"/>
        <pt x="948" y="1867" on="0"/>
        <pt x="1021" y="1867" on="0"/>
        <pt x="1086" y="1916" on="0"/>
        <pt x="1122" y="1956" on="1"/>
        <pt x="1168" y="1923" on="1"/>
        <pt x="1112" y="1823" on="0"/>
        <pt x="1073" y="1780" on="1"/>
        <pt x="993" y="1692" on="0"/>
        <pt x="912" y="1692" on="1"/>
        <pt x="856" y="1689" on="0"/>
        <pt x="722" y="1758" on="0"/>
        <pt x="650" y="1790" on="0"/>
        <pt x="575" y="1790" on="0"/>
        <pt x="510" y="1741" on="0"/>
        <pt x="474" y="1701" on="1"/>
      </contour>
    </TTGlyph>
    <TTGlyph name="V" xMin="-13" yMin="-20" xMax="1555" yMax="1530">
      <contour>
        <pt x="121" y="1452" on="1"/>
        <pt x="-13" y="1452" on="1"/>
        <pt x="-13" y="1530" on="1"/>
        <pt x="627" y="1530" on="1"/>
        <pt x="627" y="1452" on="1"/>
        <pt x="434" y="1452" on="1"/>
        <pt x="877" y="317" on="1"/>
        <pt x="1293" y="1452" on="1"/>
        <pt x="1105" y="1452" on="1"/>
        <pt x="1105" y="1530" on="1"/>
        <pt x="1555" y="1530" on="1"/>
        <pt x="1555" y="1452" on="1"/>
        <pt x="1401" y="1452" on="1"/>
        <pt x="846" y="-20" on="1"/>
        <pt x="761" y="-20" on="1"/>
      </contour>
    </TTGlyph>
    <TTGlyph name="W" xMin="-49" yMin="-20" xMax="2293" yMax="1530">
      <contour>
        <pt x="98" y="1452" on="1"/>
        <pt x="-49" y="1452" on="1"/>
        <pt x="-49" y="1530" on="1"/>
        <pt x="596" y="1530" on="1"/>
        <pt x="596" y="1452" on="1"/>
        <pt x="396" y="1452" on="1"/>
        <pt x="773" y="343" on="1"/>
        <pt x="1165" y="1530" on="1"/>
        <pt x="1238" y="1530" on="1"/>
        <pt x="1673" y="348" on="1"/>
        <pt x="2034" y="1452" on="1"/>
        <pt x="1843" y="1452" on="1"/>
        <pt x="1843" y="1530" on="1"/>
        <pt x="2293" y="1530" on="1"/>
        <pt x="2293" y="1452" on="1"/>
        <pt x="2138" y="1452" on="1"/>
        <pt x="1642" y="-20" on="1"/>
        <pt x="1550" y="-20" on="1"/>
        <pt x="1115" y="1088" on="1"/>
        <pt x="743" y="-20" on="1"/>
        <pt x="653" y="-20" on="1"/>
      </contour>
    </TTGlyph>
    <TTGlyph name="Wacute" xMin="-49" yMin="-20" xMax="2293" yMax="2005">
      <contour>
        <pt x="98" y="1452" on="1"/>
        <pt x="-49" y="1452" on="1"/>
        <pt x="-49" y="1530" on="1"/>
        <pt x="596" y="1530" on="1"/>
        <pt x="596" y="1452" on="1"/>
        <pt x="396" y="1452" on="1"/>
        <pt x="773" y="343" on="1"/>
        <pt x="1165" y="1530" on="1"/>
        <pt x="1238" y="1530" on="1"/>
        <pt x="1673" y="348" on="1"/>
        <pt x="2034" y="1452" on="1"/>
        <pt x="1843" y="1452" on="1"/>
        <pt x="1843" y="1530" on="1"/>
        <pt x="2293" y="1530" on="1"/>
        <pt x="2293" y="1452" on="1"/>
        <pt x="2138" y="1452" on="1"/>
        <pt x="1642" y="-20" on="1"/>
        <pt x="1550" y="-20" on="1"/>
        <pt x="1115" y="1088" on="1"/>
        <pt x="743" y="-20" on="1"/>
        <pt x="653" y="-20" on="1"/>
      </contour>
      <contour>
        <pt x="1071" y="1679" on="1"/>
        <pt x="1360" y="1956" on="1"/>
        <pt x="1414" y="2005" on="0"/>
        <pt x="1451" y="2001" on="1"/>
        <pt x="1514" y="1993" on="0"/>
        <pt x="1574" y="1922" on="0"/>
        <pt x="1567" y="1882" on="1"/>
        <pt x="1554" y="1800" on="0"/>
        <pt x="1488" y="1776" on="1"/>
        <pt x="1093" y="1639" on="1"/>
      </contour>
    </TTGlyph>
    <TTGlyph name="Wcircumflex" xMin="-49" yMin="-20" xMax="2293" yMax="2000">
      <contour>
        <pt x="98" y="1452" on="1"/>
        <pt x="-49" y="1452" on="1"/>
        <pt x="-49" y="1530" on="1"/>
        <pt x="596" y="1530" on="1"/>
        <pt x="596" y="1452" on="1"/>
        <pt x="396" y="1452" on="1"/>
        <pt x="773" y="343" on="1"/>
        <pt x="1165" y="1530" on="1"/>
        <pt x="1238" y="1530" on="1"/>
        <pt x="1673" y="348" on="1"/>
        <pt x="2034" y="1452" on="1"/>
        <pt x="1843" y="1452" on="1"/>
        <pt x="1843" y="1530" on="1"/>
        <pt x="2293" y="1530" on="1"/>
        <pt x="2293" y="1452" on="1"/>
        <pt x="2138" y="1452" on="1"/>
        <pt x="1642" y="-20" on="1"/>
        <pt x="1550" y="-20" on="1"/>
        <pt x="1115" y="1088" on="1"/>
        <pt x="743" y="-20" on="1"/>
        <pt x="653" y="-20" on="1"/>
      </contour>
      <contour>
        <pt x="826" y="1646" on="1"/>
        <pt x="1089" y="1936" on="1"/>
        <pt x="1147" y="2000" on="0"/>
        <pt x="1218" y="2000" on="0"/>
        <pt x="1235" y="1992" on="1"/>
        <pt x="1267" y="1979" on="0"/>
        <pt x="1294" y="1950" on="1"/>
        <pt x="1560" y="1647" on="1"/>
        <pt x="1532" y="1610" on="1"/>
        <pt x="1198" y="1794" on="1"/>
        <pt x="854" y="1610" on="1"/>
      </contour>
    </TTGlyph>
    <TTGlyph name="Wdieresis" xMin="-49" yMin="-20" xMax="2293" yMax="1946">
      <contour>
        <pt x="98" y="1452" on="1"/>
        <pt x="-49" y="1452" on="1"/>
        <pt x="-49" y="1530" on="1"/>
        <pt x="596" y="1530" on="1"/>
        <pt x="596" y="1452" on="1"/>
        <pt x="396" y="1452" on="1"/>
        <pt x="773" y="343" on="1"/>
        <pt x="1165" y="1530" on="1"/>
        <pt x="1238" y="1530" on="1"/>
        <pt x="1673" y="348" on="1"/>
        <pt x="2034" y="1452" on="1"/>
        <pt x="1843" y="1452" on="1"/>
        <pt x="1843" y="1530" on="1"/>
        <pt x="2293" y="1530" on="1"/>
        <pt x="2293" y="1452" on="1"/>
        <pt x="2138" y="1452" on="1"/>
        <pt x="1642" y="-20" on="1"/>
        <pt x="1550" y="-20" on="1"/>
        <pt x="1115" y="1088" on="1"/>
        <pt x="743" y="-20" on="1"/>
        <pt x="653" y="-20" on="1"/>
      </contour>
      <contour>
        <pt x="1522" y="1834" on="1"/>
        <pt x="1522" y="1740" on="0"/>
        <pt x="1446" y="1708" on="1"/>
        <pt x="1423" y="1699" on="0"/>
        <pt x="1397" y="1699" on="1"/>
        <pt x="1347" y="1699" on="0"/>
        <pt x="1275" y="1771" on="0"/>
        <pt x="1275" y="1809" on="1"/>
        <pt x="1275" y="1874" on="0"/>
        <pt x="1349" y="1946" on="0"/>
        <pt x="1386" y="1946" on="1"/>
        <pt x="1449" y="1946" on="0"/>
        <pt x="1522" y="1873" on="0"/>
      </contour>
      <contour>
        <pt x="1106" y="1834" on="1"/>
        <pt x="1106" y="1740" on="0"/>
        <pt x="1030" y="1708" on="1"/>
        <pt x="1007" y="1699" on="0"/>
        <pt x="981" y="1699" on="1"/>
        <pt x="931" y="1699" on="0"/>
        <pt x="859" y="1771" on="0"/>
        <pt x="859" y="1809" on="1"/>
        <pt x="859" y="1874" on="0"/>
        <pt x="933" y="1946" on="0"/>
        <pt x="970" y="1946" on="1"/>
        <pt x="1033" y="1946" on="0"/>
        <pt x="1106" y="1873" on="0"/>
      </contour>
    </TTGlyph>
    <TTGlyph name="Wgrave" xMin="-49" yMin="-20" xMax="2293" yMax="2003">
      <contour>
        <pt x="98" y="1452" on="1"/>
        <pt x="-49" y="1452" on="1"/>
        <pt x="-49" y="1530" on="1"/>
        <pt x="596" y="1530" on="1"/>
        <pt x="596" y="1452" on="1"/>
        <pt x="396" y="1452" on="1"/>
        <pt x="773" y="343" on="1"/>
        <pt x="1165" y="1530" on="1"/>
        <pt x="1238" y="1530" on="1"/>
        <pt x="1673" y="348" on="1"/>
        <pt x="2034" y="1452" on="1"/>
        <pt x="1843" y="1452" on="1"/>
        <pt x="1843" y="1530" on="1"/>
        <pt x="2293" y="1530" on="1"/>
        <pt x="2293" y="1452" on="1"/>
        <pt x="2138" y="1452" on="1"/>
        <pt x="1642" y="-20" on="1"/>
        <pt x="1550" y="-20" on="1"/>
        <pt x="1115" y="1088" on="1"/>
        <pt x="743" y="-20" on="1"/>
        <pt x="653" y="-20" on="1"/>
      </contour>
      <contour>
        <pt x="915" y="1774" on="1"/>
        <pt x="850" y="1796" on="0"/>
        <pt x="823" y="1917" on="0"/>
        <pt x="882" y="1991" on="0"/>
        <pt x="962" y="2003" on="0"/>
        <pt x="1010" y="1982" on="0"/>
        <pt x="1036" y="1959" on="1"/>
        <pt x="1335" y="1692" on="1"/>
        <pt x="1314" y="1651" on="1"/>
      </contour>
    </TTGlyph>
    <TTGlyph name="X" xMin="15" yMin="0" xMax="1523" yMax="1531">
      <contour>
        <pt x="17" y="78" on="1"/>
        <pt x="187" y="78" on="1"/>
        <pt x="655" y="705" on="1"/>
        <pt x="161" y="1452" on="1"/>
        <pt x="15" y="1452" on="1"/>
        <pt x="15" y="1530" on="1"/>
        <pt x="650" y="1530" on="1"/>
        <pt x="650" y="1452" on="1"/>
        <pt x="465" y="1452" on="1"/>
        <pt x="831" y="906" on="1"/>
        <pt x="1233" y="1452" on="1"/>
        <pt x="1064" y="1452" on="1"/>
        <pt x="1064" y="1531" on="1"/>
        <pt x="1514" y="1531" on="1"/>
        <pt x="1514" y="1452" on="1"/>
        <pt x="1343" y="1452" on="1"/>
        <pt x="883" y="828" on="1"/>
        <pt x="1387" y="78" on="1"/>
        <pt x="1523" y="78" on="1"/>
        <pt x="1523" y="0" on="1"/>
        <pt x="889" y="0" on="1"/>
        <pt x="889" y="78" on="1"/>
        <pt x="1071" y="78" on="1"/>
        <pt x="707" y="626" on="1"/>
        <pt x="301" y="78" on="1"/>
        <pt x="484" y="78" on="1"/>
        <pt x="484" y="0" on="1"/>
        <pt x="17" y="0" on="1"/>
      </contour>
    </TTGlyph>
    <TTGlyph name="Y" xMin="10" yMin="0" xMax="1524" yMax="1530">
      <contour>
        <pt x="448" y="78" on="1"/>
        <pt x="646" y="78" on="1"/>
        <pt x="647" y="590" on="1"/>
        <pt x="135" y="1452" on="1"/>
        <pt x="10" y="1452" on="1"/>
        <pt x="10" y="1530" on="1"/>
        <pt x="654" y="1530" on="1"/>
        <pt x="654" y="1452" on="1"/>
        <pt x="451" y="1452" on="1"/>
        <pt x="860" y="733" on="1"/>
        <pt x="1266" y="1452" on="1"/>
        <pt x="1082" y="1452" on="1"/>
        <pt x="1082" y="1530" on="1"/>
        <pt x="1524" y="1530" on="1"/>
        <pt x="1524" y="1452" on="1"/>
        <pt x="1373" y="1452" on="1"/>
        <pt x="916" y="652" on="1"/>
        <pt x="916" y="78" on="1"/>
        <pt x="1115" y="78" on="1"/>
        <pt x="1115" y="0" on="1"/>
        <pt x="448" y="0" on="1"/>
      </contour>
    </TTGlyph>
    <TTGlyph name="Yacute" xMin="10" yMin="0" xMax="1524" yMax="2005">
      <contour>
        <pt x="448" y="78" on="1"/>
        <pt x="646" y="78" on="1"/>
        <pt x="647" y="590" on="1"/>
        <pt x="135" y="1452" on="1"/>
        <pt x="10" y="1452" on="1"/>
        <pt x="10" y="1530" on="1"/>
        <pt x="654" y="1530" on="1"/>
        <pt x="654" y="1452" on="1"/>
        <pt x="451" y="1452" on="1"/>
        <pt x="860" y="733" on="1"/>
        <pt x="1266" y="1452" on="1"/>
        <pt x="1082" y="1452" on="1"/>
        <pt x="1082" y="1530" on="1"/>
        <pt x="1524" y="1530" on="1"/>
        <pt x="1524" y="1452" on="1"/>
        <pt x="1373" y="1452" on="1"/>
        <pt x="916" y="652" on="1"/>
        <pt x="916" y="78" on="1"/>
        <pt x="1115" y="78" on="1"/>
        <pt x="1115" y="0" on="1"/>
        <pt x="448" y="0" on="1"/>
      </contour>
      <contour>
        <pt x="657" y="1679" on="1"/>
        <pt x="946" y="1956" on="1"/>
        <pt x="1000" y="2005" on="0"/>
        <pt x="1037" y="2001" on="1"/>
        <pt x="1100" y="1993" on="0"/>
        <pt x="1160" y="1922" on="0"/>
        <pt x="1153" y="1882" on="1"/>
        <pt x="1140" y="1800" on="0"/>
        <pt x="1074" y="1776" on="1"/>
        <pt x="679" y="1639" on="1"/>
      </contour>
    </TTGlyph>
</ttFont>
